<svg width="482" height="589" viewBox="0 0 482 589" fill="none" xmlns="http://www.w3.org/2000/svg">
<path d="M229.245 398.268L127.606 339.592L229.245 280.854L330.857 339.592L229.245 398.268Z" fill="url(#paint0_linear_148_143)"/>
<path d="M229.245 398.62L127.606 339.967V217.629L229.245 158.672L330.857 217.678V339.967L229.245 398.62Z" fill="url(#paint1_linear_148_143)"/>
<path d="M229.33 272.554L127.606 217.629V339.579L229.245 398.634L229.33 272.554Z" fill="url(#paint2_linear_148_143)"/>
<path d="M229.245 276.354L127.606 217.678L229.245 158.94L330.857 217.678L229.245 276.354Z" fill="url(#paint3_linear_148_143)"/>
<g opacity="0.08">
<path d="M229.433 158.739L127.811 217.477L127.504 339.547L229.54 280.457L229.433 158.739Z" fill="white"/>
</g>
<path d="M229.232 158.94L229.308 280.698L330.857 339.329V217.678L229.232 158.94Z" fill="url(#paint4_linear_148_143)"/>
<path d="M229.227 276.345L229.307 280.698L330.857 339.333V217.673L229.227 276.345Z" fill="url(#paint5_linear_148_143)"/>
<g opacity="0.26">
<path d="M300.061 236.009L272.655 373.501L236.212 394.307L263.677 256.551L300.061 236.009Z" fill="url(#paint6_linear_148_143)"/>
</g>
<path d="M229.245 398.268L127.606 339.592L229.245 280.854L330.857 339.592L229.245 398.268Z" fill="url(#paint7_linear_148_143)"/>
<path d="M229.245 398.62L127.606 339.967V217.629L229.245 158.672L330.857 217.678V339.967L229.245 398.62Z" fill="url(#paint8_linear_148_143)"/>
<path d="M229.33 272.554L127.606 217.629V339.579L229.245 398.634L229.33 272.554Z" fill="url(#paint9_linear_148_143)"/>
<path d="M229.245 276.354L127.606 217.678L229.245 158.94L330.857 217.678L229.245 276.354Z" fill="url(#paint10_linear_148_143)"/>
<g opacity="0.08">
<path d="M229.433 158.739L127.811 217.477L127.504 339.547L229.54 280.457L229.433 158.739Z" fill="white"/>
</g>
<path d="M229.232 158.94L229.308 280.698L330.857 339.329V217.678L229.232 158.94Z" fill="url(#paint11_linear_148_143)"/>
<path d="M229.227 276.345L229.307 280.698L330.857 339.333V217.673L229.227 276.345Z" fill="url(#paint12_linear_148_143)"/>
<g opacity="0.26">
<path d="M300.061 236.009L272.655 373.501L236.212 394.307L263.677 256.551L300.061 236.009Z" fill="url(#paint13_linear_148_143)"/>
</g>
<path d="M353.996 471.769L252.357 413.093L353.996 354.355L455.608 413.093L353.996 471.769Z" fill="url(#paint14_linear_148_143)"/>
<path d="M353.996 472.121L252.357 413.467V291.13L353.996 232.173L455.608 291.179V413.467L353.996 472.121Z" fill="url(#paint15_linear_148_143)"/>
<path d="M354.081 346.055L252.357 291.13V413.079L353.996 472.134L354.081 346.055Z" fill="url(#paint16_linear_148_143)"/>
<path d="M353.996 349.854L252.357 291.179L353.996 232.44L455.608 291.179L353.996 349.854Z" fill="url(#paint17_linear_148_143)"/>
<g opacity="0.08">
<path d="M354.183 232.24L252.562 290.978L252.254 413.048L354.29 353.958L354.183 232.24Z" fill="white"/>
</g>
<path d="M353.982 232.44L354.058 354.198L455.608 412.83V291.179L353.982 232.44Z" fill="url(#paint18_linear_148_143)"/>
<path d="M353.978 349.846L354.058 354.199L455.608 412.834V291.174L353.978 349.846Z" fill="url(#paint19_linear_148_143)"/>
<g opacity="0.26">
<path d="M424.812 309.509L397.405 447.002L360.962 467.808L388.427 330.052L424.812 309.509Z" fill="url(#paint20_linear_148_143)"/>
</g>
<g opacity="0.01">
<path d="M481.315 588.352L481.292 588.338L481.315 588.324L481.339 588.338L481.315 588.352Z" fill="url(#paint21_linear_148_143)"/>
<path d="M481.315 588.352L481.292 588.338V588.31L481.315 588.296L481.339 588.31V588.338L481.315 588.352Z" fill="url(#paint22_linear_148_143)"/>
<path d="M481.315 588.323L481.292 588.31V588.338L481.315 588.352L481.315 588.323Z" fill="url(#paint23_linear_148_143)"/>
<path d="M481.315 588.323L481.292 588.31L481.315 588.296L481.339 588.31L481.315 588.323Z" fill="url(#paint24_linear_148_143)"/>
<g opacity="0.08">
<path d="M481.316 588.296L481.292 588.31L481.292 588.338L481.316 588.324L481.316 588.296Z" fill="white"/>
</g>
<path d="M481.315 588.296L481.315 588.324L481.339 588.338V588.31L481.315 588.296Z" fill="url(#paint25_linear_148_143)"/>
<path d="M481.315 588.323L481.315 588.324L481.339 588.338V588.31L481.315 588.323Z" fill="url(#paint26_linear_148_143)"/>
<g opacity="0.26">
<path d="M481.332 588.314L481.326 588.346L481.317 588.351L481.323 588.319L481.332 588.314Z" fill="url(#paint27_linear_148_143)"/>
</g>
</g>
<path d="M101.943 471.514L0.304443 412.839L101.943 354.1L203.556 412.839L101.943 471.514Z" fill="url(#paint28_linear_148_143)"/>
<path d="M101.943 471.867L0.304443 413.213V290.875L101.943 231.919L203.556 290.924V413.213L101.943 471.867Z" fill="url(#paint29_linear_148_143)"/>
<path d="M102.028 345.8L0.304443 290.875V412.825L101.943 471.88L102.028 345.8Z" fill="url(#paint30_linear_148_143)"/>
<path d="M101.943 349.6L0.304443 290.925L101.943 232.186L203.556 290.925L101.943 349.6Z" fill="url(#paint31_linear_148_143)"/>
<g opacity="0.08">
<path d="M102.131 231.986L0.509645 290.724L0.201904 412.794L102.238 353.703L102.131 231.986Z" fill="white"/>
</g>
<path d="M101.93 232.186L102.006 353.944L203.555 412.576V290.925L101.93 232.186Z" fill="url(#paint32_linear_148_143)"/>
<path d="M101.925 349.591L102.006 353.944L203.555 412.58V290.92L101.925 349.591Z" fill="url(#paint33_linear_148_143)"/>
<g opacity="0.26">
<path d="M172.76 309.255L145.353 446.748L108.91 467.554L136.375 329.798L172.76 309.255Z" fill="url(#paint34_linear_148_143)"/>
</g>
<path d="M229.245 240.018L127.606 181.342L229.245 122.604L330.857 181.342L229.245 240.018Z" fill="url(#paint35_linear_148_143)"/>
<path d="M229.245 240.37L127.606 181.717V59.3791L229.245 0.422363L330.857 59.4282V181.717L229.245 240.37Z" fill="url(#paint36_linear_148_143)"/>
<path d="M229.33 114.304L127.606 59.3791V181.329L229.245 240.384L229.33 114.304Z" fill="url(#paint37_linear_148_143)"/>
<path d="M229.245 118.104L127.606 59.4282L229.245 0.690002L330.857 59.4282L229.245 118.104Z" fill="url(#paint38_linear_148_143)"/>
<g opacity="0.08">
<path d="M229.433 0.489288L127.811 59.2275L127.504 181.298L229.54 122.207L229.433 0.489288Z" fill="white"/>
</g>
<path d="M229.232 0.690002L229.308 122.448L330.857 181.079V59.4282L229.232 0.690002Z" fill="url(#paint39_linear_148_143)"/>
<path d="M229.227 118.095L229.307 122.448L330.857 181.084V59.4237L229.227 118.095Z" fill="url(#paint40_linear_148_143)"/>
<g opacity="0.26">
<path d="M300.061 77.7588L272.655 215.252L236.212 236.058L263.677 98.3015L300.061 77.7588Z" fill="url(#paint41_linear_148_143)"/>
</g>
<defs>
<linearGradient id="paint0_linear_148_143" x1="-108317" y1="-60395" x2="229.069" y2="287.231" gradientUnits="userSpaceOnUse">
<stop stop-color="#97F8FF"/>
<stop offset="0.5" stop-color="#86E5EB"/>
<stop offset="1" stop-color="#76D3D6"/>
</linearGradient>
<linearGradient id="paint1_linear_148_143" x1="220.312" y1="465.966" x2="225.887" y2="304.291" gradientUnits="userSpaceOnUse">
<stop stop-color="#44C8F5"/>
<stop offset="0.5" stop-color="#246C87"/>
<stop offset="1" stop-color="#050F19"/>
</linearGradient>
<linearGradient id="paint2_linear_148_143" x1="129.734" y1="302.32" x2="222.047" y2="302.757" gradientUnits="userSpaceOnUse">
<stop stop-color="#44C8F5"/>
<stop offset="0.5" stop-color="#246C87"/>
<stop offset="1" stop-color="#050F19"/>
</linearGradient>
<linearGradient id="paint3_linear_148_143" x1="151.182" y1="239.947" x2="233.692" y2="150.747" gradientUnits="userSpaceOnUse">
<stop stop-color="#44C8F5"/>
<stop offset="0.5" stop-color="#246C87"/>
<stop offset="1" stop-color="#050F19"/>
</linearGradient>
<linearGradient id="paint4_linear_148_143" x1="239.699" y1="262.653" x2="265.549" y2="137.831" gradientUnits="userSpaceOnUse">
<stop stop-color="#44C8F5"/>
<stop offset="0.5" stop-color="#246C87"/>
<stop offset="1" stop-color="#050F19"/>
</linearGradient>
<linearGradient id="paint5_linear_148_143" x1="291.194" y1="369.933" x2="283.389" y2="222.753" gradientUnits="userSpaceOnUse">
<stop stop-color="#44C8F5"/>
<stop offset="0.5" stop-color="#246C87"/>
<stop offset="1" stop-color="#050F19"/>
</linearGradient>
<linearGradient id="paint6_linear_148_143" x1="-33620.6" y1="-82908.7" x2="229.064" y2="287.235" gradientUnits="userSpaceOnUse">
<stop stop-color="white"/>
<stop offset="0.5" stop-color="#9ED9ED"/>
<stop offset="1" stop-color="#3DB3DC"/>
</linearGradient>
<linearGradient id="paint7_linear_148_143" x1="-108317" y1="-60395" x2="229.069" y2="287.231" gradientUnits="userSpaceOnUse">
<stop stop-color="#97F8FF"/>
<stop offset="0.5" stop-color="#86E5EB"/>
<stop offset="1" stop-color="#76D3D6"/>
</linearGradient>
<linearGradient id="paint8_linear_148_143" x1="220.312" y1="465.966" x2="225.887" y2="304.291" gradientUnits="userSpaceOnUse">
<stop stop-color="#44C8F5"/>
<stop offset="0.5" stop-color="#246C87"/>
<stop offset="1" stop-color="#050F19"/>
</linearGradient>
<linearGradient id="paint9_linear_148_143" x1="129.734" y1="302.32" x2="222.047" y2="302.757" gradientUnits="userSpaceOnUse">
<stop stop-color="#44C8F5"/>
<stop offset="0.5" stop-color="#246C87"/>
<stop offset="1" stop-color="#050F19"/>
</linearGradient>
<linearGradient id="paint10_linear_148_143" x1="151.182" y1="239.947" x2="233.692" y2="150.747" gradientUnits="userSpaceOnUse">
<stop stop-color="#44C8F5"/>
<stop offset="0.5" stop-color="#246C87"/>
<stop offset="1" stop-color="#050F19"/>
</linearGradient>
<linearGradient id="paint11_linear_148_143" x1="239.699" y1="262.653" x2="265.549" y2="137.831" gradientUnits="userSpaceOnUse">
<stop stop-color="#44C8F5"/>
<stop offset="0.5" stop-color="#246C87"/>
<stop offset="1" stop-color="#050F19"/>
</linearGradient>
<linearGradient id="paint12_linear_148_143" x1="291.194" y1="369.933" x2="283.389" y2="222.753" gradientUnits="userSpaceOnUse">
<stop stop-color="#44C8F5"/>
<stop offset="0.5" stop-color="#246C87"/>
<stop offset="1" stop-color="#050F19"/>
</linearGradient>
<linearGradient id="paint13_linear_148_143" x1="-33620.6" y1="-82908.7" x2="229.064" y2="287.235" gradientUnits="userSpaceOnUse">
<stop stop-color="white"/>
<stop offset="0.5" stop-color="#9ED9ED"/>
<stop offset="1" stop-color="#3DB3DC"/>
</linearGradient>
<linearGradient id="paint14_linear_148_143" x1="-108192" y1="-60321.5" x2="353.819" y2="360.732" gradientUnits="userSpaceOnUse">
<stop stop-color="#97F8FF"/>
<stop offset="0.5" stop-color="#86E5EB"/>
<stop offset="1" stop-color="#76D3D6"/>
</linearGradient>
<linearGradient id="paint15_linear_148_143" x1="345.062" y1="539.467" x2="350.637" y2="377.792" gradientUnits="userSpaceOnUse">
<stop stop-color="#44C8F5"/>
<stop offset="0.5" stop-color="#246C87"/>
<stop offset="1" stop-color="#050F19"/>
</linearGradient>
<linearGradient id="paint16_linear_148_143" x1="254.484" y1="375.821" x2="346.797" y2="376.258" gradientUnits="userSpaceOnUse">
<stop stop-color="#44C8F5"/>
<stop offset="0.5" stop-color="#246C87"/>
<stop offset="1" stop-color="#050F19"/>
</linearGradient>
<linearGradient id="paint17_linear_148_143" x1="275.932" y1="313.447" x2="358.442" y2="224.247" gradientUnits="userSpaceOnUse">
<stop stop-color="#44C8F5"/>
<stop offset="0.5" stop-color="#246C87"/>
<stop offset="1" stop-color="#050F19"/>
</linearGradient>
<linearGradient id="paint18_linear_148_143" x1="364.45" y1="336.153" x2="390.3" y2="211.331" gradientUnits="userSpaceOnUse">
<stop stop-color="#44C8F5"/>
<stop offset="0.5" stop-color="#246C87"/>
<stop offset="1" stop-color="#050F19"/>
</linearGradient>
<linearGradient id="paint19_linear_148_143" x1="415.945" y1="443.434" x2="408.14" y2="296.254" gradientUnits="userSpaceOnUse">
<stop stop-color="#44C8F5"/>
<stop offset="0.5" stop-color="#246C87"/>
<stop offset="1" stop-color="#050F19"/>
</linearGradient>
<linearGradient id="paint20_linear_148_143" x1="-33495.8" y1="-82835.2" x2="353.815" y2="360.736" gradientUnits="userSpaceOnUse">
<stop stop-color="white"/>
<stop offset="0.5" stop-color="#9ED9ED"/>
<stop offset="1" stop-color="#3DB3DC"/>
</linearGradient>
<linearGradient id="paint21_linear_148_143" x1="456.239" y1="574.307" x2="481.315" y2="588.326" gradientUnits="userSpaceOnUse">
<stop stop-color="#97F8FF"/>
<stop offset="0.5" stop-color="#86E5EB"/>
<stop offset="1" stop-color="#76D3D6"/>
</linearGradient>
<linearGradient id="paint22_linear_148_143" x1="481.313" y1="588.367" x2="481.315" y2="588.33" gradientUnits="userSpaceOnUse">
<stop stop-color="#44C8F5"/>
<stop offset="0.5" stop-color="#246C87"/>
<stop offset="1" stop-color="#050F19"/>
</linearGradient>
<linearGradient id="paint23_linear_148_143" x1="481.292" y1="588.329" x2="481.314" y2="588.329" gradientUnits="userSpaceOnUse">
<stop stop-color="#44C8F5"/>
<stop offset="0.5" stop-color="#246C87"/>
<stop offset="1" stop-color="#050F19"/>
</linearGradient>
<linearGradient id="paint24_linear_148_143" x1="481.297" y1="588.315" x2="481.317" y2="588.294" gradientUnits="userSpaceOnUse">
<stop stop-color="#44C8F5"/>
<stop offset="0.5" stop-color="#246C87"/>
<stop offset="1" stop-color="#050F19"/>
</linearGradient>
<linearGradient id="paint25_linear_148_143" x1="481.318" y1="588.32" x2="481.324" y2="588.291" gradientUnits="userSpaceOnUse">
<stop stop-color="#44C8F5"/>
<stop offset="0.5" stop-color="#246C87"/>
<stop offset="1" stop-color="#050F19"/>
</linearGradient>
<linearGradient id="paint26_linear_148_143" x1="481.33" y1="588.345" x2="481.328" y2="588.311" gradientUnits="userSpaceOnUse">
<stop stop-color="#44C8F5"/>
<stop offset="0.5" stop-color="#246C87"/>
<stop offset="1" stop-color="#050F19"/>
</linearGradient>
<linearGradient id="paint27_linear_148_143" x1="473.495" y1="569.106" x2="481.315" y2="588.326" gradientUnits="userSpaceOnUse">
<stop stop-color="white"/>
<stop offset="0.5" stop-color="#9ED9ED"/>
<stop offset="1" stop-color="#3DB3DC"/>
</linearGradient>
<linearGradient id="paint28_linear_148_143" x1="-108444" y1="-60321.7" x2="101.767" y2="360.477" gradientUnits="userSpaceOnUse">
<stop stop-color="#97F8FF"/>
<stop offset="0.5" stop-color="#86E5EB"/>
<stop offset="1" stop-color="#76D3D6"/>
</linearGradient>
<linearGradient id="paint29_linear_148_143" x1="93.01" y1="539.213" x2="98.585" y2="377.538" gradientUnits="userSpaceOnUse">
<stop stop-color="#44C8F5"/>
<stop offset="0.5" stop-color="#246C87"/>
<stop offset="1" stop-color="#050F19"/>
</linearGradient>
<linearGradient id="paint30_linear_148_143" x1="2.43186" y1="375.566" x2="94.745" y2="376.004" gradientUnits="userSpaceOnUse">
<stop stop-color="#44C8F5"/>
<stop offset="0.5" stop-color="#246C87"/>
<stop offset="1" stop-color="#050F19"/>
</linearGradient>
<linearGradient id="paint31_linear_148_143" x1="23.88" y1="313.193" x2="106.39" y2="223.993" gradientUnits="userSpaceOnUse">
<stop stop-color="#44C8F5"/>
<stop offset="0.5" stop-color="#246C87"/>
<stop offset="1" stop-color="#050F19"/>
</linearGradient>
<linearGradient id="paint32_linear_148_143" x1="112.398" y1="335.899" x2="138.248" y2="211.077" gradientUnits="userSpaceOnUse">
<stop stop-color="#44C8F5"/>
<stop offset="0.5" stop-color="#246C87"/>
<stop offset="1" stop-color="#050F19"/>
</linearGradient>
<linearGradient id="paint33_linear_148_143" x1="163.893" y1="443.18" x2="156.088" y2="296" gradientUnits="userSpaceOnUse">
<stop stop-color="#44C8F5"/>
<stop offset="0.5" stop-color="#246C87"/>
<stop offset="1" stop-color="#050F19"/>
</linearGradient>
<linearGradient id="paint34_linear_148_143" x1="-33747.9" y1="-82835.4" x2="101.763" y2="360.482" gradientUnits="userSpaceOnUse">
<stop stop-color="white"/>
<stop offset="0.5" stop-color="#9ED9ED"/>
<stop offset="1" stop-color="#3DB3DC"/>
</linearGradient>
<linearGradient id="paint35_linear_148_143" x1="-108317" y1="-60553.2" x2="229.069" y2="128.981" gradientUnits="userSpaceOnUse">
<stop stop-color="#97F8FF"/>
<stop offset="0.5" stop-color="#86E5EB"/>
<stop offset="1" stop-color="#76D3D6"/>
</linearGradient>
<linearGradient id="paint36_linear_148_143" x1="220.312" y1="307.716" x2="225.887" y2="146.041" gradientUnits="userSpaceOnUse">
<stop stop-color="#44C8F5"/>
<stop offset="0.5" stop-color="#246C87"/>
<stop offset="1" stop-color="#050F19"/>
</linearGradient>
<linearGradient id="paint37_linear_148_143" x1="129.734" y1="144.07" x2="222.047" y2="144.507" gradientUnits="userSpaceOnUse">
<stop stop-color="#44C8F5"/>
<stop offset="0.5" stop-color="#246C87"/>
<stop offset="1" stop-color="#050F19"/>
</linearGradient>
<linearGradient id="paint38_linear_148_143" x1="151.182" y1="81.697" x2="233.692" y2="-7.50301" gradientUnits="userSpaceOnUse">
<stop stop-color="#44C8F5"/>
<stop offset="0.5" stop-color="#246C87"/>
<stop offset="1" stop-color="#050F19"/>
</linearGradient>
<linearGradient id="paint39_linear_148_143" x1="239.699" y1="104.403" x2="265.549" y2="-20.4192" gradientUnits="userSpaceOnUse">
<stop stop-color="#44C8F5"/>
<stop offset="0.5" stop-color="#246C87"/>
<stop offset="1" stop-color="#050F19"/>
</linearGradient>
<linearGradient id="paint40_linear_148_143" x1="291.194" y1="211.684" x2="283.389" y2="64.5036" gradientUnits="userSpaceOnUse">
<stop stop-color="#44C8F5"/>
<stop offset="0.5" stop-color="#246C87"/>
<stop offset="1" stop-color="#050F19"/>
</linearGradient>
<linearGradient id="paint41_linear_148_143" x1="-33620.6" y1="-83066.9" x2="229.064" y2="128.986" gradientUnits="userSpaceOnUse">
<stop stop-color="white"/>
<stop offset="0.5" stop-color="#9ED9ED"/>
<stop offset="1" stop-color="#3DB3DC"/>
</linearGradient>
</defs>
</svg>
