<svg width="1639" height="350" viewBox="0 0 1639 350" fill="none" xmlns="http://www.w3.org/2000/svg">
<g clip-path="url(#clip0_1_2)">
<path d="M0 0H166.5C166.49 55.5 166.5 111 166.49 166.5H0V0Z" fill="white"/>
<path d="M183.5 0H350C350 55.5 350.01 111 350 166.5C294.51 166.5 239.01 166.5 183.52 166.5C183.5 111 183.51 55.5 183.51 0H183.5Z" fill="white"/>
<path d="M1603.23 158.56C1603.28 175.37 1603.24 192.18 1603.25 209C1603.44 218.31 1602.75 227.67 1603.84 236.95C1604.5 242.42 1606.49 248.48 1611.62 251.31C1620.21 256.12 1631.11 254.02 1639 248.74V278.27C1628.71 282.74 1617.21 284.1 1606.08 283.31C1595.52 282.53 1584.58 278.69 1577.69 270.29C1569.73 260.8 1567.68 247.95 1567.52 235.93C1567.43 210.13 1567.52 184.33 1567.48 158.52C1549.91 158.51 1532.34 158.5 1514.78 158.53C1514.76 199.02 1514.78 239.51 1514.78 280H1478.77C1478.77 239.52 1478.72 199.05 1478.79 158.57C1470.44 158.41 1462.08 158.61 1453.73 158.44C1453.76 148.83 1453.8 139.21 1453.71 129.59C1462.02 129.4 1470.34 129.48 1478.67 129.54C1479.28 116.76 1477.33 103.61 1481.15 91.16C1484.38 79.92 1491.56 69.78 1501.46 63.44C1516.81 53.45 1536.64 52.52 1553.94 57.28C1554.09 67.56 1553.96 77.85 1554.01 88.14C1545.79 84.52 1536.12 82.16 1527.47 85.71C1520.61 88.43 1516.53 95.47 1515.46 102.51C1514.17 111.44 1515.01 120.49 1514.79 129.47C1532.35 129.51 1549.91 129.48 1567.47 129.49C1567.6 118.09 1567.33 106.68 1567.62 95.28C1579.56 91.88 1591.37 88.07 1603.25 84.49C1603.35 99.51 1603.11 114.54 1603.38 129.57C1615.25 129.4 1627.13 129.53 1639.01 129.49V158.73C1627.09 158.24 1615.16 158.6 1603.24 158.56H1603.23Z" fill="white"/>
<path d="M730.47 65.54C737.73 64.44 745.59 66.92 750.4 72.6C756.04 78.82 757.08 88.72 752.9 95.99C748.28 104.19 737.94 108 728.93 106.03C719.58 104.35 711.79 95.66 712.21 85.97C711.94 75.77 720.47 66.68 730.47 65.54Z" fill="white"/>
<path d="M454.5 70H506.87C523.17 111.39 539.59 152.74 555.91 194.13C560.08 204.48 563.98 214.95 568.35 225.22C589.32 173.5 610.59 121.91 631.4 70.12C648.19 69.85 664.99 70.06 681.79 70.02C681.75 140.01 681.77 210 681.79 279.99C669.67 279.96 657.56 280.09 645.45 279.92C645.58 228.27 645.44 176.62 645.51 124.96C645.53 122.64 645.45 120.32 645.29 118C644.58 119.08 643.95 120.2 643.4 121.36C622.59 174.23 601.38 226.95 580.69 279.87C572.07 280.18 563.44 279.89 554.81 280.03C533.34 227.16 512.14 174.17 490.78 121.26C490.22 120.16 489.62 119.09 488.97 118.06C488.53 140.69 488.9 163.34 488.78 185.97C488.79 217.31 488.76 248.65 488.79 279.99C477.36 280.02 465.93 279.99 454.51 280C454.51 210 454.49 140 454.51 70H454.5Z" fill="white"/>
<path d="M829.57 129.35C846.95 124.4 865.69 124.6 883.06 129.51C886.64 130.51 890.11 131.9 893.33 133.79C893.13 145.26 893.33 156.74 893.22 168.22C881.61 159.35 866.88 153.73 852.12 155.59C840.4 156.65 829.22 162.73 822.21 172.2C813.2 183.94 811.12 199.53 812.67 213.89C813.83 225.13 818.48 236.36 827.22 243.81C836.3 251.88 849.03 254.74 860.91 253.84C872.65 252.49 883.73 247.52 893.22 240.58C893.32 251.45 893.17 262.32 893.3 273.19C878.58 281.95 860.93 284.21 844.08 283.38C826.84 282.47 809.65 275.94 797.17 263.82C783.61 250.75 776.25 232.11 775.38 213.44C774.5 194.03 778.45 173.78 789.62 157.57C798.98 143.74 813.62 133.95 829.57 129.35Z" fill="white"/>
<path d="M1156.54 164.63C1150.29 150.73 1139.01 139.12 1125.09 132.84C1109.05 125.54 1090.82 124.56 1073.54 126.76C1055.39 129.05 1037.72 137.59 1026.2 152.06C1015.68 164.98 1010.56 181.58 1009.58 198.05C1008.13 217.46 1011.37 238.06 1022.77 254.26C1032.48 268.24 1047.81 277.85 1064.37 281.39C1078.21 284.3 1092.69 284.31 1106.53 281.43C1122.72 278.1 1137.84 269.14 1147.87 255.92C1157.67 243.47 1162.59 227.77 1163.7 212.1C1164.83 196.05 1163.21 179.43 1156.54 164.63ZM1121.76 233.71C1118.32 241.45 1112.02 247.99 1104.07 251.09C1094.77 254.66 1084.32 254.87 1074.72 252.38C1064.95 249.81 1056.66 242.75 1052.15 233.76C1046.35 222.18 1045.48 208.79 1046.68 196.09C1047.77 184.54 1051.79 172.66 1060.59 164.69C1066.97 158.73 1075.67 155.82 1084.28 155.34C1095.1 154.63 1106.62 157.69 1114.4 165.56C1122.72 173.74 1125.94 185.61 1126.83 196.93C1127.47 209.32 1126.96 222.23 1121.76 233.71Z" fill="white"/>
<path d="M1222.92 127.06C1239.57 124.13 1257 126.28 1272.76 132.25C1272.78 143.29 1272.76 154.32 1272.77 165.35C1261.76 157.78 1248.31 153.71 1234.95 154.18C1228.22 154.44 1220.82 157.29 1217.75 163.69C1215.31 170.02 1217 178.32 1222.97 182.11C1233.18 188.94 1245.36 191.84 1255.94 197.96C1264.27 202.64 1272.35 208.76 1276.57 217.58C1284.5 234.1 1281.14 255.93 1267.2 268.25C1253.89 280.69 1234.72 284.13 1217.09 283.47C1204.57 282.66 1191.99 280.19 1180.48 275.07C1180.53 263.46 1180.41 251.86 1180.54 240.26C1190.22 247.29 1201.39 252.32 1213.21 254.36C1221.44 255.7 1230.39 255.76 1238.06 252.08C1245.4 248.43 1246.72 238 1242.36 231.62C1238.28 226.7 1232.29 223.99 1226.64 221.33C1216.03 216.56 1204.88 212.57 1195.56 205.42C1189.01 200.31 1184.05 193.11 1182.11 184.99C1179.23 173.02 1180.13 159.53 1187.09 149.07C1195.04 136.88 1208.85 129.57 1222.92 127.06Z" fill="white"/>
<path d="M1444.93 168.98C1439.39 154.04 1428.3 141.12 1414 133.97C1397.6 125.69 1378.52 124.48 1360.55 126.71C1346.06 128.57 1331.82 134.07 1320.76 143.78C1307.26 155.41 1299.34 172.51 1297.01 190C1294.79 207.49 1295.54 225.91 1302.67 242.28C1309.51 258.34 1323.01 271.38 1339.25 277.77C1355.28 284.08 1373.1 284.79 1389.97 282.06C1407.22 279.21 1423.56 270.14 1434.24 256.18C1445.65 241.76 1450.56 223.1 1450.53 204.92C1450.78 192.75 1449.26 180.41 1444.93 168.98ZM1412.45 220C1411.07 227.92 1408.33 235.82 1403.14 242.09C1397.91 248.39 1390.13 252.23 1382.1 253.41C1373.48 254.7 1364.4 254.08 1356.34 250.61C1347.64 246.93 1340.9 239.4 1337.35 230.74C1333.08 220.42 1332.23 208.99 1333.08 197.95C1333.9 187.26 1336.93 176.29 1343.99 167.98C1350.43 160.22 1360.31 155.93 1370.27 155.37C1380.44 154.66 1391.3 157.01 1399.12 163.88C1406.33 169.86 1410.32 178.82 1412.15 187.84C1414.21 198.42 1414.19 209.37 1412.45 220Z" fill="white"/>
<path d="M973.85 131.8C983.79 125.83 996.42 125.33 1007.27 128.98C1007.22 140.99 1007.27 153 1007.24 165.01C1000.14 160.41 991.28 158.44 982.9 159.29C972.68 160.45 964.58 168.3 960.38 177.3C955.82 186.83 954.96 197.61 955.25 208.03C955.25 232.02 955.26 256.01 955.25 280H919.75C919.72 229.86 919.79 179.71 919.72 129.57C931.57 129.42 943.42 129.48 955.27 129.54C955.22 138.15 955.27 146.76 955.24 155.38C959.09 146.01 964.82 136.91 973.85 131.8Z" fill="white"/>
<path d="M715.48 129.54C727.42 129.49 739.37 129.37 751.31 129.6C751.17 179.73 751.3 229.87 751.25 280H715.5C715.47 229.85 715.5 179.7 715.48 129.54Z" fill="white"/>
<path d="M0 183.49C55.5 183.51 111 183.48 166.5 183.51C166.5 239.01 166.5 294.5 166.5 350H0V183.49Z" fill="white"/>
<path d="M183.51 183.51C239 183.49 294.5 183.51 350 183.51V350.01H183.5C183.51 294.51 183.5 239.01 183.51 183.52V183.51Z" fill="white"/>
</g>
<defs>
<clipPath id="clip0_1_2">
<rect width="1639" height="350" fill="white"/>
</clipPath>
</defs>
</svg>
