<svg width="674" height="329" viewBox="0 0 674 329" fill="none" xmlns="http://www.w3.org/2000/svg">
<g clip-path="url(#clip0_101_130)">
<mask id="mask0_101_130" style="mask-type:luminance" maskUnits="userSpaceOnUse" x="0" y="0" width="674" height="329">
<path d="M674 0H0V329H674V0Z" fill="white"/>
</mask>
<g mask="url(#mask0_101_130)">
<path d="M296.021 223.211C294.162 227.377 292.095 231.448 289.827 235.407C289.08 236.739 288.299 238.06 287.529 239.357C272.844 263.339 251.462 282.506 226.016 294.5C200.569 306.493 172.169 310.789 144.31 306.859C110.023 301.961 78.6536 284.869 55.9611 258.72C33.2686 232.57 20.7757 199.119 20.7757 164.506C20.7757 129.893 33.2686 96.4414 55.9611 70.292C78.6536 44.1426 110.023 27.0501 144.31 22.1523C151.034 21.2071 157.815 20.7351 164.604 20.7398C183.503 20.6907 202.223 24.386 219.684 31.6123C237.144 38.8385 252.997 49.4521 266.327 62.8395C274.42 70.9165 281.529 79.921 287.506 89.6657C288.299 90.9519 289.057 92.2495 289.804 93.5472C291.337 96.2344 292.773 98.9637 294.114 101.735H316.89C302.287 66.4462 275.833 37.3464 242.08 19.442C208.328 1.53757 169.386 -4.05194 131.955 3.63506C94.5246 11.322 60.9447 31.8049 36.9927 61.5598C13.0407 91.3148 0.214262 128.481 0.719968 166.665C1.22567 204.85 15.0319 241.664 39.7635 270.775C64.4951 299.886 98.6057 319.474 136.227 326.168C173.848 332.862 212.628 326.245 245.895 307.454C279.161 288.663 304.835 258.874 318.499 223.211H296.021Z" fill="white"/>
<g opacity="0.2">
<path opacity="0.2" d="M281.611 245.708C283.664 243.656 285.629 241.539 287.506 239.357C273.627 261.949 253.84 280.325 230.278 292.504C220.483 294.785 210.458 295.941 200.4 295.95C165.528 295.95 132.084 282.106 107.426 257.464C82.7675 232.822 68.9146 199.401 68.9146 164.552C68.9146 129.703 82.7675 96.2812 107.426 71.6394C132.084 46.9975 165.528 33.1538 200.4 33.1538C210.458 33.1622 220.483 34.3181 230.278 36.5989C253.85 48.7729 273.643 67.1551 287.517 89.7576C285.648 87.5756 283.679 85.4549 281.611 83.3955C270.966 72.6965 258.303 64.2137 244.355 58.438C230.408 52.6624 215.452 49.7087 200.354 49.7479C194.926 49.754 189.504 50.1377 184.128 50.8963C156.736 54.7969 131.672 68.4431 113.54 89.3284C95.4072 110.214 85.4241 136.936 85.4241 164.586C85.4241 192.237 95.4072 218.958 113.54 239.844C131.672 260.729 156.736 274.375 184.128 278.276C189.504 279.035 194.926 279.418 200.354 279.424C215.457 279.455 230.416 276.491 244.364 270.703C258.312 264.916 270.972 256.42 281.611 245.708Z" fill="white"/>
</g>
<g opacity="0.5">
<path opacity="0.5" d="M289.827 235.407C275.531 260.519 254.013 280.758 228.066 293.499C202.118 306.24 172.938 310.894 144.31 306.859C112.943 298.473 85.2235 279.974 65.4521 254.235C45.6806 228.495 34.9634 196.954 34.9634 164.506C34.9634 132.057 45.6806 100.516 65.4521 74.7766C85.2235 49.0371 112.943 30.5389 144.31 22.1523C151.034 21.2071 157.815 20.7351 164.604 20.7398C183.503 20.69 202.224 24.3851 219.684 31.6114C237.144 38.8376 252.998 49.4516 266.327 62.8395C275.488 71.9832 283.384 82.3108 289.804 93.5472C285.001 86.3321 279.493 79.6116 273.36 73.485C254.571 54.7569 230.446 42.2943 204.291 37.8056C178.136 33.3169 151.233 37.0217 127.268 48.4123C103.303 59.8028 83.4493 78.3215 70.4292 101.43C57.409 124.538 51.8592 151.105 54.5406 177.489C57.2219 203.874 68.0032 228.783 85.4065 248.804C102.81 268.824 125.983 282.976 151.751 289.319C177.518 295.662 204.618 293.886 229.335 284.235C254.053 274.583 275.178 257.527 289.816 235.407H289.827Z" fill="white"/>
</g>
<path d="M175.441 109.257L176.372 173.073L114.432 109.625L100.826 109.705L101.435 210.407L123.361 210.269L122.557 146.453L184.358 209.901L197.838 209.821L197.229 109.119L175.441 109.257Z" fill="white"/>
<path d="M632.378 137.978L632.631 116.779H653.051V137.978H672.931V154.917H653.051V183.844C652.932 186.513 653.813 189.129 655.522 191.183C656.325 192.098 657.323 192.824 658.442 193.306C659.561 193.789 660.773 194.017 661.991 193.973C666.115 193.988 670.199 193.172 674 191.573V208.213C668.082 210.644 661.723 211.817 655.326 211.658C648.477 211.658 642.938 209.484 638.71 205.136C634.481 200.787 632.37 195.095 632.378 188.059V154.871" fill="white"/>
<path d="M497.812 134.625C489.537 134.611 481.497 137.382 474.99 142.491L467.762 136.083L457.098 136.175L457.707 236.601L478.127 236.475L477.92 202.931C482.775 206.017 488.282 207.931 494.005 208.522C499.729 209.113 505.511 208.365 510.895 206.337C516.279 204.308 521.116 201.055 525.024 196.835C528.932 192.616 531.804 187.544 533.412 182.024C535.019 176.503 535.319 170.684 534.287 165.027C533.255 159.37 530.92 154.032 527.466 149.433C524.012 144.834 519.535 141.102 514.388 138.532C509.241 135.962 503.566 134.624 497.812 134.625ZM497.812 190.367C494.114 190.37 490.498 189.276 487.422 187.224C484.345 185.172 481.947 182.255 480.53 178.841C479.114 175.427 478.742 171.67 479.462 168.045C480.182 164.42 481.962 161.09 484.576 158.475C487.19 155.861 490.522 154.081 494.149 153.359C497.776 152.637 501.536 153.006 504.953 154.42C508.37 155.834 511.291 158.229 513.346 161.302C515.4 164.374 516.497 167.987 516.497 171.683C516.499 174.136 516.017 176.566 515.078 178.832C514.14 181.099 512.764 183.159 511.029 184.894C509.293 186.629 507.233 188.006 504.965 188.945C502.697 189.884 500.267 190.367 497.812 190.367Z" fill="white"/>
<path d="M415.429 148.991L408.431 146.798C405.542 145.953 402.752 144.798 400.111 143.353C398.601 142.564 397.34 141.371 396.468 139.907C395.858 138.567 395.556 137.108 395.584 135.635C395.573 134.349 395.841 133.076 396.369 131.902C396.896 130.729 397.671 129.683 398.64 128.837C400.701 126.938 403.969 125.974 408.443 125.943C412.331 125.858 416.192 126.598 419.773 128.114C423.365 129.735 426.743 131.795 429.828 134.246L438.826 119.581C434.942 116.197 430.461 113.568 425.611 111.829C420.198 109.666 414.421 108.559 408.592 108.568C402.292 108.477 396.05 109.775 390.309 112.369C385.306 114.648 381.057 118.305 378.059 122.911C375.08 127.662 373.581 133.19 373.75 138.793C373.796 146.694 376.048 152.647 380.507 156.651C384.965 160.655 390.975 163.866 398.537 166.286L405.432 168.353C408.884 169.36 412.244 170.659 415.475 172.234C417.345 173.094 418.969 174.409 420.198 176.058C421.15 177.69 421.62 179.557 421.554 181.444C421.536 182.746 421.215 184.025 420.616 185.181C420.018 186.337 419.159 187.338 418.107 188.105C415.809 190.011 412.108 190.976 406.937 191.01C402.466 191.104 398.022 190.279 393.883 188.587C389.958 186.918 386.303 184.677 383.035 181.938L375.221 196.201C378.231 199.263 382.64 202.088 388.447 204.676C394.607 207.347 401.271 208.655 407.983 208.512C415.644 208.466 422.133 207.065 427.45 204.309C432.379 201.932 436.535 198.21 439.435 193.571C442.008 189.434 443.373 184.661 443.377 179.791C443.323 171.262 440.791 164.659 435.781 159.981C430.771 155.303 423.987 151.64 415.429 148.991Z" fill="white"/>
<path d="M581.275 134.636C573.943 134.639 566.777 136.813 560.682 140.885C554.587 144.958 549.838 150.744 547.033 157.514C544.229 164.284 543.497 171.732 544.929 178.918C546.36 186.103 549.892 192.703 555.077 197.883C560.262 203.063 566.867 206.59 574.058 208.019C581.249 209.447 588.703 208.713 595.476 205.909C602.249 203.105 608.038 198.356 612.111 192.264C616.184 186.172 618.358 179.01 618.358 171.683C618.358 166.817 617.399 161.999 615.535 157.503C613.671 153.008 610.94 148.923 607.496 145.483C604.052 142.043 599.964 139.314 595.465 137.453C590.966 135.592 586.144 134.635 581.275 134.636ZM581.275 190.367C577.577 190.367 573.962 189.272 570.888 187.218C567.813 185.165 565.417 182.247 564.001 178.833C562.586 175.419 562.216 171.662 562.938 168.038C563.659 164.414 565.44 161.084 568.054 158.471C570.669 155.858 574.001 154.079 577.627 153.358C581.254 152.637 585.014 153.007 588.43 154.421C591.846 155.835 594.766 158.23 596.821 161.303C598.875 164.375 599.972 167.988 599.972 171.683C599.972 176.638 598.002 181.391 594.496 184.895C590.989 188.399 586.234 190.367 581.275 190.367Z" fill="white"/>
<path d="M251.032 134.441C244.76 134.439 238.59 136.028 233.1 139.058C227.61 142.088 222.978 146.46 219.64 151.766C216.301 157.072 214.364 163.138 214.009 169.395C213.655 175.653 214.895 181.898 217.614 187.547C220.333 193.195 224.441 198.061 229.554 201.691C234.668 205.321 240.619 207.594 246.851 208.299C253.083 209.005 259.392 208.118 265.188 205.723C270.984 203.328 276.077 199.503 279.991 194.605L263.351 185.533C261.118 187.491 258.449 188.889 255.567 189.611C252.685 190.333 249.673 190.358 246.779 189.685C243.885 189.011 241.194 187.658 238.928 185.738C236.662 183.818 234.887 181.385 233.749 178.642H287.414C287.718 177.126 287.921 175.592 288.023 174.049C288.023 173.199 288.104 172.361 288.104 171.499C288.108 169.109 287.877 166.724 287.414 164.379C285.767 155.946 281.236 148.348 274.599 142.886C267.961 137.425 259.63 134.439 251.032 134.441ZM233.795 164.368C235.207 160.948 237.603 158.024 240.68 155.966C243.757 153.909 247.376 152.81 251.078 152.81C254.78 152.81 258.399 153.909 261.476 155.966C264.553 158.024 266.949 160.948 268.361 164.368H233.795Z" fill="white"/>
<path d="M339.873 189.713C336.002 191.359 331.841 192.218 327.634 192.239C326.39 192.289 325.151 192.061 324.006 191.572C322.861 191.083 321.84 190.346 321.015 189.414C319.251 187.337 318.332 184.672 318.441 181.95L318.269 152.425L338.551 152.298L338.448 135.015L318.154 135.142L318.039 113.506H297.067V135.233L297.17 152.459L297.354 186.394C297.4 193.575 299.591 199.371 303.927 203.78C308.263 208.19 313.929 210.376 320.923 210.338C327.455 210.453 333.94 209.209 339.965 206.686L339.873 189.713Z" fill="white"/>
<path d="M332.967 264.306V266.378H327.647V283.822H325.099V266.378H319.751V264.306H332.967ZM343.719 268.198C344.877 268.198 345.922 268.45 346.855 268.954C347.789 269.439 348.517 270.177 349.039 271.166C349.581 272.155 349.851 273.359 349.851 274.778V283.822H347.331V275.142C347.331 273.611 346.949 272.445 346.183 271.642C345.418 270.821 344.373 270.41 343.047 270.41C341.703 270.41 340.63 270.83 339.827 271.67C339.043 272.51 338.651 273.733 338.651 275.338V283.822H336.103V263.102H338.651V270.662C339.155 269.878 339.846 269.271 340.723 268.842C341.619 268.413 342.618 268.198 343.719 268.198ZM355.329 265.986C354.844 265.986 354.433 265.818 354.097 265.482C353.761 265.146 353.593 264.735 353.593 264.25C353.593 263.765 353.761 263.354 354.097 263.018C354.433 262.682 354.844 262.514 355.329 262.514C355.796 262.514 356.188 262.682 356.505 263.018C356.841 263.354 357.009 263.765 357.009 264.25C357.009 264.735 356.841 265.146 356.505 265.482C356.188 265.818 355.796 265.986 355.329 265.986ZM356.561 268.478V283.822H354.013V268.478H356.561ZM368.38 268.198C370.247 268.198 371.759 268.767 372.916 269.906C374.073 271.026 374.652 272.65 374.652 274.778V283.822H372.132V275.142C372.132 273.611 371.749 272.445 370.984 271.642C370.219 270.821 369.173 270.41 367.848 270.41C366.504 270.41 365.431 270.83 364.628 271.67C363.844 272.51 363.452 273.733 363.452 275.338V283.822H360.904V268.478H363.452V270.662C363.956 269.878 364.637 269.271 365.496 268.842C366.373 268.413 367.335 268.198 368.38 268.198ZM387.382 283.822L381.362 277.046V283.822H378.814V263.102H381.362V275.282L387.27 268.478H390.826L383.602 276.122L390.854 283.822H387.382ZM402.005 265.986C401.52 265.986 401.109 265.818 400.773 265.482C400.437 265.146 400.269 264.735 400.269 264.25C400.269 263.765 400.437 263.354 400.773 263.018C401.109 262.682 401.52 262.514 402.005 262.514C402.472 262.514 402.864 262.682 403.181 263.018C403.517 263.354 403.685 263.765 403.685 264.25C403.685 264.735 403.517 265.146 403.181 265.482C402.864 265.818 402.472 265.986 402.005 265.986ZM403.237 268.478V283.822H400.689V268.478H403.237ZM415.056 268.198C416.922 268.198 418.434 268.767 419.592 269.906C420.749 271.026 421.328 272.65 421.328 274.778V283.822H418.808V275.142C418.808 273.611 418.425 272.445 417.66 271.642C416.894 270.821 415.849 270.41 414.524 270.41C413.18 270.41 412.106 270.83 411.304 271.67C410.52 272.51 410.128 273.733 410.128 275.338V283.822H407.58V268.478H410.128V270.662C410.632 269.878 411.313 269.271 412.172 268.842C413.049 268.413 414.01 268.198 415.056 268.198ZM440.431 268.198C442.297 268.198 443.809 268.767 444.967 269.906C446.124 271.026 446.703 272.65 446.703 274.778V283.822H444.183V275.142C444.183 273.611 443.8 272.445 443.035 271.642C442.269 270.821 441.224 270.41 439.899 270.41C438.555 270.41 437.481 270.83 436.679 271.67C435.895 272.51 435.503 273.733 435.503 275.338V283.822H432.955V268.478H435.503V270.662C436.007 269.878 436.688 269.271 437.547 268.842C438.424 268.413 439.385 268.198 440.431 268.198ZM464.865 275.562C464.865 276.047 464.837 276.561 464.781 277.102H452.517C452.61 278.614 453.124 279.799 454.057 280.658C455.009 281.498 456.157 281.918 457.501 281.918C458.602 281.918 459.517 281.666 460.245 281.162C460.992 280.639 461.514 279.949 461.813 279.09H464.557C464.146 280.565 463.325 281.769 462.093 282.702C460.861 283.617 459.33 284.074 457.501 284.074C456.045 284.074 454.738 283.747 453.581 283.094C452.442 282.441 451.546 281.517 450.893 280.322C450.24 279.109 449.913 277.709 449.913 276.122C449.913 274.535 450.23 273.145 450.865 271.95C451.5 270.755 452.386 269.841 453.525 269.206C454.682 268.553 456.008 268.226 457.501 268.226C458.957 268.226 460.245 268.543 461.365 269.178C462.485 269.813 463.344 270.69 463.941 271.81C464.557 272.911 464.865 274.162 464.865 275.562ZM462.233 275.03C462.233 274.059 462.018 273.229 461.589 272.538C461.16 271.829 460.572 271.297 459.825 270.942C459.097 270.569 458.285 270.382 457.389 270.382C456.101 270.382 455 270.793 454.085 271.614C453.189 272.435 452.676 273.574 452.545 275.03H462.233ZM488.668 268.478L483.88 283.822H481.248L477.552 271.642L473.856 283.822H471.224L466.408 268.478H469.012L472.54 281.358L476.348 268.478H478.952L482.676 281.386L486.148 268.478H488.668ZM497.71 276.094C497.71 274.526 498.027 273.154 498.662 271.978C499.297 270.783 500.165 269.859 501.266 269.206C502.386 268.553 503.637 268.226 505.018 268.226C506.213 268.226 507.323 268.506 508.35 269.066C509.377 269.607 510.161 270.326 510.702 271.222V263.102H513.278V283.822H510.702V280.938C510.198 281.853 509.451 282.609 508.462 283.206C507.473 283.785 506.315 284.074 504.99 284.074C503.627 284.074 502.386 283.738 501.266 283.066C500.165 282.394 499.297 281.451 498.662 280.238C498.027 279.025 497.71 277.643 497.71 276.094ZM510.702 276.122C510.702 274.965 510.469 273.957 510.002 273.098C509.535 272.239 508.901 271.586 508.098 271.138C507.314 270.671 506.446 270.438 505.494 270.438C504.542 270.438 503.674 270.662 502.89 271.11C502.106 271.558 501.481 272.211 501.014 273.07C500.547 273.929 500.314 274.937 500.314 276.094C500.314 277.27 500.547 278.297 501.014 279.174C501.481 280.033 502.106 280.695 502.89 281.162C503.674 281.61 504.542 281.834 505.494 281.834C506.446 281.834 507.314 281.61 508.098 281.162C508.901 280.695 509.535 280.033 510.002 279.174C510.469 278.297 510.702 277.279 510.702 276.122ZM518.9 265.986C518.414 265.986 518.004 265.818 517.668 265.482C517.332 265.146 517.164 264.735 517.164 264.25C517.164 263.765 517.332 263.354 517.668 263.018C518.004 262.682 518.414 262.514 518.9 262.514C519.366 262.514 519.758 262.682 520.076 263.018C520.412 263.354 520.58 263.765 520.58 264.25C520.58 264.735 520.412 265.146 520.076 265.482C519.758 265.818 519.366 265.986 518.9 265.986ZM520.132 268.478V283.822H517.584V268.478H520.132ZM542.926 268.198C544.121 268.198 545.185 268.45 546.118 268.954C547.052 269.439 547.789 270.177 548.33 271.166C548.872 272.155 549.142 273.359 549.142 274.778V283.822H546.622V275.142C546.622 273.611 546.24 272.445 545.474 271.642C544.728 270.821 543.71 270.41 542.422 270.41C541.097 270.41 540.042 270.839 539.258 271.698C538.474 272.538 538.082 273.761 538.082 275.366V283.822H535.562V275.142C535.562 273.611 535.18 272.445 534.414 271.642C533.668 270.821 532.65 270.41 531.362 270.41C530.037 270.41 528.982 270.839 528.198 271.698C527.414 272.538 527.022 273.761 527.022 275.366V283.822H524.474V268.478H527.022V270.69C527.526 269.887 528.198 269.271 529.038 268.842C529.897 268.413 530.84 268.198 531.866 268.198C533.154 268.198 534.293 268.487 535.282 269.066C536.272 269.645 537.009 270.494 537.494 271.614C537.924 270.531 538.633 269.691 539.622 269.094C540.612 268.497 541.713 268.198 542.926 268.198ZM567.322 275.562C567.322 276.047 567.294 276.561 567.238 277.102H554.974C555.067 278.614 555.581 279.799 556.514 280.658C557.466 281.498 558.614 281.918 559.958 281.918C561.059 281.918 561.974 281.666 562.702 281.162C563.449 280.639 563.971 279.949 564.27 279.09H567.014C566.603 280.565 565.782 281.769 564.55 282.702C563.318 283.617 561.787 284.074 559.958 284.074C558.502 284.074 557.195 283.747 556.038 283.094C554.899 282.441 554.003 281.517 553.35 280.322C552.697 279.109 552.37 277.709 552.37 276.122C552.37 274.535 552.687 273.145 553.322 271.95C553.957 270.755 554.843 269.841 555.982 269.206C557.139 268.553 558.465 268.226 559.958 268.226C561.414 268.226 562.702 268.543 563.822 269.178C564.942 269.813 565.801 270.69 566.398 271.81C567.014 272.911 567.322 274.162 567.322 275.562ZM564.69 275.03C564.69 274.059 564.475 273.229 564.046 272.538C563.617 271.829 563.029 271.297 562.282 270.942C561.554 270.569 560.742 270.382 559.846 270.382C558.558 270.382 557.457 270.793 556.542 271.614C555.646 272.435 555.133 273.574 555.002 275.03H564.69ZM578.161 268.198C580.028 268.198 581.54 268.767 582.697 269.906C583.855 271.026 584.433 272.65 584.433 274.778V283.822H581.913V275.142C581.913 273.611 581.531 272.445 580.765 271.642C580 270.821 578.955 270.41 577.629 270.41C576.285 270.41 575.212 270.83 574.409 271.67C573.625 272.51 573.233 273.733 573.233 275.338V283.822H570.685V268.478H573.233V270.662C573.737 269.878 574.419 269.271 575.277 268.842C576.155 268.413 577.116 268.198 578.161 268.198ZM594.027 284.074C592.851 284.074 591.797 283.878 590.863 283.486C589.93 283.075 589.193 282.515 588.651 281.806C588.11 281.078 587.811 280.247 587.755 279.314H590.387C590.462 280.079 590.817 280.705 591.451 281.19C592.105 281.675 592.954 281.918 593.999 281.918C594.97 281.918 595.735 281.703 596.295 281.274C596.855 280.845 597.135 280.303 597.135 279.65C597.135 278.978 596.837 278.483 596.239 278.166C595.642 277.83 594.718 277.503 593.467 277.186C592.329 276.887 591.395 276.589 590.667 276.29C589.958 275.973 589.342 275.515 588.819 274.918C588.315 274.302 588.063 273.499 588.063 272.51C588.063 271.726 588.297 271.007 588.763 270.354C589.23 269.701 589.893 269.187 590.751 268.814C591.61 268.422 592.59 268.226 593.691 268.226C595.39 268.226 596.762 268.655 597.807 269.514C598.853 270.373 599.413 271.549 599.487 273.042H596.939C596.883 272.239 596.557 271.595 595.959 271.11C595.381 270.625 594.597 270.382 593.607 270.382C592.693 270.382 591.965 270.578 591.423 270.97C590.882 271.362 590.611 271.875 590.611 272.51C590.611 273.014 590.77 273.434 591.087 273.77C591.423 274.087 591.834 274.349 592.319 274.554C592.823 274.741 593.514 274.955 594.391 275.198C595.493 275.497 596.389 275.795 597.079 276.094C597.77 276.374 598.358 276.803 598.843 277.382C599.347 277.961 599.609 278.717 599.627 279.65C599.627 280.49 599.394 281.246 598.927 281.918C598.461 282.59 597.798 283.122 596.939 283.514C596.099 283.887 595.129 284.074 594.027 284.074ZM604.54 265.986C604.055 265.986 603.644 265.818 603.308 265.482C602.972 265.146 602.804 264.735 602.804 264.25C602.804 263.765 602.972 263.354 603.308 263.018C603.644 262.682 604.055 262.514 604.54 262.514C605.007 262.514 605.399 262.682 605.716 263.018C606.052 263.354 606.22 263.765 606.22 264.25C606.22 264.735 606.052 265.146 605.716 265.482C605.399 265.818 605.007 265.986 604.54 265.986ZM605.772 268.478V283.822H603.224V268.478H605.772ZM616.807 284.074C615.37 284.074 614.063 283.747 612.887 283.094C611.73 282.441 610.815 281.517 610.143 280.322C609.49 279.109 609.163 277.709 609.163 276.122C609.163 274.554 609.499 273.173 610.171 271.978C610.862 270.765 611.795 269.841 612.971 269.206C614.147 268.553 615.463 268.226 616.919 268.226C618.375 268.226 619.691 268.553 620.867 269.206C622.043 269.841 622.967 270.755 623.639 271.95C624.33 273.145 624.675 274.535 624.675 276.122C624.675 277.709 624.32 279.109 623.611 280.322C622.92 281.517 621.978 282.441 620.783 283.094C619.588 283.747 618.263 284.074 616.807 284.074ZM616.807 281.834C617.722 281.834 618.58 281.619 619.383 281.19C620.186 280.761 620.83 280.117 621.315 279.258C621.819 278.399 622.071 277.354 622.071 276.122C622.071 274.89 621.828 273.845 621.343 272.986C620.858 272.127 620.223 271.493 619.439 271.082C618.655 270.653 617.806 270.438 616.891 270.438C615.958 270.438 615.099 270.653 614.315 271.082C613.55 271.493 612.934 272.127 612.467 272.986C612 273.845 611.767 274.89 611.767 276.122C611.767 277.373 611.991 278.427 612.439 279.286C612.906 280.145 613.522 280.789 614.287 281.218C615.052 281.629 615.892 281.834 616.807 281.834ZM635.501 268.198C637.368 268.198 638.88 268.767 640.037 269.906C641.194 271.026 641.773 272.65 641.773 274.778V283.822H639.253V275.142C639.253 273.611 638.87 272.445 638.105 271.642C637.34 270.821 636.294 270.41 634.969 270.41C633.625 270.41 632.552 270.83 631.749 271.67C630.965 272.51 630.573 273.733 630.573 275.338V283.822H628.025V268.478H630.573V270.662C631.077 269.878 631.758 269.271 632.617 268.842C633.494 268.413 634.456 268.198 635.501 268.198ZM651.367 284.074C650.191 284.074 649.137 283.878 648.203 283.486C647.27 283.075 646.533 282.515 645.991 281.806C645.45 281.078 645.151 280.247 645.095 279.314H647.727C647.802 280.079 648.157 280.705 648.791 281.19C649.445 281.675 650.294 281.918 651.339 281.918C652.31 281.918 653.075 281.703 653.635 281.274C654.195 280.845 654.475 280.303 654.475 279.65C654.475 278.978 654.177 278.483 653.579 278.166C652.982 277.83 652.058 277.503 650.807 277.186C649.669 276.887 648.735 276.589 648.007 276.29C647.298 275.973 646.682 275.515 646.159 274.918C645.655 274.302 645.403 273.499 645.403 272.51C645.403 271.726 645.637 271.007 646.103 270.354C646.57 269.701 647.233 269.187 648.091 268.814C648.95 268.422 649.93 268.226 651.031 268.226C652.73 268.226 654.102 268.655 655.147 269.514C656.193 270.373 656.753 271.549 656.827 273.042H654.279C654.223 272.239 653.897 271.595 653.299 271.11C652.721 270.625 651.937 270.382 650.947 270.382C650.033 270.382 649.305 270.578 648.763 270.97C648.222 271.362 647.951 271.875 647.951 272.51C647.951 273.014 648.11 273.434 648.427 273.77C648.763 274.087 649.174 274.349 649.659 274.554C650.163 274.741 650.854 274.955 651.731 275.198C652.833 275.497 653.729 275.795 654.419 276.094C655.11 276.374 655.698 276.803 656.183 277.382C656.687 277.961 656.949 278.717 656.967 279.65C656.967 280.49 656.734 281.246 656.267 281.918C655.801 282.59 655.138 283.122 654.279 283.514C653.439 283.887 652.469 284.074 651.367 284.074Z" fill="white"/>
</g>
</g>
<defs>
<clipPath id="clip0_101_130">
<rect width="674" height="329" fill="white"/>
</clipPath>
</defs>
</svg>
