<?xml version="1.0" encoding="UTF-8"?><svg id="Layer_2" xmlns="http://www.w3.org/2000/svg" viewBox="0 0 68.15 27.8"><defs><style>.cls-1{fill:#fff;}</style></defs><g id="Layer_1-2"><path class="cls-1" d="m18.77,19.73c.09.6-.08,1.14-.38,1.64-.45.76-1.1,1.33-1.81,1.84-.62.44-1.3.8-1.98,1.15-1.44.72-2.91,1.36-4.41,1.97-1.1.45-2.21.87-3.36,1.18-.34.09-.7.13-1.06.19-.03,0-.06.01-.09.04.08.02.16.03.23.05h-1.07s.04-.02.08-.03c-.04-.02-.07-.03-.1-.04-.55-.06-1-.51-1.08-1.07-.05-.3-.06-.61-.02-.91.1-.75.22-1.49.37-2.23.21-1,.46-1.98.7-2.98.24-1.02.49-2.04.71-3.07.11-.5.18-1.02.25-1.53.06-.47-.07-.92-.24-1.36-.21-.53-.51-1.01-.83-1.47-.71-1.01-1.45-2.01-2.17-3.02-.69-.97-1.33-1.97-1.83-3.05-.28-.61-.51-1.24-.6-1.91-.13-.9-.14-1.79.11-2.67C.52,1.28,1.29.55,2.46.21,3.15.02,3.86-.02,4.57.01c.78.04,1.55.13,2.32.28,1.14.22,2.26.53,3.35.93,1.3.48,2.55,1.06,3.76,1.73,1.46.81,2.85,1.72,4.16,2.76.17.13.34.27.49.42.07.06.12.15.16.24.07.15.04.29-.08.41-.28.27-.61.41-.99.49-.39.08-.77.04-1.15-.01-1.23-.17-2.41-.5-3.61-.81-1.1-.28-2.19-.58-3.29-.86-.54-.14-1.09-.26-1.63-.37-.29-.06-.59-.12-.9-.06-.57.11-.9.65-.68,1.18.16.39.39.76.61,1.13.67,1.1,1.38,2.17,2.02,3.28.49.83.89,1.72,1.14,2.66.13.5.16,1,.15,1.51-.04,1.3-.3,2.56-.6,3.82-.1.44-.2.88-.29,1.32-.02.09-.02.18,0,.26.02.17.15.3.32.28.33-.04.66-.1.99-.17,1.54-.34,3.07-.71,4.61-1.04.6-.13,1.21-.23,1.82-.33.28-.04.57-.08.86-.02.37.08.6.3.65.69Z"/><path class="cls-1" d="m68.14,11.25c0,.36-.01.72-.02,1.08,0,.31,0,.62,0,.89-.02-.61-.03-1.26-.05-1.91-.01-.28,0-.57-.06-.84-.19-.92-.7-1.58-1.62-1.87-.46-.15-.92-.16-1.4-.13-1.13.09-1.98.81-2.23,1.92-.12.54-.11,1.1-.13,1.65-.02.58-.02,1.16,0,1.74.02.51.03,1.02.12,1.52.15.81.57,1.47,1.36,1.79.87.35,1.75.34,2.6-.07.73-.35,1.14-.96,1.3-1.74.04-.18,0-.23-.18-.26-.37-.07-.74-.14-1.1-.21-.36-.07-.35-.08-.48.26-.11.3-.31.5-.63.57-.54.12-1.01-.14-1.09-.64-.07-.42-.06-.85-.07-1.28,0-.13.07-.18.2-.18,1.04,0,2.07,0,3.11,0,.17,0,.31-.01.39-.19v-2.18s-.01.06-.01.09Zm-2.01.79c-.25,0-.5,0-.75,0s-.5,0-.75,0c-.1,0-.15-.05-.17-.14,0,0,0-.01,0-.02-.01-.43-.02-.86.12-1.27.13-.37.47-.57.87-.54.44.04.74.29.8.72.05.36.04.74.05,1.11,0,.09-.06.14-.16.14Z"/><path class="cls-1" d="m37.71,9.01c0-.06,0-.12,0-.17-.02-.16-.07-.21-.23-.21h-1.37c-.19,0-.22.03-.22.21v.63s-.06-.07-.08-.11c-.09-.13-.16-.27-.26-.38-.44-.49-1.01-.56-1.61-.48-.71.09-1.15.52-1.42,1.17-.21.53-.26,1.08-.29,1.63-.02.42-.03.85-.03,1.27,0,.64.03,1.27.04,1.91.01.42.07.83.21,1.23.14.39.31.75.66,1,.48.34,1.02.43,1.6.31.51-.1.88-.38,1.1-.85.01-.03.04-.06.06-.09.01,0,.03,0,.04.01,0,.05,0,.11,0,.16,0,.27-.01.54-.02.81,0,.32,0,.63-.03.95-.04.57-.56.95-1.12.82-.34-.07-.54-.3-.7-.58-.08-.15-.12-.17-.29-.12-.41.14-.82.28-1.22.43-.13.05-.17.13-.15.26.01.07.03.13.06.2.2.49.54.87,1,1.13.69.39,1.43.45,2.19.29.4-.08.79-.24,1.11-.49.36-.29.6-.68.76-1.12.19-.5.2-1.03.2-1.55,0-2.76,0-5.51,0-8.27Zm-1.83,4.74c0,.31-.03.62-.07.93-.05.38-.32.65-.64.71-.44.08-.78-.05-.98-.38-.13-.23-.18-.48-.18-.74,0-.51,0-1.01,0-1.52h0c0-.49,0-.98,0-1.47,0-.18.04-.37.09-.54.14-.44.52-.66.98-.59.43.07.71.4.75.86.09.91.03,1.83.04,2.74Z"/><path class="cls-1" d="m18.72,12.42c-.17.19-.18.42-.02.63.26.33.53.65.82.96.45.48.93.94,1.38,1.42.18.19.35.42.41.69.08.34.02.67-.15.97-.17.3-.45.4-.82.35-.92-.12-1.78-.45-2.62-.82-1.07-.46-2.11-1-3.09-1.63-.52-.34-1.04-.68-1.45-1.15-.19-.21-.33-.44-.3-.69,0-.5.2-.87.47-1.22.3-.38.67-.68,1.06-.96.75-.54,1.58-.91,2.43-1.26,1.05-.44,2.14-.78,3.26-1,.34-.07.69-.1,1.03.02.27.1.46.28.57.56.05.13.05.26-.04.37-.21.23-.4.47-.63.67-.51.45-1.05.88-1.56,1.33-.26.24-.5.5-.74.77Z"/><path class="cls-1" d="m30.66,16.91s0,.08,0,.12c0,.08-.05.13-.13.13-.51,0-1.02,0-1.53,0-.05,0-.1-.06-.13-.1-.02-.04-.02-.1-.02-.15,0-1.83,0-3.67,0-5.5,0-.22-.03-.46-.09-.67-.12-.42-.42-.61-.87-.6-.36,0-.67.26-.77.64-.04.17-.07.35-.07.52,0,1.83,0,3.65,0,5.48,0,.08-.01.16-.02.24,0,.1-.07.13-.16.13-.5,0-1,0-1.5,0-.12,0-.15-.03-.15-.18,0-2.01,0-4.01,0-6.02,0-.71,0-1.41,0-2.12,0-.2.02-.21.21-.21h1.38c.15,0,.19.03.21.17.02.16,0,.31,0,.47v.12s.02.01.03.02c.03-.03.07-.06.09-.1.28-.44.66-.73,1.19-.81.65-.09,1.25,0,1.73.5.29.31.44.7.5,1.11.05.36.09.74.09,1.1,0,1.9,0,3.8,0,5.7Z"/><path class="cls-1" d="m51.26,10.63c-.11-.89-.59-1.56-1.43-1.93-.5-.22-1.04-.28-1.59-.22-.97.1-1.69.56-2.1,1.46-.22.47-.27.98-.27,1.49-.01.93-.02,1.85,0,2.78,0,.39.03.78.12,1.16.22.95.81,1.59,1.78,1.85.4.11.81.13,1.22.08.76-.09,1.41-.4,1.85-1.05.3-.44.45-.94.48-1.47.03-.67.03-1.33.06-2.26-.03-.46-.02-1.19-.11-1.9Zm-1.73,3.93c0,.13-.02.27-.05.4-.09.46-.46.73-.93.69-.51-.04-.82-.34-.86-.86-.02-.22-.03-.44-.03-.66,0-.96,0-1.91,0-2.87,0-.22.02-.45.12-.65.14-.29.37-.44.69-.47.38-.03.7.07.9.42.11.2.14.42.14.65,0,.56,0,1.13,0,1.69s0,1.1,0,1.65Z"/><path class="cls-1" d="m61.59,15c-.04.45-.15.87-.4,1.25-.32.48-.77.78-1.31.94-.6.18-1.21.19-1.81,0-.79-.23-1.29-.77-1.56-1.54-.14-.41-.19-.84-.2-1.27,0-.5,0-1,0-1.51h-.04c.02-.61.03-1.22.06-1.83.02-.44.12-.86.31-1.26.39-.81,1.06-1.22,1.94-1.32.51-.06,1.01-.02,1.49.17.89.36,1.38,1.03,1.5,1.98.04.31.03.32-.28.38-.4.08-.8.16-1.19.23-.14.03-.18-.02-.22-.16-.04-.16-.07-.33-.14-.49-.15-.35-.45-.49-.89-.46-.33.03-.58.24-.66.59-.05.24-.07.48-.07.72,0,1.03,0,2.07,0,3.1,0,.19.03.38.08.56.09.33.34.51.71.54.35.03.66-.13.8-.42.08-.17.12-.35.16-.53.04-.14.1-.19.24-.17.44.08.87.17,1.31.26.13.03.18.08.17.21Z"/><path class="cls-1" d="m45.1,8.85c-.23.87-.45,1.75-.68,2.62-.47,1.82-.94,3.64-1.41,5.46-.05.19-.09.23-.29.22-.37,0-.74,0-1.11,0-.2,0-.24-.03-.29-.22-.09-.35-.18-.7-.27-1.05-.39-1.5-.77-3-1.16-4.5-.22-.84-.43-1.69-.65-2.53,0-.03-.01-.05-.02-.08-.02-.14,0-.15.14-.15h1.46c.14,0,.18.03.21.17.1.47.2.93.3,1.4.27,1.23.53,2.46.8,3.69.01.04.01.09.02.13.01,0,.02,0,.03,0,.03-.13.06-.26.09-.4.28-1.31.56-2.63.85-3.94.06-.28.12-.57.18-.85.04-.18.08-.22.27-.22h1.26s.05,0,.07,0c.18.01.22.07.18.24Z"/><path class="cls-1" d="m54.75,9.16c0,2.56,0,5.13,0,7.69,0,.03,0,.06,0,.09,0,.17-.06.22-.23.22-.46,0-.92,0-1.38,0-.18,0-.22-.04-.22-.22v-8.06c0-.21.04-.26.26-.26h1.32c.19,0,.24.05.25.24,0,.1,0,.2,0,.3Z"/><path class="cls-1" d="m54.75,6.73c0,.22-.05.26-.27.26-.44,0-.87,0-1.31,0-.22,0-.25-.04-.25-.26v-.69c0-.24,0-.49,0-.73,0-.12.05-.17.16-.19.07-.01.13-.02.2-.02.39,0,.78,0,1.17,0,.24,0,.3.07.3.3,0,.44,0,.89,0,1.33Z"/></g></svg>