<svg width="555" height="405" viewBox="0 0 555 405" fill="none" xmlns="http://www.w3.org/2000/svg">
<g clip-path="url(#clip0_6_151)">
<path d="M275.25 313C275.25 299.331 286.331 288.25 300 288.25H530C543.669 288.25 554.75 299.331 554.75 313V380C554.75 393.669 543.669 404.75 530 404.75H300C286.331 404.75 275.25 393.669 275.25 380V313Z" fill="url(#paint0_linear_6_151)" stroke="url(#paint1_linear_6_151)" stroke-width="0.5"/>
<rect x="554.75" y="116.75" width="554.5" height="116.5" rx="24.75" transform="rotate(180 554.75 116.75)" fill="url(#paint2_linear_6_151)" stroke="url(#paint3_linear_6_151)" stroke-width="0.5"/>
<path d="M63.3601 40.5455V74H57.2997V40.5455H63.3601ZM78.9725 74.4411C77.0014 74.4411 75.2372 73.9347 73.6799 72.9219C72.1226 71.9091 70.892 70.4389 69.9881 68.5114C69.0842 66.5838 68.6323 64.2424 68.6323 61.4872C68.6323 58.6993 69.0897 56.3471 70.0044 54.4304C70.9301 52.5028 72.177 51.049 73.7452 50.0689C75.3134 49.0779 77.0613 48.5824 78.9888 48.5824C80.459 48.5824 81.6678 48.8329 82.6152 49.3338C83.5627 49.8239 84.3141 50.4174 84.8695 51.1143C85.4249 51.8004 85.8551 52.4484 86.16 53.0582H86.405V40.5455H92.3347V74H86.5194V70.0469H86.16C85.8551 70.6567 85.414 71.3047 84.8368 71.9908C84.2596 72.666 83.4973 73.2431 82.5499 73.7223C81.6025 74.2015 80.41 74.4411 78.9725 74.4411ZM80.6223 69.5895C81.8747 69.5895 82.9419 69.2519 83.824 68.5767C84.7061 67.8906 85.3759 66.9377 85.8333 65.718C86.2907 64.4983 86.5194 63.0772 86.5194 61.4545C86.5194 59.8319 86.2907 58.4216 85.8333 57.2237C85.3868 56.0258 84.7225 55.0947 83.8404 54.4304C82.9692 53.7661 81.8965 53.4339 80.6223 53.4339C79.3046 53.4339 78.2047 53.777 77.3226 54.4631C76.4405 55.1491 75.7762 56.0966 75.3297 57.3054C74.8832 58.5142 74.66 59.8973 74.66 61.4545C74.66 63.0227 74.8832 64.4221 75.3297 65.6527C75.7871 66.8724 76.4569 67.8362 77.339 68.544C78.2319 69.241 79.3264 69.5895 80.6223 69.5895ZM109.744 74.4901C107.228 74.4901 105.056 73.9673 103.226 72.9219C101.408 71.8655 100.008 70.3736 99.0281 68.446C98.0479 66.5076 97.5579 64.2261 97.5579 61.6016C97.5579 59.0206 98.0479 56.7554 99.0281 54.8061C100.019 52.8459 101.402 51.3213 103.177 50.2322C104.952 49.1323 107.038 48.5824 109.434 48.5824C110.98 48.5824 112.439 48.8329 113.811 49.3338C115.194 49.8239 116.414 50.5862 117.471 51.6207C118.538 52.6553 119.376 53.973 119.986 55.5739C120.596 57.1638 120.901 59.0587 120.901 61.2585V63.0717H100.335V59.0859H115.233C115.222 57.9534 114.977 56.946 114.498 56.0639C114.018 55.1709 113.349 54.4685 112.488 53.9567C111.639 53.4448 110.648 53.1889 109.515 53.1889C108.306 53.1889 107.245 53.483 106.33 54.071C105.415 54.6482 104.702 55.4105 104.19 56.358C103.689 57.2945 103.433 58.3236 103.422 59.4453V62.9247C103.422 64.384 103.689 65.6364 104.223 66.6818C104.756 67.7164 105.502 68.5114 106.461 69.0668C107.419 69.6113 108.541 69.8835 109.826 69.8835C110.686 69.8835 111.465 69.7637 112.162 69.5241C112.859 69.2737 113.463 68.9089 113.975 68.4297C114.487 67.9505 114.873 67.357 115.135 66.6491L120.656 67.2699C120.307 68.7292 119.643 70.0033 118.663 71.0923C117.694 72.1705 116.452 73.009 114.939 73.608C113.425 74.196 111.693 74.4901 109.744 74.4901ZM131.817 59.2983V74H125.904V48.9091H131.556V53.1726H131.85C132.427 51.7678 133.347 50.6515 134.61 49.8239C135.884 48.9962 137.458 48.5824 139.331 48.5824C141.063 48.5824 142.571 48.9527 143.856 49.6932C145.152 50.4337 146.154 51.5064 146.862 52.9112C147.58 54.3161 147.934 56.0204 147.923 58.0241V74H142.01V58.9389C142.01 57.2618 141.575 55.9496 140.703 55.0021C139.843 54.0547 138.651 53.581 137.126 53.581C136.091 53.581 135.171 53.8097 134.365 54.267C133.57 54.7135 132.944 55.3615 132.487 56.2109C132.04 57.0604 131.817 58.0895 131.817 59.2983ZM166.464 48.9091V53.483H152.04V48.9091H166.464ZM155.601 42.8977H161.514V66.4531C161.514 67.2481 161.634 67.858 161.874 68.2827C162.124 68.6965 162.451 68.9796 162.854 69.1321C163.257 69.2846 163.703 69.3608 164.193 69.3608C164.564 69.3608 164.901 69.3336 165.206 69.2791C165.522 69.2247 165.762 69.1757 165.925 69.1321L166.921 73.755C166.606 73.8639 166.154 73.9837 165.566 74.1143C164.988 74.245 164.28 74.3213 163.442 74.343C161.961 74.3866 160.627 74.1634 159.44 73.6733C158.253 73.1723 157.311 72.3991 156.614 71.3537C155.928 70.3082 155.59 69.0014 155.601 67.4332V42.8977ZM171.409 74V48.9091H177.323V74H171.409ZM174.382 45.348C173.446 45.348 172.64 45.0376 171.965 44.4169C171.29 43.7853 170.952 43.0284 170.952 42.1463C170.952 41.2533 171.29 40.4964 171.965 39.8757C172.64 39.2441 173.446 38.9283 174.382 38.9283C175.33 38.9283 176.136 39.2441 176.8 39.8757C177.475 40.4964 177.813 41.2533 177.813 42.1463C177.813 43.0284 177.475 43.7853 176.8 44.4169C176.136 45.0376 175.33 45.348 174.382 45.348ZM195.933 48.9091V53.483H181.509V48.9091H195.933ZM185.07 42.8977H190.983V66.4531C190.983 67.2481 191.103 67.858 191.343 68.2827C191.593 68.6965 191.92 68.9796 192.323 69.1321C192.726 69.2846 193.172 69.3608 193.662 69.3608C194.032 69.3608 194.37 69.3336 194.675 69.2791C194.991 69.2247 195.23 69.1757 195.394 69.1321L196.39 73.755C196.074 73.8639 195.622 73.9837 195.034 74.1143C194.457 74.245 193.749 74.3213 192.911 74.343C191.43 74.3866 190.096 74.1634 188.909 73.6733C187.722 73.1723 186.78 72.3991 186.083 71.3537C185.396 70.3082 185.059 69.0014 185.07 67.4332V42.8977ZM204.554 83.4091C203.748 83.4091 203.002 83.3438 202.316 83.2131C201.641 83.0933 201.101 82.9517 200.699 82.7884L202.071 78.1818C202.931 78.4323 203.699 78.5521 204.374 78.5412C205.049 78.5303 205.643 78.3179 206.154 77.9041C206.677 77.5012 207.118 76.826 207.478 75.8786L207.984 74.5227L198.885 48.9091H205.158L210.941 67.858H211.202L217.001 48.9091H223.29L213.244 77.0384C212.776 78.367 212.155 79.505 211.382 80.4524C210.609 81.4107 209.661 82.1404 208.539 82.6413C207.429 83.1532 206.1 83.4091 204.554 83.4091ZM239.054 40.5455H246.47L256.402 64.7869H256.794L266.725 40.5455H274.142V74H268.326V51.0163H268.016L258.77 73.902H254.425L245.179 50.9673H244.869V74H239.054V40.5455ZM287.7 74.5064C286.11 74.5064 284.678 74.2232 283.404 73.657C282.141 73.0798 281.139 72.2304 280.398 71.1087C279.668 69.987 279.304 68.6039 279.304 66.9595C279.304 65.5438 279.565 64.3731 280.088 63.4474C280.61 62.5218 281.324 61.7812 282.228 61.2259C283.132 60.6705 284.15 60.2512 285.282 59.968C286.426 59.674 287.607 59.4616 288.827 59.331C290.297 59.1785 291.49 59.0424 292.404 58.9226C293.319 58.7919 293.984 58.5959 294.397 58.3345C294.822 58.0623 295.034 57.643 295.034 57.0767V56.9787C295.034 55.7481 294.67 54.7952 293.94 54.12C293.21 53.4448 292.159 53.1072 290.787 53.1072C289.339 53.1072 288.19 53.4231 287.341 54.0547C286.502 54.6863 285.936 55.4323 285.642 56.2926L280.12 55.5085C280.556 53.9839 281.275 52.7098 282.277 51.6861C283.279 50.6515 284.504 49.8783 285.952 49.3665C287.4 48.8438 289.001 48.5824 290.755 48.5824C291.963 48.5824 293.167 48.724 294.365 49.0071C295.563 49.2902 296.657 49.7585 297.648 50.4119C298.639 51.0544 299.434 51.9311 300.033 53.0419C300.643 54.1527 300.948 55.5412 300.948 57.2074V74H295.263V70.5533H295.067C294.708 71.2502 294.201 71.9036 293.548 72.5135C292.905 73.1125 292.094 73.5971 291.114 73.9673C290.145 74.3267 289.007 74.5064 287.7 74.5064ZM289.235 70.1612C290.422 70.1612 291.452 69.9271 292.323 69.4588C293.194 68.9796 293.864 68.348 294.332 67.5639C294.811 66.7798 295.051 65.925 295.051 64.9993V62.0426C294.866 62.1951 294.55 62.3366 294.103 62.4673C293.668 62.598 293.178 62.7124 292.633 62.8104C292.089 62.9084 291.55 62.9955 291.016 63.0717C290.482 63.148 290.02 63.2133 289.627 63.2678C288.745 63.3875 287.956 63.5836 287.259 63.8558C286.562 64.1281 286.012 64.5092 285.609 64.9993C285.206 65.4785 285.005 66.0992 285.005 66.8615C285.005 67.9505 285.402 68.7727 286.197 69.3281C286.992 69.8835 288.005 70.1612 289.235 70.1612ZM312.807 59.2983V74H306.894V48.9091H312.546V53.1726H312.84C313.417 51.7678 314.337 50.6515 315.6 49.8239C316.875 48.9962 318.448 48.5824 320.321 48.5824C322.053 48.5824 323.561 48.9527 324.846 49.6932C326.142 50.4337 327.144 51.5064 327.852 52.9112C328.571 54.3161 328.925 56.0204 328.914 58.0241V74H323V58.9389C323 57.2618 322.565 55.9496 321.694 55.0021C320.833 54.0547 319.641 53.581 318.116 53.581C317.082 53.581 316.161 53.8097 315.355 54.267C314.56 54.7135 313.934 55.3615 313.477 56.2109C313.03 57.0604 312.807 58.0895 312.807 59.2983ZM342.145 74.5064C340.555 74.5064 339.123 74.2232 337.849 73.657C336.586 73.0798 335.584 72.2304 334.843 71.1087C334.114 69.987 333.749 68.6039 333.749 66.9595C333.749 65.5438 334.01 64.3731 334.533 63.4474C335.056 62.5218 335.769 61.7812 336.673 61.2259C337.577 60.6705 338.595 60.2512 339.728 59.968C340.871 59.674 342.053 59.4616 343.272 59.331C344.743 59.1785 345.935 59.0424 346.85 58.9226C347.765 58.7919 348.429 58.5959 348.843 58.3345C349.267 58.0623 349.48 57.643 349.48 57.0767V56.9787C349.48 55.7481 349.115 54.7952 348.385 54.12C347.656 53.4448 346.605 53.1072 345.233 53.1072C343.784 53.1072 342.635 53.4231 341.786 54.0547C340.947 54.6863 340.381 55.4323 340.087 56.2926L334.566 55.5085C335.001 53.9839 335.72 52.7098 336.722 51.6861C337.724 50.6515 338.949 49.8783 340.397 49.3665C341.846 48.8438 343.447 48.5824 345.2 48.5824C346.409 48.5824 347.612 48.724 348.81 49.0071C350.008 49.2902 351.102 49.7585 352.093 50.4119C353.084 51.0544 353.879 51.9311 354.478 53.0419C355.088 54.1527 355.393 55.5412 355.393 57.2074V74H349.708V70.5533H349.512C349.153 71.2502 348.647 71.9036 347.993 72.5135C347.351 73.1125 346.539 73.5971 345.559 73.9673C344.59 74.3267 343.452 74.5064 342.145 74.5064ZM343.681 70.1612C344.868 70.1612 345.897 69.9271 346.768 69.4588C347.639 68.9796 348.309 68.348 348.777 67.5639C349.257 66.7798 349.496 65.925 349.496 64.9993V62.0426C349.311 62.1951 348.995 62.3366 348.549 62.4673C348.113 62.598 347.623 62.7124 347.078 62.8104C346.534 62.9084 345.995 62.9955 345.461 63.0717C344.928 63.148 344.465 63.2133 344.073 63.2678C343.191 63.3875 342.401 63.5836 341.704 63.8558C341.007 64.1281 340.457 64.5092 340.054 64.9993C339.651 65.4785 339.45 66.0992 339.45 66.8615C339.45 67.9505 339.847 68.7727 340.642 69.3281C341.437 69.8835 342.45 70.1612 343.681 70.1612ZM372.251 83.9318C370.127 83.9318 368.303 83.6432 366.779 83.0661C365.254 82.4998 364.029 81.7375 363.103 80.7791C362.178 79.8208 361.535 78.759 361.176 77.5938L366.501 76.3033C366.741 76.7933 367.089 77.2779 367.547 77.7571C368.004 78.2472 368.619 78.6501 369.392 78.9659C370.176 79.2926 371.162 79.456 372.349 79.456C374.026 79.456 375.415 79.0476 376.515 78.2308C377.614 77.425 378.164 76.0964 378.164 74.245V69.4915H377.87C377.565 70.1013 377.119 70.7275 376.531 71.37C375.954 72.0125 375.186 72.5516 374.228 72.9872C373.28 73.4228 372.088 73.6406 370.65 73.6406C368.723 73.6406 366.975 73.1887 365.407 72.2848C363.849 71.37 362.608 70.0088 361.682 68.201C360.767 66.3823 360.31 64.1063 360.31 61.3729C360.31 58.6177 360.767 56.2926 361.682 54.3977C362.608 52.492 363.855 51.049 365.423 50.0689C366.991 49.0779 368.739 48.5824 370.667 48.5824C372.137 48.5824 373.346 48.8329 374.293 49.3338C375.251 49.8239 376.014 50.4174 376.58 51.1143C377.146 51.8004 377.576 52.4484 377.87 53.0582H378.197V48.9091H384.029V74.4084C384.029 76.5537 383.517 78.3288 382.493 79.7337C381.47 81.1385 380.07 82.1894 378.295 82.8864C376.52 83.5833 374.505 83.9318 372.251 83.9318ZM372.3 69.0014C373.552 69.0014 374.62 68.6965 375.502 68.0866C376.384 67.4768 377.054 66.6001 377.511 65.4567C377.968 64.3132 378.197 62.9411 378.197 61.3402C378.197 59.7611 377.968 58.3781 377.511 57.1911C377.065 56.004 376.4 55.0838 375.518 54.4304C374.647 53.7661 373.574 53.4339 372.3 53.4339C370.982 53.4339 369.882 53.777 369 54.4631C368.118 55.1491 367.454 56.0911 367.007 57.2891C366.561 58.4761 366.338 59.8265 366.338 61.3402C366.338 62.8757 366.561 64.2206 367.007 65.375C367.465 66.5185 368.135 67.4115 369.017 68.054C369.91 68.6856 371.004 69.0014 372.3 69.0014ZM390.089 74V48.9091H395.741V53.1726H396.035C396.558 51.7351 397.424 50.6134 398.632 49.8075C399.841 48.9908 401.284 48.5824 402.961 48.5824C404.66 48.5824 406.092 48.9962 407.257 49.8239C408.434 50.6406 409.261 51.7569 409.74 53.1726H410.002C410.557 51.7786 411.494 50.6679 412.811 49.8402C414.14 49.0017 415.714 48.5824 417.532 48.5824C419.841 48.5824 421.725 49.312 423.184 50.7713C424.644 52.2306 425.373 54.3596 425.373 57.1584V74H419.444V58.0732C419.444 56.5159 419.03 55.3778 418.202 54.6591C417.374 53.9294 416.362 53.5646 415.164 53.5646C413.737 53.5646 412.621 54.0111 411.815 54.9041C411.02 55.7862 410.623 56.9351 410.623 58.3509V74H404.824V57.8281C404.824 56.5322 404.431 55.4976 403.647 54.7244C402.874 53.9512 401.861 53.5646 400.609 53.5646C399.76 53.5646 398.986 53.7824 398.289 54.218C397.592 54.6428 397.037 55.2472 396.623 56.0312C396.209 56.8045 396.002 57.7083 396.002 58.7429V74H390.089ZM442.48 74.4901C439.965 74.4901 437.792 73.9673 435.963 72.9219C434.144 71.8655 432.744 70.3736 431.764 68.446C430.784 66.5076 430.294 64.2261 430.294 61.6016C430.294 59.0206 430.784 56.7554 431.764 54.8061C432.755 52.8459 434.138 51.3213 435.914 50.2322C437.689 49.1323 439.774 48.5824 442.17 48.5824C443.716 48.5824 445.176 48.8329 446.548 49.3338C447.931 49.8239 449.151 50.5862 450.207 51.6207C451.274 52.6553 452.113 53.973 452.722 55.5739C453.332 57.1638 453.637 59.0587 453.637 61.2585V63.0717H433.071V59.0859H447.969C447.958 57.9534 447.713 56.946 447.234 56.0639C446.755 55.1709 446.085 54.4685 445.225 53.9567C444.375 53.4448 443.384 53.1889 442.252 53.1889C441.043 53.1889 439.981 53.483 439.066 54.071C438.151 54.6482 437.438 55.4105 436.926 56.358C436.425 57.2945 436.169 58.3236 436.159 59.4453V62.9247C436.159 64.384 436.425 65.6364 436.959 66.6818C437.493 67.7164 438.239 68.5114 439.197 69.0668C440.155 69.6113 441.277 69.8835 442.562 69.8835C443.422 69.8835 444.201 69.7637 444.898 69.5241C445.595 69.2737 446.199 68.9089 446.711 68.4297C447.223 67.9505 447.61 67.357 447.871 66.6491L453.392 67.2699C453.044 68.7292 452.379 70.0033 451.399 71.0923C450.43 72.1705 449.189 73.009 447.675 73.608C446.161 74.196 444.43 74.4901 442.48 74.4901ZM464.553 59.2983V74H458.64V48.9091H464.292V53.1726H464.586C465.163 51.7678 466.083 50.6515 467.347 49.8239C468.621 48.9962 470.194 48.5824 472.067 48.5824C473.799 48.5824 475.307 48.9527 476.592 49.6932C477.888 50.4337 478.89 51.5064 479.598 52.9112C480.317 54.3161 480.671 56.0204 480.66 58.0241V74H474.746V58.9389C474.746 57.2618 474.311 55.9496 473.44 55.0021C472.579 54.0547 471.387 53.581 469.862 53.581C468.828 53.581 467.907 53.8097 467.102 54.267C466.307 54.7135 465.68 55.3615 465.223 56.2109C464.777 57.0604 464.553 58.0895 464.553 59.2983ZM499.2 48.9091V53.483H484.776V48.9091H499.2ZM488.337 42.8977H494.251V66.4531C494.251 67.2481 494.371 67.858 494.61 68.2827C494.861 68.6965 495.187 68.9796 495.59 69.1321C495.993 69.2846 496.44 69.3608 496.93 69.3608C497.3 69.3608 497.638 69.3336 497.942 69.2791C498.258 69.2247 498.498 69.1757 498.661 69.1321L499.658 73.755C499.342 73.8639 498.89 73.9837 498.302 74.1143C497.725 74.245 497.017 74.3213 496.178 74.343C494.697 74.3866 493.363 74.1634 492.176 73.6733C490.989 73.1723 490.047 72.3991 489.35 71.3537C488.664 70.3082 488.326 69.0014 488.337 67.4332V42.8977Z" fill="white"/>
<path d="M141.25 170C141.25 156.331 152.331 145.25 166 145.25H389C402.669 145.25 413.75 156.331 413.75 170V237C413.75 250.669 402.669 261.75 389 261.75H166C152.331 261.75 141.25 250.669 141.25 237V170Z" fill="url(#paint4_linear_6_151)" stroke="url(#paint5_linear_6_151)" stroke-width="0.5"/>
<path d="M206.481 195.742C206.328 194.316 205.686 193.205 204.553 192.41C203.432 191.615 201.972 191.217 200.175 191.217C198.912 191.217 197.829 191.408 196.925 191.789C196.021 192.17 195.329 192.687 194.85 193.341C194.371 193.994 194.126 194.74 194.115 195.579C194.115 196.276 194.273 196.88 194.589 197.392C194.915 197.904 195.357 198.339 195.912 198.699C196.467 199.047 197.083 199.341 197.758 199.581C198.433 199.821 199.114 200.022 199.8 200.185L202.936 200.969C204.199 201.263 205.414 201.661 206.579 202.162C207.755 202.663 208.806 203.295 209.732 204.057C210.668 204.819 211.409 205.739 211.953 206.817C212.498 207.896 212.77 209.159 212.77 210.607C212.77 212.567 212.269 214.294 211.267 215.786C210.265 217.267 208.817 218.426 206.922 219.265C205.038 220.093 202.756 220.506 200.077 220.506C197.475 220.506 195.215 220.103 193.298 219.298C191.393 218.492 189.901 217.316 188.822 215.769C187.755 214.223 187.178 212.339 187.091 210.117H193.053C193.14 211.282 193.5 212.252 194.131 213.025C194.763 213.798 195.585 214.375 196.598 214.756C197.622 215.138 198.765 215.328 200.028 215.328C201.346 215.328 202.5 215.132 203.491 214.74C204.493 214.337 205.277 213.782 205.844 213.074C206.41 212.355 206.699 211.517 206.71 210.558C206.699 209.687 206.443 208.968 205.942 208.402C205.441 207.825 204.738 207.346 203.835 206.964C202.942 206.572 201.896 206.224 200.698 205.919L196.892 204.939C194.137 204.231 191.959 203.158 190.358 201.721C188.768 200.272 187.973 198.35 187.973 195.955C187.973 193.983 188.507 192.257 189.574 190.776C190.652 189.295 192.117 188.146 193.968 187.33C195.819 186.502 197.916 186.088 200.257 186.088C202.631 186.088 204.711 186.502 206.497 187.33C208.294 188.146 209.704 189.284 210.728 190.744C211.752 192.192 212.28 193.858 212.312 195.742H206.481ZM229.019 220.49C226.504 220.49 224.331 219.967 222.502 218.922C220.683 217.866 219.284 216.374 218.303 214.446C217.323 212.508 216.833 210.226 216.833 207.602C216.833 205.021 217.323 202.755 218.303 200.806C219.294 198.846 220.677 197.321 222.453 196.232C224.228 195.132 226.313 194.582 228.709 194.582C230.255 194.582 231.715 194.833 233.087 195.334C234.47 195.824 235.69 196.586 236.746 197.621C237.813 198.655 238.652 199.973 239.262 201.574C239.871 203.164 240.176 205.059 240.176 207.259V209.072H219.61V205.086H234.508C234.497 203.953 234.252 202.946 233.773 202.064C233.294 201.171 232.624 200.469 231.764 199.957C230.914 199.445 229.923 199.189 228.791 199.189C227.582 199.189 226.52 199.483 225.605 200.071C224.691 200.648 223.977 201.411 223.465 202.358C222.964 203.295 222.709 204.324 222.698 205.445V208.925C222.698 210.384 222.964 211.636 223.498 212.682C224.032 213.716 224.778 214.511 225.736 215.067C226.694 215.611 227.816 215.884 229.101 215.884C229.961 215.884 230.74 215.764 231.437 215.524C232.134 215.274 232.738 214.909 233.25 214.43C233.762 213.951 234.149 213.357 234.41 212.649L239.931 213.27C239.583 214.729 238.919 216.003 237.938 217.092C236.969 218.17 235.728 219.009 234.214 219.608C232.7 220.196 230.969 220.49 229.019 220.49ZM256.124 220.49C253.619 220.49 251.468 219.94 249.671 218.84C247.885 217.74 246.508 216.221 245.538 214.283C244.58 212.333 244.101 210.09 244.101 207.553C244.101 205.004 244.591 202.755 245.571 200.806C246.551 198.846 247.934 197.321 249.72 196.232C251.517 195.132 253.641 194.582 256.091 194.582C258.127 194.582 259.93 194.958 261.498 195.71C263.077 196.45 264.335 197.501 265.271 198.862C266.208 200.213 266.741 201.792 266.872 203.599H261.22C260.991 202.391 260.447 201.383 259.587 200.577C258.737 199.761 257.599 199.352 256.173 199.352C254.964 199.352 253.902 199.679 252.987 200.332C252.072 200.975 251.359 201.901 250.847 203.109C250.346 204.318 250.096 205.767 250.096 207.455C250.096 209.164 250.346 210.634 250.847 211.865C251.348 213.085 252.051 214.027 252.955 214.691C253.869 215.344 254.942 215.671 256.173 215.671C257.044 215.671 257.822 215.508 258.509 215.181C259.205 214.844 259.788 214.359 260.256 213.727C260.725 213.096 261.046 212.328 261.22 211.424H266.872C266.731 213.199 266.208 214.773 265.304 216.145C264.4 217.506 263.17 218.573 261.612 219.347C260.055 220.109 258.225 220.49 256.124 220.49ZM287.72 209.447V194.909H293.633V220H287.9V215.54H287.638C287.072 216.945 286.141 218.094 284.845 218.987C283.56 219.88 281.975 220.327 280.091 220.327C278.447 220.327 276.993 219.962 275.73 219.232C274.478 218.492 273.497 217.419 272.79 216.014C272.082 214.598 271.728 212.889 271.728 210.885V194.909H277.641V209.97C277.641 211.56 278.077 212.823 278.948 213.76C279.819 214.696 280.963 215.165 282.378 215.165C283.25 215.165 284.094 214.952 284.91 214.528C285.727 214.103 286.397 213.471 286.92 212.633C287.453 211.783 287.72 210.722 287.72 209.447ZM299.714 220V194.909H305.448V199.091H305.709C306.167 197.643 306.951 196.526 308.061 195.742C309.183 194.947 310.463 194.55 311.9 194.55C312.227 194.55 312.592 194.566 312.995 194.599C313.408 194.621 313.752 194.659 314.024 194.713V200.153C313.773 200.066 313.376 199.989 312.831 199.924C312.298 199.848 311.78 199.81 311.279 199.81C310.201 199.81 309.232 200.044 308.372 200.512C307.522 200.969 306.853 201.607 306.363 202.423C305.873 203.24 305.627 204.182 305.627 205.249V220H299.714ZM317.952 220V194.909H323.866V220H317.952ZM320.925 191.348C319.989 191.348 319.183 191.038 318.508 190.417C317.833 189.785 317.495 189.028 317.495 188.146C317.495 187.253 317.833 186.496 318.508 185.876C319.183 185.244 319.989 184.928 320.925 184.928C321.873 184.928 322.679 185.244 323.343 185.876C324.018 186.496 324.356 187.253 324.356 188.146C324.356 189.028 324.018 189.785 323.343 190.417C322.679 191.038 321.873 191.348 320.925 191.348ZM342.476 194.909V199.483H328.052V194.909H342.476ZM331.613 188.898H337.526V212.453C337.526 213.248 337.646 213.858 337.885 214.283C338.136 214.696 338.463 214.98 338.866 215.132C339.269 215.285 339.715 215.361 340.205 215.361C340.575 215.361 340.913 215.334 341.218 215.279C341.534 215.225 341.773 215.176 341.937 215.132L342.933 219.755C342.617 219.864 342.165 219.984 341.577 220.114C341 220.245 340.292 220.321 339.454 220.343C337.973 220.387 336.639 220.163 335.452 219.673C334.265 219.172 333.323 218.399 332.626 217.354C331.939 216.308 331.602 215.001 331.613 213.433V188.898ZM351.097 229.409C350.291 229.409 349.545 229.344 348.859 229.213C348.183 229.093 347.644 228.952 347.241 228.788L348.614 224.182C349.474 224.432 350.242 224.552 350.917 224.541C351.592 224.53 352.186 224.318 352.697 223.904C353.22 223.501 353.661 222.826 354.021 221.879L354.527 220.523L345.428 194.909H351.701L357.484 213.858H357.745L363.544 194.909H369.833L359.787 223.038C359.319 224.367 358.698 225.505 357.925 226.452C357.152 227.411 356.204 228.14 355.082 228.641C353.972 229.153 352.643 229.409 351.097 229.409Z" fill="white"/>
<rect x="438.25" y="145.25" width="116.5" height="116.5" rx="24.75" fill="url(#paint6_linear_6_151)" stroke="url(#paint7_linear_6_151)" stroke-width="0.5"/>
<path fill-rule="evenodd" clip-rule="evenodd" d="M511.117 188.339C512.209 187.666 513.627 188.026 514.284 189.144C516.61 193.098 517.616 197.718 517.154 202.307L517.154 204.548C517.151 206.622 517.682 208.66 518.692 210.457C519.328 211.588 518.948 213.033 517.843 213.684C516.739 214.336 515.328 213.947 514.692 212.815C513.278 210.299 512.536 207.447 512.539 204.544C512.539 204.545 512.539 204.544 512.539 204.544V202.182C512.539 202.096 512.543 202.01 512.552 201.924C512.938 198.321 512.158 194.688 510.331 191.584C509.674 190.466 510.025 189.013 511.117 188.339Z" fill="white"/>
<path fill-rule="evenodd" clip-rule="evenodd" d="M495.083 192.769C493.16 192.769 491.316 193.523 489.957 194.865C488.597 196.206 487.833 198.026 487.833 199.923C487.833 201.24 486.751 202.308 485.417 202.308C484.082 202.308 483 201.24 483 199.923C483 196.761 484.273 193.728 486.539 191.492C488.805 189.256 491.879 188 495.083 188C498.288 188 501.361 189.256 503.627 191.492C505.893 193.728 507.167 196.761 507.167 199.923V202.308C507.167 206.951 508.693 211.47 511.517 215.184C512.317 216.238 512.101 217.733 511.033 218.523C509.965 219.313 508.451 219.1 507.65 218.046C504.199 213.506 502.333 207.983 502.333 202.308V199.923C502.333 198.026 501.569 196.206 500.21 194.865C498.85 193.523 497.006 192.769 495.083 192.769Z" fill="white"/>
<path fill-rule="evenodd" clip-rule="evenodd" d="M495.444 197C496.794 197 497.889 198.082 497.889 199.417L497.889 204.253C497.882 210.669 499.862 216.934 503.563 222.205C504.333 223.301 504.058 224.807 502.949 225.568C501.841 226.329 500.317 226.058 499.547 224.961C495.277 218.88 492.992 211.652 493 204.249C493 204.249 493 204.248 493 204.249V199.417C493 198.082 494.094 197 495.444 197Z" fill="white"/>
<path fill-rule="evenodd" clip-rule="evenodd" d="M485.326 207.016C486.769 206.864 488.076 207.796 488.245 209.099C488.853 213.786 490.367 218.341 492.718 222.557C493.372 223.728 492.849 225.156 491.551 225.746C490.253 226.336 488.671 225.864 488.018 224.692C485.39 219.981 483.698 214.89 483.018 209.651C482.849 208.349 483.882 207.169 485.326 207.016Z" fill="white"/>
<path fill-rule="evenodd" clip-rule="evenodd" d="M503.467 185.01C500.958 183.542 498.111 182.77 495.213 182.772C492.315 182.774 489.469 183.55 486.962 185.021C484.455 186.492 482.374 188.607 480.93 191.152C479.487 193.698 478.731 196.584 478.739 199.519L478.739 199.526L478.739 201.912C478.739 201.938 478.738 201.965 478.737 201.991C478.561 207.381 479.244 212.764 480.761 217.934C481.131 219.197 480.421 220.525 479.174 220.9C477.928 221.276 476.616 220.556 476.246 219.293C474.588 213.645 473.84 207.762 474.029 201.872V199.529C474.019 195.756 474.991 192.046 476.847 188.775C478.703 185.502 481.378 182.783 484.601 180.892C487.825 179 491.484 178.003 495.21 178C498.935 177.997 502.596 178.99 505.822 180.877C506.948 181.536 507.334 182.995 506.684 184.136C506.034 185.277 504.593 185.668 503.467 185.01Z" fill="white"/>
<rect x="0.25" y="404.75" width="116.5" height="116.5" rx="24.75" transform="rotate(-90 0.25 404.75)" fill="url(#paint8_linear_6_151)" stroke="url(#paint9_linear_6_151)" stroke-width="0.5"/>
<rect x="137.25" y="288.25" width="116.5" height="116.5" rx="24.75" fill="url(#paint10_linear_6_151)" stroke="url(#paint11_linear_6_151)" stroke-width="0.5"/>
<path fill-rule="evenodd" clip-rule="evenodd" d="M180 328.333C179.293 328.333 178.614 328.614 178.114 329.114C177.614 329.614 177.333 330.293 177.333 331V336.333C177.333 337.806 176.139 339 174.667 339C173.194 339 172 337.806 172 336.333V331C172 328.878 172.843 326.843 174.343 325.343C175.843 323.843 177.878 323 180 323H185.333C186.806 323 188 324.194 188 325.667C188 327.139 186.806 328.333 185.333 328.333H180Z" fill="white"/>
<path fill-rule="evenodd" clip-rule="evenodd" d="M174.667 355C176.139 355 177.333 356.194 177.333 357.667V363C177.333 363.707 177.614 364.386 178.114 364.886C178.614 365.386 179.293 365.667 180 365.667H185.333C186.806 365.667 188 366.861 188 368.333C188 369.806 186.806 371 185.333 371H180C177.878 371 175.843 370.157 174.343 368.657C172.843 367.157 172 365.122 172 363V357.667C172 356.194 173.194 355 174.667 355Z" fill="white"/>
<path fill-rule="evenodd" clip-rule="evenodd" d="M204 325.667C204 324.194 205.194 323 206.667 323H212C214.122 323 216.157 323.843 217.657 325.343C219.157 326.843 220 328.878 220 331V336.333C220 337.806 218.806 339 217.333 339C215.861 339 214.667 337.806 214.667 336.333V331C214.667 330.293 214.386 329.614 213.886 329.114C213.386 328.614 212.707 328.333 212 328.333H206.667C205.194 328.333 204 327.139 204 325.667Z" fill="white"/>
<path fill-rule="evenodd" clip-rule="evenodd" d="M217.333 355C218.806 355 220 356.194 220 357.667V363C220 365.122 219.157 367.157 217.657 368.657C216.157 370.157 214.122 371 212 371H206.667C205.194 371 204 369.806 204 368.333C204 366.861 205.194 365.667 206.667 365.667H212C212.707 365.667 213.386 365.386 213.886 364.886C214.386 364.386 214.667 363.707 214.667 363V357.667C214.667 356.194 215.861 355 217.333 355Z" fill="white"/>
<path fill-rule="evenodd" clip-rule="evenodd" d="M185.333 341.667C185.333 340.194 186.527 339 188 339H188.027C189.499 339 190.693 340.194 190.693 341.667C190.693 343.139 189.499 344.333 188.027 344.333H188C186.527 344.333 185.333 343.139 185.333 341.667Z" fill="white"/>
<path fill-rule="evenodd" clip-rule="evenodd" d="M201.333 341.667C201.333 340.194 202.527 339 204 339H204.027C205.499 339 206.693 340.194 206.693 341.667C206.693 343.139 205.499 344.333 204.027 344.333H204C202.527 344.333 201.333 343.139 201.333 341.667Z" fill="white"/>
<path fill-rule="evenodd" clip-rule="evenodd" d="M196 354.999C195.113 354.999 194.235 355.176 193.417 355.519C192.6 355.863 191.859 356.366 191.238 357C190.207 358.052 188.519 358.069 187.467 357.038C186.415 356.007 186.398 354.319 187.429 353.267C188.546 352.127 189.88 351.221 191.351 350.602C192.823 349.984 194.404 349.665 196 349.665C197.596 349.665 199.177 349.984 200.649 350.602C202.121 351.221 203.454 352.127 204.571 353.267C205.602 354.319 205.585 356.007 204.533 357.038C203.481 358.069 201.793 358.052 200.762 357C200.141 356.366 199.4 355.863 198.583 355.519C197.765 355.176 196.887 354.999 196 354.999Z" fill="white"/>
<rect x="0.25" y="145.25" width="116.5" height="116.5" rx="24.75" fill="url(#paint12_linear_6_151)" stroke="url(#paint13_linear_6_151)" stroke-width="0.5"/>
<path d="M398.193 347.273C398.193 350.877 397.518 353.965 396.168 356.535C394.828 359.094 392.999 361.054 390.679 362.415C388.37 363.777 385.751 364.457 382.822 364.457C379.892 364.457 377.268 363.777 374.948 362.415C372.639 361.043 370.81 359.078 369.46 356.518C368.12 353.948 367.45 350.866 367.45 347.273C367.45 343.668 368.12 340.586 369.46 338.027C370.81 335.457 372.639 333.491 374.948 332.13C377.268 330.769 379.892 330.088 382.822 330.088C385.751 330.088 388.37 330.769 390.679 332.13C392.999 333.491 394.828 335.457 396.168 338.027C397.518 340.586 398.193 343.668 398.193 347.273ZM392.1 347.273C392.1 344.735 391.703 342.595 390.908 340.853C390.124 339.1 389.035 337.777 387.641 336.884C386.247 335.98 384.64 335.528 382.822 335.528C381.003 335.528 379.397 335.98 378.003 336.884C376.609 337.777 375.514 339.1 374.719 340.853C373.935 342.595 373.543 344.735 373.543 347.273C373.543 349.81 373.935 351.955 374.719 353.709C375.514 355.451 376.609 356.774 378.003 357.678C379.397 358.571 381.003 359.018 382.822 359.018C384.64 359.018 386.247 358.571 387.641 357.678C389.035 356.774 390.124 355.451 390.908 353.709C391.703 351.955 392.1 349.81 392.1 347.273ZM432.558 341.833H426.449C426.275 340.831 425.954 339.944 425.485 339.17C425.017 338.386 424.434 337.722 423.737 337.178C423.04 336.633 422.245 336.225 421.352 335.952C420.47 335.669 419.517 335.528 418.494 335.528C416.675 335.528 415.063 335.985 413.659 336.9C412.254 337.804 411.154 339.132 410.359 340.886C409.564 342.628 409.166 344.757 409.166 347.273C409.166 349.832 409.564 351.988 410.359 353.741C411.165 355.484 412.265 356.802 413.659 357.695C415.063 358.577 416.67 359.018 418.477 359.018C419.479 359.018 420.416 358.887 421.287 358.626C422.169 358.353 422.959 357.956 423.656 357.433C424.364 356.911 424.957 356.268 425.436 355.506C425.926 354.743 426.264 353.872 426.449 352.892L432.558 352.925C432.33 354.515 431.834 356.007 431.072 357.401C430.32 358.795 429.335 360.025 428.115 361.092C426.896 362.149 425.469 362.976 423.835 363.575C422.202 364.163 420.389 364.457 418.396 364.457C415.455 364.457 412.831 363.777 410.522 362.415C408.213 361.054 406.395 359.089 405.066 356.518C403.738 353.948 403.073 350.866 403.073 347.273C403.073 343.668 403.743 340.586 405.083 338.027C406.422 335.457 408.246 333.491 410.555 332.13C412.864 330.769 415.477 330.088 418.396 330.088C420.258 330.088 421.99 330.349 423.59 330.872C425.191 331.395 426.618 332.163 427.87 333.175C429.123 334.177 430.152 335.408 430.958 336.867C431.774 338.316 432.308 339.971 432.558 341.833ZM438.108 364V330.545H450.654C453.224 330.545 455.38 330.992 457.123 331.885C458.876 332.778 460.199 334.03 461.092 335.642C461.996 337.243 462.448 339.111 462.448 341.245C462.448 343.39 461.99 345.253 461.076 346.832C460.172 348.4 458.838 349.614 457.074 350.474C455.309 351.324 453.142 351.749 450.572 351.749H441.637V346.717H449.755C451.258 346.717 452.489 346.51 453.447 346.097C454.405 345.672 455.113 345.057 455.571 344.251C456.039 343.434 456.273 342.432 456.273 341.245C456.273 340.058 456.039 339.045 455.571 338.207C455.102 337.357 454.389 336.715 453.431 336.279C452.472 335.833 451.236 335.609 449.723 335.609H444.169V364H438.108ZM455.391 348.841L463.673 364H456.91L448.775 348.841H455.391Z" fill="white"/>
<path fill-rule="evenodd" clip-rule="evenodd" d="M45.25 203.5C44.5207 203.5 43.8212 203.79 43.3055 204.305C42.7897 204.821 42.5 205.521 42.5 206.25V222.75C42.5 223.479 42.7897 224.179 43.3055 224.695C43.8212 225.21 44.5207 225.5 45.25 225.5H72.75C73.4793 225.5 74.1788 225.21 74.6945 224.695C75.2103 224.179 75.5 223.479 75.5 222.75V206.25C75.5 205.521 75.2103 204.821 74.6945 204.305C74.1788 203.79 73.4793 203.5 72.75 203.5H45.25ZM39.4164 200.416C40.9635 198.869 43.062 198 45.25 198H72.75C74.938 198 77.0365 198.869 78.5836 200.416C80.1308 201.964 81 204.062 81 206.25V222.75C81 224.938 80.1308 227.036 78.5836 228.584C77.0365 230.131 74.938 231 72.75 231H45.25C43.062 231 40.9635 230.131 39.4164 228.584C37.8692 227.036 37 224.938 37 222.75V206.25C37 204.062 37.8692 201.964 39.4164 200.416Z" fill="white"/>
<path fill-rule="evenodd" clip-rule="evenodd" d="M55.6109 210.611C56.6424 209.579 58.0413 209 59.5 209C60.9587 209 62.3576 209.579 63.3891 210.611C64.4205 211.642 65 213.041 65 214.5C65 215.959 64.4205 217.358 63.3891 218.389C62.3576 219.421 60.9587 220 59.5 220C58.0413 220 56.6424 219.421 55.6109 218.389C54.5795 217.358 54 215.959 54 214.5C54 213.041 54.5795 211.642 55.6109 210.611Z" fill="white"/>
<path fill-rule="evenodd" clip-rule="evenodd" d="M59 181.4C56.7722 181.4 54.6356 182.253 53.0603 183.772C51.485 185.291 50.6 187.352 50.6 189.5V200.3C50.6 201.791 49.3464 203 47.8 203C46.2536 203 45 201.791 45 200.3V189.5C45 185.92 46.475 182.486 49.1005 179.954C51.726 177.422 55.287 176 59 176C62.713 176 66.274 177.422 68.8995 179.954C71.525 182.486 73 185.92 73 189.5V200.3C73 201.791 71.7464 203 70.2 203C68.6536 203 67.4 201.791 67.4 200.3V189.5C67.4 187.352 66.515 185.291 64.9397 183.772C63.3644 182.253 61.2278 181.4 59 181.4Z" fill="white"/>
<path fill-rule="evenodd" clip-rule="evenodd" d="M42.2 327.8C41.5635 327.8 40.953 328.053 40.5029 328.503C40.0529 328.953 39.8 329.563 39.8 330.2V363.8C39.8 364.437 40.0529 365.047 40.5029 365.497C40.953 365.947 41.5635 366.2 42.2 366.2H75.8C76.4365 366.2 77.047 365.947 77.4971 365.497C77.9471 365.047 78.2 364.437 78.2 363.8V330.2C78.2 329.563 77.9471 328.953 77.4971 328.503C77.047 328.053 76.4365 327.8 75.8 327.8H42.2ZM37.1088 325.109C38.4591 323.759 40.2904 323 42.2 323H75.8C77.7096 323 79.5409 323.759 80.8912 325.109C82.2414 326.459 83 328.29 83 330.2V363.8C83 365.71 82.2414 367.541 80.8912 368.891C79.5409 370.241 77.7096 371 75.8 371H42.2C40.2904 371 38.4591 370.241 37.1088 368.891C35.7586 367.541 35 365.71 35 363.8V330.2C35 328.29 35.7586 326.459 37.1088 325.109Z" fill="white"/>
<path fill-rule="evenodd" clip-rule="evenodd" d="M59 336C60.1046 336 61 337.094 61 338.444V355.556C61 356.906 60.1046 358 59 358C57.8954 358 57 356.906 57 355.556V338.444C57 337.094 57.8954 336 59 336Z" fill="white"/>
<path fill-rule="evenodd" clip-rule="evenodd" d="M49.4201 341.039C50.186 339.967 51.7381 339.677 52.8869 340.392L67.8865 349.725C69.0353 350.44 69.3457 351.889 68.5799 352.961C67.814 354.033 66.2619 354.323 65.1131 353.608L50.1135 344.275C48.9647 343.56 48.6543 342.111 49.4201 341.039Z" fill="white"/>
<path fill-rule="evenodd" clip-rule="evenodd" d="M68.5799 341.039C69.3457 342.111 69.0353 343.56 67.8865 344.275L52.8869 353.608C51.7381 354.323 50.186 354.033 49.4201 352.961C48.6543 351.889 48.9647 350.44 50.1135 349.725L65.1131 340.392C66.2619 339.677 67.814 339.967 68.5799 341.039Z" fill="white"/>
</g>
<defs>
<linearGradient id="paint0_linear_6_151" x1="249.765" y1="50" x2="419.586" y2="359.86" gradientUnits="userSpaceOnUse">
<stop stop-color="white" stop-opacity="0.5"/>
<stop offset="1" stop-color="white" stop-opacity="0"/>
</linearGradient>
<linearGradient id="paint1_linear_6_151" x1="372.136" y1="455" x2="560.617" y2="266.18" gradientUnits="userSpaceOnUse">
<stop stop-color="white"/>
<stop offset="1" stop-color="white" stop-opacity="0"/>
</linearGradient>
<linearGradient id="paint2_linear_6_151" x1="1404.63" y1="456" x2="1261.64" y2="40.1044" gradientUnits="userSpaceOnUse">
<stop stop-color="white" stop-opacity="0.5"/>
<stop offset="1" stop-color="white" stop-opacity="0"/>
</linearGradient>
<linearGradient id="paint3_linear_6_151" x1="1216.89" y1="289.5" x2="869.17" y2="-141.807" gradientUnits="userSpaceOnUse">
<stop stop-color="white"/>
<stop offset="1" stop-color="white" stop-opacity="0"/>
</linearGradient>
<linearGradient id="paint4_linear_6_151" x1="363" y1="407.5" x2="281.888" y2="189.056" gradientUnits="userSpaceOnUse">
<stop stop-color="white" stop-opacity="0.5"/>
<stop offset="1" stop-color="white" stop-opacity="0"/>
</linearGradient>
<linearGradient id="paint5_linear_6_151" x1="461" y1="42" x2="335.736" y2="327.286" gradientUnits="userSpaceOnUse">
<stop stop-color="white"/>
<stop offset="1" stop-color="white" stop-opacity="0"/>
</linearGradient>
<linearGradient id="paint6_linear_6_151" x1="275.5" y1="363.5" x2="364.273" y2="123.458" gradientUnits="userSpaceOnUse">
<stop stop-color="white" stop-opacity="0.5"/>
<stop offset="1" stop-color="white" stop-opacity="0"/>
</linearGradient>
<linearGradient id="paint7_linear_6_151" x1="674.5" y1="108" x2="620.215" y2="310.78" gradientUnits="userSpaceOnUse">
<stop stop-color="white"/>
<stop offset="1" stop-color="white" stop-opacity="0"/>
</linearGradient>
<linearGradient id="paint8_linear_6_151" x1="135.5" y1="747.5" x2="-65.8705" y2="587.175" gradientUnits="userSpaceOnUse">
<stop stop-color="white" stop-opacity="0.5"/>
<stop offset="1" stop-color="white" stop-opacity="0"/>
</linearGradient>
<linearGradient id="paint9_linear_6_151" x1="197" y1="664.5" x2="-38.2384" y2="616.382" gradientUnits="userSpaceOnUse">
<stop stop-color="white"/>
<stop offset="1" stop-color="white" stop-opacity="0"/>
</linearGradient>
<linearGradient id="paint10_linear_6_151" x1="272.5" y1="630.5" x2="71.1295" y2="470.175" gradientUnits="userSpaceOnUse">
<stop stop-color="white" stop-opacity="0.5"/>
<stop offset="1" stop-color="white" stop-opacity="0"/>
</linearGradient>
<linearGradient id="paint11_linear_6_151" x1="334" y1="547.5" x2="98.7616" y2="499.382" gradientUnits="userSpaceOnUse">
<stop stop-color="white"/>
<stop offset="1" stop-color="white" stop-opacity="0"/>
</linearGradient>
<linearGradient id="paint12_linear_6_151" x1="-4.16293" y1="-32.5" x2="172.196" y2="121.791" gradientUnits="userSpaceOnUse">
<stop stop-color="white" stop-opacity="0.5"/>
<stop offset="1" stop-color="white" stop-opacity="0"/>
</linearGradient>
<linearGradient id="paint13_linear_6_151" x1="-15.9944" y1="37.5" x2="185.912" y2="148.57" gradientUnits="userSpaceOnUse">
<stop stop-color="white"/>
<stop offset="1" stop-color="white" stop-opacity="0"/>
</linearGradient>
<clipPath id="clip0_6_151">
<rect width="555" height="405" fill="white"/>
</clipPath>
</defs>
</svg>