<svg width="555" height="405" viewBox="0 0 555 405" fill="none" xmlns="http://www.w3.org/2000/svg">
<g clip-path="url(#clip0_6_2)">
<path d="M282.25 163C282.25 149.331 293.331 138.25 307 138.25H530C543.669 138.25 554.75 149.331 554.75 163V230C554.75 243.669 543.669 254.75 530 254.75H307C293.331 254.75 282.25 243.669 282.25 230V163Z" fill="url(#paint0_linear_6_2)" stroke="url(#paint1_linear_6_2)" stroke-width="0.5"/>
<path d="M0.25 313C0.25 299.331 11.331 288.25 25 288.25H380C393.669 288.25 404.75 299.331 404.75 313V380C404.75 393.669 393.669 404.75 380 404.75H25C11.331 404.75 0.25 393.669 0.25 380V313Z" fill="url(#paint2_linear_6_2)" stroke="url(#paint3_linear_6_2)" stroke-width="0.5"/>
<rect x="0.25" y="0.25" width="404.5" height="116.5" rx="24.75" fill="url(#paint4_linear_6_2)" stroke="url(#paint5_linear_6_2)" stroke-width="0.5"/>
<path d="M463 0.25H530C543.669 0.25 554.75 11.331 554.75 25V92C554.75 105.669 543.669 116.75 530 116.75H463C449.331 116.75 438.25 105.669 438.25 92V25C438.25 11.331 449.331 0.25 463 0.25Z" fill="url(#paint6_linear_6_2)" stroke="url(#paint7_linear_6_2)" stroke-width="0.5"/>
<path d="M76.1932 58.2727C76.1932 61.8774 75.518 64.9647 74.1676 67.5348C72.8281 70.094 70.9986 72.0542 68.679 73.4155C66.3703 74.7767 63.7512 75.4574 60.8217 75.4574C57.8923 75.4574 55.2678 74.7767 52.9482 73.4155C50.6394 72.0433 48.8099 70.0777 47.4595 67.5185C46.12 64.9484 45.4503 61.8665 45.4503 58.2727C45.4503 54.6681 46.12 51.5862 47.4595 49.027C48.8099 46.4569 50.6394 44.4912 52.9482 43.13C55.2678 41.7687 57.8923 41.0881 60.8217 41.0881C63.7512 41.0881 66.3703 41.7687 68.679 43.13C70.9986 44.4912 72.8281 46.4569 74.1676 49.027C75.518 51.5862 76.1932 54.6681 76.1932 58.2727ZM70.1001 58.2727C70.1001 55.7353 69.7027 53.5954 68.9077 51.853C68.1236 50.0997 67.0346 48.7765 65.6406 47.8835C64.2467 46.9796 62.6404 46.5277 60.8217 46.5277C59.0031 46.5277 57.3968 46.9796 56.0028 47.8835C54.6089 48.7765 53.5144 50.0997 52.7195 51.853C51.9354 53.5954 51.5433 55.7353 51.5433 58.2727C51.5433 60.8101 51.9354 62.9555 52.7195 64.7088C53.5144 66.4512 54.6089 67.7744 56.0028 68.6783C57.3968 69.5713 59.0031 70.0178 60.8217 70.0178C62.6404 70.0178 64.2467 69.5713 65.6406 68.6783C67.0346 67.7744 68.1236 66.4512 68.9077 64.7088C69.7027 62.9555 70.1001 60.8101 70.1001 58.2727Z" fill="white"/>
<path d="M87.5748 60.2983V75H81.6614V49.9091H87.3134V54.1726H87.6074C88.1846 52.7678 89.1048 51.6515 90.3681 50.8239C91.6422 49.9962 93.2159 49.5824 95.089 49.5824C96.8205 49.5824 98.3288 49.9527 99.6138 50.6932C100.91 51.4337 101.912 52.5064 102.619 53.9112C103.338 55.3161 103.692 57.0204 103.681 59.0241V75H97.7679V59.9389C97.7679 58.2618 97.3323 56.9496 96.4611 56.0021C95.6008 55.0547 94.4083 54.581 92.8837 54.581C91.8491 54.581 90.9289 54.8097 90.1231 55.267C89.3281 55.7135 88.7019 56.3615 88.2445 57.2109C87.798 58.0604 87.5748 59.0895 87.5748 60.2983Z" fill="white"/>
<path d="M115.606 41.5455V75H109.693V41.5455H115.606Z" fill="white"/>
<path d="M121.687 75V49.9091H127.6V75H121.687ZM124.66 46.348C123.723 46.348 122.917 46.0376 122.242 45.4169C121.567 44.7853 121.229 44.0284 121.229 43.1463C121.229 42.2533 121.567 41.4964 122.242 40.8757C122.917 40.2441 123.723 39.9283 124.66 39.9283C125.607 39.9283 126.413 40.2441 127.077 40.8757C127.753 41.4964 128.09 42.2533 128.09 43.1463C128.09 44.0284 127.753 44.7853 127.077 45.4169C126.413 46.0376 125.607 46.348 124.66 46.348Z" fill="white"/>
<path d="M139.594 60.2983V75H133.681V49.9091H139.333V54.1726H139.627C140.204 52.7678 141.124 51.6515 142.388 50.8239C143.662 49.9962 145.235 49.5824 147.108 49.5824C148.84 49.5824 150.348 49.9527 151.633 50.6932C152.929 51.4337 153.931 52.5064 154.639 53.9112C155.358 55.3161 155.712 57.0204 155.701 59.0241V75H149.787V59.9389C149.787 58.2618 149.352 56.9496 148.481 56.0021C147.62 55.0547 146.428 54.581 144.903 54.581C143.869 54.581 142.948 54.8097 142.143 55.267C141.348 55.7135 140.721 56.3615 140.264 57.2109C139.818 58.0604 139.594 59.0895 139.594 60.2983Z" fill="white"/>
<path d="M172.82 75.4901C170.305 75.4901 168.132 74.9673 166.302 73.9219C164.484 72.8655 163.084 71.3736 162.104 69.446C161.124 67.5076 160.634 65.2261 160.634 62.6016C160.634 60.0206 161.124 57.7554 162.104 55.8061C163.095 53.8459 164.478 52.3213 166.253 51.2322C168.028 50.1323 170.114 49.5824 172.51 49.5824C174.056 49.5824 175.515 49.8329 176.888 50.3338C178.271 50.8239 179.49 51.5862 180.547 52.6207C181.614 53.6553 182.452 54.973 183.062 56.5739C183.672 58.1638 183.977 60.0587 183.977 62.2585V64.0717H163.411V60.0859H178.309C178.298 58.9534 178.053 57.946 177.574 57.0639C177.095 56.1709 176.425 55.4685 175.564 54.9567C174.715 54.4448 173.724 54.1889 172.591 54.1889C171.383 54.1889 170.321 54.483 169.406 55.071C168.491 55.6482 167.778 56.4105 167.266 57.358C166.765 58.2945 166.509 59.3236 166.498 60.4453V63.9247C166.498 65.384 166.765 66.6364 167.299 67.6818C167.832 68.7164 168.578 69.5114 169.537 70.0668C170.495 70.6113 171.617 70.8835 172.902 70.8835C173.762 70.8835 174.541 70.7637 175.238 70.5241C175.935 70.2737 176.539 69.9089 177.051 69.4297C177.563 68.9505 177.949 68.357 178.211 67.6491L183.732 68.2699C183.384 69.7292 182.719 71.0033 181.739 72.0923C180.77 73.1705 179.528 74.009 178.015 74.608C176.501 75.196 174.769 75.4901 172.82 75.4901Z" fill="white"/>
<path d="M200.651 75V41.5455H213.458C215.876 41.5455 217.885 41.9266 219.486 42.6889C221.098 43.4403 222.301 44.4695 223.096 45.7763C223.902 47.0831 224.305 48.5642 224.305 50.2195C224.305 51.5807 224.043 52.746 223.521 53.7152C222.998 54.6735 222.295 55.4522 221.413 56.0511C220.531 56.6501 219.546 57.0803 218.457 57.3416V57.6683C219.644 57.7337 220.782 58.0985 221.871 58.7628C222.971 59.4162 223.869 60.3419 224.566 61.5398C225.263 62.7377 225.612 64.1861 225.612 65.8849C225.612 67.6165 225.192 69.1738 224.354 70.5568C223.515 71.929 222.252 73.0126 220.564 73.8075C218.876 74.6025 216.752 75 214.193 75H200.651ZM206.712 69.9361H213.229C215.429 69.9361 217.014 69.5168 217.983 68.6783C218.963 67.8288 219.453 66.7398 219.453 65.4112C219.453 64.4202 219.208 63.5272 218.718 62.7322C218.228 61.9264 217.531 61.2947 216.627 60.8374C215.723 60.3691 214.645 60.1349 213.393 60.1349H206.712V69.9361ZM206.712 55.7734H212.707C213.752 55.7734 214.694 55.5829 215.533 55.2017C216.371 54.8097 217.03 54.2597 217.509 53.5518C217.999 52.8331 218.244 51.9837 218.244 51.0036C218.244 49.7076 217.787 48.6404 216.872 47.8018C215.968 46.9633 214.623 46.544 212.837 46.544H206.712V55.7734Z" fill="white"/>
<path d="M237.843 75.5064C236.253 75.5064 234.82 75.2232 233.546 74.657C232.283 74.0798 231.281 73.2304 230.541 72.1087C229.811 70.987 229.446 69.6039 229.446 67.9595C229.446 66.5438 229.708 65.3731 230.23 64.4474C230.753 63.5218 231.466 62.7813 232.37 62.2259C233.274 61.6705 234.292 61.2512 235.425 60.968C236.568 60.674 237.75 60.4616 238.97 60.331C240.44 60.1785 241.632 60.0424 242.547 59.9226C243.462 59.7919 244.126 59.5959 244.54 59.3345C244.965 59.0623 245.177 58.643 245.177 58.0767V57.9787C245.177 56.7481 244.812 55.7952 244.083 55.12C243.353 54.4448 242.302 54.1072 240.93 54.1072C239.481 54.1072 238.333 54.4231 237.483 55.0547C236.645 55.6863 236.078 56.4323 235.784 57.2926L230.263 56.5085C230.699 54.9839 231.417 53.7098 232.419 52.6861C233.421 51.6515 234.646 50.8783 236.095 50.3665C237.543 49.8438 239.144 49.5824 240.897 49.5824C242.106 49.5824 243.309 49.724 244.507 50.0071C245.705 50.2902 246.8 50.7585 247.791 51.4119C248.782 52.0545 249.577 52.9311 250.176 54.0419C250.785 55.1527 251.09 56.5412 251.09 58.2074V75H245.406V71.5533H245.21C244.85 72.2502 244.344 72.9036 243.691 73.5135C243.048 74.1125 242.237 74.5971 241.257 74.9673C240.287 75.3267 239.149 75.5064 237.843 75.5064ZM239.378 71.1612C240.565 71.1612 241.594 70.9271 242.465 70.4588C243.337 69.9796 244.006 69.348 244.475 68.5639C244.954 67.7798 245.193 66.925 245.193 65.9993V63.0426C245.008 63.1951 244.692 63.3366 244.246 63.4673C243.81 63.598 243.32 63.7124 242.776 63.8104C242.231 63.9084 241.692 63.9955 241.159 64.0717C240.625 64.148 240.162 64.2133 239.77 64.2678C238.888 64.3875 238.098 64.5836 237.401 64.8558C236.704 65.1281 236.155 65.5092 235.752 65.9993C235.349 66.4785 235.147 67.0992 235.147 67.8615C235.147 68.9505 235.545 69.7727 236.34 70.3281C237.135 70.8835 238.147 71.1612 239.378 71.1612Z" fill="white"/>
<path d="M262.95 60.2983V75H257.036V49.9091H262.688V54.1726H262.982C263.56 52.7678 264.48 51.6515 265.743 50.8239C267.017 49.9962 268.591 49.5824 270.464 49.5824C272.195 49.5824 273.704 49.9527 274.989 50.6932C276.285 51.4337 277.287 52.5064 277.994 53.9112C278.713 55.3161 279.067 57.0204 279.056 59.0241V75H273.143V59.9389C273.143 58.2618 272.707 56.9496 271.836 56.0021C270.976 55.0547 269.783 54.581 268.259 54.581C267.224 54.581 266.304 54.8097 265.498 55.267C264.703 55.7135 264.077 56.3615 263.619 57.2109C263.173 58.0604 262.95 59.0895 262.95 60.2983Z" fill="white"/>
<path d="M290.458 67.1264L290.442 59.9879H291.389L300.406 49.9091H307.316L296.225 62.2585H294.999L290.458 67.1264ZM285.068 75V41.5455H290.981V75H285.068ZM300.815 75L292.647 63.5817L296.633 59.4162L307.888 75H300.815Z" fill="white"/>
<path d="M311.257 75V49.9091H317.17V75H311.257ZM314.23 46.348C313.294 46.348 312.488 46.0376 311.812 45.4169C311.137 44.7853 310.8 44.0284 310.8 43.1463C310.8 42.2533 311.137 41.4964 311.812 40.8757C312.488 40.2441 313.294 39.9283 314.23 39.9283C315.178 39.9283 315.983 40.2441 316.648 40.8757C317.323 41.4964 317.661 42.2533 317.661 43.1463C317.661 44.0284 317.323 44.7853 316.648 45.4169C315.983 46.0376 315.178 46.348 314.23 46.348Z" fill="white"/>
<path d="M329.165 60.2983V75H323.251V49.9091H328.903V54.1726H329.197C329.774 52.7678 330.695 51.6515 331.958 50.8239C333.232 49.9962 334.806 49.5824 336.679 49.5824C338.41 49.5824 339.919 49.9527 341.204 50.6932C342.5 51.4337 343.501 52.5064 344.209 53.9112C344.928 55.3161 345.282 57.0204 345.271 59.0241V75H339.358V59.9389C339.358 58.2618 338.922 56.9496 338.051 56.0021C337.191 55.0547 335.998 54.581 334.474 54.581C333.439 54.581 332.519 54.8097 331.713 55.267C330.918 55.7135 330.292 56.3615 329.834 57.2109C329.388 58.0604 329.165 59.0895 329.165 60.2983Z" fill="white"/>
<path d="M362.194 84.9318C360.071 84.9318 358.247 84.6432 356.722 84.0661C355.198 83.4998 353.972 82.7375 353.047 81.7791C352.121 80.8208 351.479 79.759 351.119 78.5938L356.444 77.3033C356.684 77.7933 357.032 78.2779 357.49 78.7571C357.947 79.2472 358.563 79.6501 359.336 79.9659C360.12 80.2926 361.105 80.456 362.292 80.456C363.97 80.456 365.358 80.0476 366.458 79.2308C367.558 78.425 368.108 77.0964 368.108 75.245V70.4915H367.814C367.509 71.1013 367.062 71.7275 366.474 72.37C365.897 73.0126 365.129 73.5516 364.171 73.9872C363.224 74.4228 362.031 74.6406 360.594 74.6406C358.666 74.6406 356.918 74.1887 355.35 73.2848C353.793 72.37 352.551 71.0088 351.626 69.201C350.711 67.3823 350.253 65.1063 350.253 62.3729C350.253 59.6177 350.711 57.2926 351.626 55.3977C352.551 53.492 353.798 52.049 355.366 51.0689C356.934 50.0779 358.682 49.5824 360.61 49.5824C362.08 49.5824 363.289 49.8329 364.236 50.3338C365.195 50.8239 365.957 51.4174 366.523 52.1143C367.09 52.8004 367.52 53.4484 367.814 54.0582H368.14V49.9091H373.972V75.4084C373.972 77.5537 373.46 79.3288 372.437 80.7337C371.413 82.1385 370.014 83.1894 368.238 83.8864C366.463 84.5833 364.449 84.9318 362.194 84.9318ZM362.243 70.0014C363.496 70.0014 364.563 69.6965 365.445 69.0866C366.327 68.4768 366.997 67.6001 367.454 66.4567C367.912 65.3132 368.14 63.9411 368.14 62.3402C368.14 60.7611 367.912 59.3781 367.454 58.1911C367.008 57.004 366.344 56.0838 365.461 55.4304C364.59 54.7661 363.518 54.434 362.243 54.434C360.926 54.434 359.826 54.777 358.944 55.4631C358.062 56.1491 357.397 57.0911 356.951 58.2891C356.504 59.4761 356.281 60.8265 356.281 62.3402C356.281 63.8757 356.504 65.2206 356.951 66.375C357.408 67.5185 358.078 68.4115 358.96 69.054C359.853 69.6856 360.948 70.0014 362.243 70.0014Z" fill="white"/>
<path d="M330.3 213V179.545H352.058V184.626H336.36V193.708H350.931V198.788H336.36V207.92H352.189V213H330.3Z" fill="white"/>
<path d="M373.188 193.839V198.707H358.127V193.839H373.188Z" fill="white"/>
<path d="M385.317 213L375.875 179.545H382.393L388.42 204.13H388.731L395.167 179.545H401.097L407.549 204.146H407.843L413.871 179.545H420.388L410.947 213H404.968L398.271 189.526H398.009L391.295 213H385.317Z" fill="white"/>
<path d="M428.989 213.506C427.399 213.506 425.967 213.223 424.693 212.657C423.43 212.08 422.428 211.23 421.687 210.109C420.958 208.987 420.593 207.604 420.593 205.96C420.593 204.544 420.854 203.373 421.377 202.447C421.9 201.522 422.613 200.781 423.517 200.226C424.421 199.67 425.439 199.251 426.571 198.968C427.715 198.674 428.896 198.462 430.116 198.331C431.586 198.179 432.779 198.042 433.694 197.923C434.608 197.792 435.273 197.596 435.686 197.335C436.111 197.062 436.324 196.643 436.324 196.077V195.979C436.324 194.748 435.959 193.795 435.229 193.12C434.499 192.445 433.449 192.107 432.076 192.107C430.628 192.107 429.479 192.423 428.63 193.055C427.791 193.686 427.225 194.432 426.931 195.293L421.409 194.509C421.845 192.984 422.564 191.71 423.566 190.686C424.568 189.652 425.793 188.878 427.241 188.366C428.69 187.844 430.29 187.582 432.044 187.582C433.252 187.582 434.456 187.724 435.654 188.007C436.852 188.29 437.946 188.759 438.937 189.412C439.928 190.054 440.723 190.931 441.322 192.042C441.932 193.153 442.237 194.541 442.237 196.207V213H436.552V209.553H436.356C435.997 210.25 435.49 210.904 434.837 211.513C434.194 212.112 433.383 212.597 432.403 212.967C431.434 213.327 430.296 213.506 428.989 213.506ZM430.525 209.161C431.712 209.161 432.741 208.927 433.612 208.459C434.483 207.98 435.153 207.348 435.621 206.564C436.1 205.78 436.34 204.925 436.34 203.999V201.043C436.155 201.195 435.839 201.337 435.392 201.467C434.957 201.598 434.467 201.712 433.922 201.81C433.378 201.908 432.839 201.996 432.305 202.072C431.771 202.148 431.309 202.213 430.917 202.268C430.034 202.388 429.245 202.584 428.548 202.856C427.851 203.128 427.301 203.509 426.898 203.999C426.495 204.478 426.294 205.099 426.294 205.862C426.294 206.951 426.691 207.773 427.486 208.328C428.281 208.884 429.294 209.161 430.525 209.161Z" fill="white"/>
<path d="M454.096 179.545V213H448.183V179.545H454.096Z" fill="white"/>
<path d="M466.09 179.545V213H460.177V179.545H466.09Z" fill="white"/>
<path d="M483.279 213.49C480.763 213.49 478.591 212.967 476.761 211.922C474.943 210.866 473.543 209.374 472.563 207.446C471.583 205.508 471.093 203.226 471.093 200.602C471.093 198.021 471.583 195.755 472.563 193.806C473.554 191.846 474.937 190.321 476.712 189.232C478.487 188.132 480.573 187.582 482.969 187.582C484.515 187.582 485.974 187.833 487.347 188.334C488.73 188.824 489.949 189.586 491.006 190.621C492.073 191.655 492.911 192.973 493.521 194.574C494.131 196.164 494.436 198.059 494.436 200.259V202.072H473.87V198.086H488.768C488.757 196.953 488.512 195.946 488.033 195.064C487.553 194.171 486.884 193.469 486.023 192.957C485.174 192.445 484.183 192.189 483.05 192.189C481.842 192.189 480.78 192.483 479.865 193.071C478.95 193.648 478.237 194.411 477.725 195.358C477.224 196.295 476.968 197.324 476.957 198.445V201.925C476.957 203.384 477.224 204.636 477.758 205.682C478.291 206.716 479.037 207.511 479.996 208.067C480.954 208.611 482.076 208.884 483.361 208.884C484.221 208.884 485 208.764 485.697 208.524C486.394 208.274 486.998 207.909 487.51 207.43C488.022 206.951 488.408 206.357 488.67 205.649L494.191 206.27C493.843 207.729 493.178 209.003 492.198 210.092C491.229 211.17 489.987 212.009 488.474 212.608C486.96 213.196 485.228 213.49 483.279 213.49Z" fill="white"/>
<path d="M511.968 187.909V192.483H497.544V187.909H511.968ZM501.105 181.898H507.018V205.453C507.018 206.248 507.138 206.858 507.378 207.283C507.628 207.696 507.955 207.98 508.358 208.132C508.761 208.285 509.207 208.361 509.697 208.361C510.068 208.361 510.405 208.334 510.71 208.279C511.026 208.225 511.265 208.176 511.429 208.132L512.425 212.755C512.109 212.864 511.658 212.984 511.069 213.114C510.492 213.245 509.784 213.321 508.946 213.343C507.465 213.387 506.131 213.163 504.944 212.673C503.757 212.172 502.815 211.399 502.118 210.354C501.432 209.308 501.094 208.001 501.105 206.433V181.898Z" fill="white"/>
<path d="M41.2997 364V330.545H53.8452C56.4152 330.545 58.5715 331.025 60.3139 331.983C62.0672 332.941 63.3904 334.259 64.2834 335.936C65.1873 337.602 65.6392 339.497 65.6392 341.621C65.6392 343.766 65.1873 345.672 64.2834 347.338C63.3795 349.004 62.0455 350.317 60.2812 351.275C58.517 352.222 56.3445 352.696 53.7635 352.696H45.4489V347.714H52.9467C54.4496 347.714 55.6802 347.452 56.6385 346.93C57.5968 346.407 58.3047 345.688 58.7621 344.773C59.2303 343.859 59.4645 342.808 59.4645 341.621C59.4645 340.434 59.2303 339.388 58.7621 338.484C58.3047 337.58 57.5914 336.878 56.6222 336.377C55.6638 335.865 54.4278 335.609 52.9141 335.609H47.3601V364H41.2997Z" fill="white"/>
<path d="M76.5552 349.298V364H70.6419V330.545H76.4245V343.173H76.7186C77.3066 341.757 78.216 340.641 79.4466 339.824C80.688 338.996 82.2671 338.582 84.1838 338.582C85.9262 338.582 87.4454 338.947 88.7413 339.677C90.0372 340.406 91.0391 341.474 91.747 342.879C92.4657 344.283 92.8251 345.999 92.8251 348.024V364H86.9118V348.939C86.9118 347.251 86.4761 345.939 85.6049 345.002C84.7446 344.055 83.5358 343.581 81.9785 343.581C80.9331 343.581 79.9965 343.81 79.1689 344.267C78.3521 344.714 77.7096 345.361 77.2413 346.211C76.7839 347.06 76.5552 348.089 76.5552 349.298Z" fill="white"/>
<path d="M101.63 373.409C100.824 373.409 100.078 373.344 99.3919 373.213C98.7167 373.093 98.1776 372.952 97.7747 372.788L99.1468 368.182C100.007 368.432 100.775 368.552 101.45 368.541C102.125 368.53 102.719 368.318 103.231 367.904C103.753 367.501 104.194 366.826 104.554 365.879L105.06 364.523L95.9615 338.909H102.234L108.017 357.858H108.278L114.077 338.909H120.366L110.32 367.038C109.852 368.367 109.231 369.505 108.458 370.452C107.685 371.411 106.737 372.14 105.616 372.641C104.505 373.153 103.176 373.409 101.63 373.409Z" fill="white"/>
<path d="M144.289 345.541L138.899 346.129C138.746 345.585 138.479 345.073 138.098 344.594C137.728 344.115 137.227 343.728 136.595 343.434C135.964 343.14 135.191 342.993 134.276 342.993C133.045 342.993 132.011 343.26 131.172 343.793C130.344 344.327 129.936 345.018 129.947 345.868C129.936 346.598 130.203 347.191 130.747 347.648C131.303 348.106 132.218 348.482 133.492 348.776L137.771 349.69C140.146 350.202 141.91 351.013 143.064 352.124C144.229 353.235 144.817 354.689 144.828 356.486C144.817 358.065 144.355 359.459 143.44 360.668C142.536 361.866 141.278 362.802 139.666 363.477C138.055 364.152 136.203 364.49 134.112 364.49C131.041 364.49 128.569 363.848 126.696 362.562C124.823 361.267 123.707 359.464 123.347 357.156L129.114 356.6C129.375 357.733 129.931 358.588 130.78 359.165C131.629 359.742 132.735 360.031 134.096 360.031C135.501 360.031 136.628 359.742 137.477 359.165C138.338 358.588 138.768 357.874 138.768 357.025C138.768 356.306 138.49 355.713 137.935 355.244C137.39 354.776 136.541 354.417 135.387 354.166L131.107 353.268C128.7 352.767 126.919 351.923 125.765 350.736C124.611 349.538 124.039 348.024 124.05 346.195C124.039 344.648 124.458 343.309 125.308 342.176C126.168 341.033 127.361 340.151 128.885 339.53C130.421 338.898 132.19 338.582 134.194 338.582C137.134 338.582 139.449 339.209 141.137 340.461C142.835 341.713 143.886 343.407 144.289 345.541Z" fill="white"/>
<path d="M149.704 364V338.909H155.618V364H149.704ZM152.677 335.348C151.741 335.348 150.935 335.038 150.26 334.417C149.585 333.785 149.247 333.028 149.247 332.146C149.247 331.253 149.585 330.496 150.26 329.876C150.935 329.244 151.741 328.928 152.677 328.928C153.625 328.928 154.431 329.244 155.095 329.876C155.77 330.496 156.108 331.253 156.108 332.146C156.108 333.028 155.77 333.785 155.095 334.417C154.431 335.038 153.625 335.348 152.677 335.348Z" fill="white"/>
<path d="M172.643 364.49C170.138 364.49 167.988 363.94 166.191 362.84C164.405 361.74 163.027 360.221 162.058 358.283C161.1 356.333 160.62 354.09 160.62 351.553C160.62 349.004 161.11 346.755 162.091 344.806C163.071 342.846 164.454 341.321 166.24 340.232C168.037 339.132 170.16 338.582 172.61 338.582C174.647 338.582 176.449 338.958 178.017 339.71C179.596 340.45 180.854 341.501 181.791 342.862C182.727 344.213 183.261 345.792 183.392 347.599H177.74C177.511 346.391 176.967 345.383 176.106 344.577C175.257 343.761 174.119 343.352 172.692 343.352C171.483 343.352 170.422 343.679 169.507 344.332C168.592 344.975 167.879 345.901 167.367 347.109C166.866 348.318 166.615 349.767 166.615 351.455C166.615 353.164 166.866 354.634 167.367 355.865C167.868 357.085 168.57 358.027 169.474 358.691C170.389 359.344 171.462 359.671 172.692 359.671C173.563 359.671 174.342 359.508 175.028 359.181C175.725 358.843 176.308 358.359 176.776 357.727C177.244 357.096 177.565 356.328 177.74 355.424H183.392C183.25 357.199 182.727 358.773 181.824 360.145C180.92 361.506 179.689 362.573 178.132 363.347C176.574 364.109 174.745 364.49 172.643 364.49Z" fill="white"/>
<path d="M195.468 364.506C193.878 364.506 192.445 364.223 191.171 363.657C189.908 363.08 188.906 362.23 188.166 361.109C187.436 359.987 187.071 358.604 187.071 356.96C187.071 355.544 187.333 354.373 187.855 353.447C188.378 352.522 189.091 351.781 189.995 351.226C190.899 350.67 191.917 350.251 193.05 349.968C194.193 349.674 195.375 349.462 196.595 349.331C198.065 349.178 199.257 349.042 200.172 348.923C201.087 348.792 201.751 348.596 202.165 348.335C202.59 348.062 202.802 347.643 202.802 347.077V346.979C202.802 345.748 202.437 344.795 201.708 344.12C200.978 343.445 199.927 343.107 198.555 343.107C197.106 343.107 195.958 343.423 195.108 344.055C194.27 344.686 193.703 345.432 193.409 346.293L187.888 345.509C188.324 343.984 189.042 342.71 190.044 341.686C191.046 340.652 192.271 339.878 193.72 339.366C195.168 338.844 196.769 338.582 198.522 338.582C199.731 338.582 200.934 338.724 202.132 339.007C203.33 339.29 204.425 339.759 205.416 340.412C206.407 341.054 207.202 341.931 207.801 343.042C208.41 344.153 208.715 345.541 208.715 347.207V364H203.031V360.553H202.835C202.475 361.25 201.969 361.904 201.316 362.513C200.673 363.112 199.862 363.597 198.882 363.967C197.912 364.327 196.774 364.506 195.468 364.506ZM197.003 360.161C198.19 360.161 199.219 359.927 200.09 359.459C200.962 358.98 201.631 358.348 202.1 357.564C202.579 356.78 202.818 355.925 202.818 354.999V352.043C202.633 352.195 202.317 352.337 201.871 352.467C201.435 352.598 200.945 352.712 200.401 352.81C199.856 352.908 199.317 352.995 198.784 353.072C198.25 353.148 197.787 353.213 197.395 353.268C196.513 353.388 195.723 353.584 195.026 353.856C194.329 354.128 193.78 354.509 193.377 354.999C192.974 355.478 192.772 356.099 192.772 356.861C192.772 357.951 193.17 358.773 193.965 359.328C194.76 359.884 195.772 360.161 197.003 360.161Z" fill="white"/>
<path d="M220.575 330.545V364H214.661V330.545H220.575Z" fill="white"/>
<path d="M266.963 341.833H260.853C260.679 340.831 260.358 339.944 259.89 339.17C259.421 338.386 258.839 337.722 258.142 337.178C257.445 336.633 256.65 336.225 255.757 335.952C254.875 335.669 253.922 335.528 252.898 335.528C251.079 335.528 249.468 335.985 248.063 336.9C246.658 337.804 245.558 339.132 244.763 340.886C243.968 342.628 243.571 344.757 243.571 347.273C243.571 349.832 243.968 351.988 244.763 353.741C245.569 355.484 246.669 356.802 248.063 357.695C249.468 358.577 251.074 359.018 252.882 359.018C253.884 359.018 254.82 358.887 255.691 358.626C256.574 358.353 257.363 357.956 258.06 357.433C258.768 356.91 259.361 356.268 259.841 355.506C260.331 354.743 260.668 353.872 260.853 352.892L266.963 352.925C266.734 354.515 266.239 356.007 265.476 357.401C264.725 358.794 263.739 360.025 262.52 361.092C261.3 362.149 259.873 362.976 258.24 363.575C256.606 364.163 254.793 364.457 252.8 364.457C249.86 364.457 247.235 363.777 244.926 362.415C242.618 361.054 240.799 359.089 239.471 356.518C238.142 353.948 237.478 350.866 237.478 347.273C237.478 343.668 238.147 340.586 239.487 338.027C240.826 335.457 242.65 333.491 244.959 332.13C247.268 330.769 249.882 330.088 252.8 330.088C254.662 330.088 256.394 330.349 257.995 330.872C259.596 331.395 261.022 332.163 262.275 333.175C263.527 334.177 264.556 335.408 265.362 336.867C266.179 338.316 266.712 339.971 266.963 341.833Z" fill="white"/>
<path d="M279.471 364.506C277.881 364.506 276.449 364.223 275.175 363.657C273.912 363.08 272.91 362.23 272.17 361.109C271.44 359.987 271.075 358.604 271.075 356.96C271.075 355.544 271.336 354.373 271.859 353.447C272.382 352.522 273.095 351.781 273.999 351.226C274.903 350.67 275.921 350.251 277.054 349.968C278.197 349.674 279.379 349.462 280.599 349.331C282.069 349.178 283.261 349.042 284.176 348.923C285.091 348.792 285.755 348.596 286.169 348.335C286.594 348.062 286.806 347.643 286.806 347.077V346.979C286.806 345.748 286.441 344.795 285.711 344.12C284.982 343.445 283.931 343.107 282.559 343.107C281.11 343.107 279.961 343.423 279.112 344.055C278.273 344.686 277.707 345.432 277.413 346.293L271.892 345.509C272.327 343.984 273.046 342.71 274.048 341.686C275.05 340.652 276.275 339.878 277.724 339.366C279.172 338.844 280.773 338.582 282.526 338.582C283.735 338.582 284.938 338.724 286.136 339.007C287.334 339.29 288.429 339.759 289.42 340.412C290.411 341.054 291.206 341.931 291.805 343.042C292.414 344.153 292.719 345.541 292.719 347.207V364H287.035V360.553H286.839C286.479 361.25 285.973 361.904 285.319 362.513C284.677 363.112 283.866 363.597 282.885 363.967C281.916 364.327 280.778 364.506 279.471 364.506ZM281.007 360.161C282.194 360.161 283.223 359.927 284.094 359.459C284.965 358.98 285.635 358.348 286.104 357.564C286.583 356.78 286.822 355.925 286.822 354.999V352.043C286.637 352.195 286.321 352.337 285.875 352.467C285.439 352.598 284.949 352.712 284.405 352.81C283.86 352.908 283.321 352.995 282.787 353.072C282.254 353.148 281.791 353.213 281.399 353.268C280.517 353.388 279.727 353.584 279.03 353.856C278.333 354.128 277.783 354.509 277.381 354.999C276.978 355.478 276.776 356.099 276.776 356.861C276.776 357.951 277.174 358.773 277.969 359.328C278.764 359.884 279.776 360.161 281.007 360.161Z" fill="white"/>
<path d="M298.665 364V338.909H304.399V343.091H304.66C305.118 341.643 305.902 340.526 307.013 339.742C308.134 338.947 309.414 338.55 310.851 338.55C311.178 338.55 311.543 338.566 311.946 338.599C312.36 338.62 312.703 338.659 312.975 338.713V344.153C312.725 344.066 312.327 343.989 311.783 343.924C311.249 343.848 310.732 343.81 310.231 343.81C309.153 343.81 308.183 344.044 307.323 344.512C306.474 344.969 305.804 345.607 305.314 346.423C304.824 347.24 304.579 348.182 304.579 349.249V364H298.665Z" fill="white"/>
<path d="M325.181 364.441C323.21 364.441 321.446 363.935 319.889 362.922C318.332 361.909 317.101 360.439 316.197 358.511C315.293 356.584 314.841 354.242 314.841 351.487C314.841 348.699 315.299 346.347 316.213 344.43C317.139 342.503 318.386 341.049 319.954 340.069C321.522 339.078 323.27 338.582 325.198 338.582C326.668 338.582 327.877 338.833 328.824 339.334C329.772 339.824 330.523 340.417 331.078 341.114C331.634 341.8 332.064 342.448 332.369 343.058H332.614V330.545H338.544V364H332.728V360.047H332.369C332.064 360.657 331.623 361.305 331.046 361.991C330.469 362.666 329.706 363.243 328.759 363.722C327.811 364.201 326.619 364.441 325.181 364.441ZM326.831 359.589C328.084 359.589 329.151 359.252 330.033 358.577C330.915 357.891 331.585 356.938 332.042 355.718C332.5 354.498 332.728 353.077 332.728 351.455C332.728 349.832 332.5 348.422 332.042 347.224C331.596 346.026 330.931 345.095 330.049 344.43C329.178 343.766 328.105 343.434 326.831 343.434C325.514 343.434 324.414 343.777 323.532 344.463C322.65 345.149 321.985 346.097 321.539 347.305C321.092 348.514 320.869 349.897 320.869 351.455C320.869 353.023 321.092 354.422 321.539 355.653C321.996 356.872 322.666 357.836 323.548 358.544C324.441 359.241 325.535 359.589 326.831 359.589Z" fill="white"/>
<path d="M364.676 345.541L359.285 346.129C359.133 345.585 358.866 345.073 358.485 344.594C358.115 344.115 357.614 343.728 356.982 343.434C356.35 343.14 355.577 342.993 354.662 342.993C353.432 342.993 352.397 343.26 351.559 343.793C350.731 344.327 350.323 345.018 350.334 345.868C350.323 346.598 350.59 347.191 351.134 347.648C351.689 348.106 352.604 348.482 353.878 348.776L358.158 349.69C360.532 350.202 362.296 351.013 363.451 352.124C364.616 353.235 365.204 354.689 365.215 356.486C365.204 358.065 364.741 359.459 363.827 360.668C362.923 361.866 361.665 362.802 360.053 363.477C358.441 364.152 356.59 364.49 354.499 364.49C351.428 364.49 348.956 363.848 347.083 362.562C345.21 361.267 344.094 359.464 343.734 357.156L349.501 356.6C349.762 357.733 350.317 358.588 351.167 359.165C352.016 359.742 353.122 360.031 354.483 360.031C355.888 360.031 357.015 359.742 357.864 359.165C358.724 358.588 359.155 357.874 359.155 357.025C359.155 356.306 358.877 355.713 358.322 355.244C357.777 354.776 356.928 354.417 355.773 354.166L351.493 353.268C349.087 352.767 347.306 351.923 346.152 350.736C344.997 349.538 344.426 348.024 344.437 346.195C344.426 344.648 344.845 343.309 345.694 342.176C346.555 341.033 347.747 340.151 349.272 339.53C350.807 338.898 352.577 338.582 354.581 338.582C357.521 338.582 359.835 339.209 361.523 340.461C363.222 341.713 364.273 343.407 364.676 345.541Z" fill="white"/>
<rect x="438.25" y="288.25" width="116.5" height="116.5" rx="24.75" fill="url(#paint8_linear_6_2)" stroke="url(#paint9_linear_6_2)" stroke-width="0.5"/>
<rect x="144.25" y="138.25" width="116.5" height="116.5" rx="24.75" fill="url(#paint10_linear_6_2)" stroke="url(#paint11_linear_6_2)" stroke-width="0.5"/>
<rect x="0.25" y="138.25" width="116.5" height="116.5" rx="24.75" fill="url(#paint12_linear_6_2)" stroke="url(#paint13_linear_6_2)" stroke-width="0.5"/>
<path fill-rule="evenodd" clip-rule="evenodd" d="M479 329C477.409 329 475.883 329.632 474.757 330.757C473.632 331.883 473 333.409 473 335V359C473 360.591 473.632 362.117 474.757 363.243C475.883 364.368 477.409 365 479 365H515C516.591 365 518.117 364.368 519.243 363.243C520.368 362.117 521 360.591 521 359V335C521 333.409 520.368 331.883 519.243 330.757C518.117 329.632 516.591 329 515 329H479ZM470.515 326.515C472.765 324.264 475.817 323 479 323H515C518.183 323 521.235 324.264 523.485 326.515C525.736 328.765 527 331.817 527 335V359C527 362.183 525.736 365.235 523.485 367.485C521.235 369.736 518.183 371 515 371H479C475.817 371 472.765 369.736 470.515 367.485C468.264 365.235 467 362.183 467 359V335C467 331.817 468.264 328.765 470.515 326.515Z" fill="white"/>
<path fill-rule="evenodd" clip-rule="evenodd" d="M467 341C467 339.343 468.343 338 470 338H524C525.657 338 527 339.343 527 341C527 342.657 525.657 344 524 344H470C468.343 344 467 342.657 467 341Z" fill="white"/>
<path fill-rule="evenodd" clip-rule="evenodd" d="M479 356C479 354.343 480.336 353 481.985 353H482.015C483.664 353 485 354.343 485 356C485 357.657 483.664 359 482.015 359H481.985C480.336 359 479 357.657 479 356Z" fill="white"/>
<path fill-rule="evenodd" clip-rule="evenodd" d="M491 356C491 354.343 492.343 353 494 353H500C501.657 353 503 354.343 503 356C503 357.657 501.657 359 500 359H494C492.343 359 491 357.657 491 356Z" fill="white"/>
<path fill-rule="evenodd" clip-rule="evenodd" d="M495.408 34.6025C496.317 33.7992 497.683 33.7992 498.592 34.6025C503.738 39.149 510.453 41.5162 517.316 41.2025C518.422 41.152 519.42 41.8624 519.732 42.9231C520.913 46.935 521.274 51.1429 520.794 55.297C520.315 59.4511 519.004 63.4664 516.939 67.1045C514.875 70.7426 512.1 73.9291 508.778 76.4748C505.456 79.0204 501.656 80.8732 497.603 81.9231C497.208 82.0256 496.792 82.0256 496.397 81.9231C492.344 80.8732 488.544 79.0204 485.222 76.4748C481.9 73.9291 479.125 70.7426 477.061 67.1045C474.996 63.4664 473.685 59.4511 473.206 55.297C472.726 51.1429 473.087 46.935 474.268 42.9231C474.58 41.8624 475.578 41.152 476.684 41.2025C483.547 41.5162 490.262 39.149 495.408 34.6025ZM478.429 46.0255C477.797 48.8836 477.644 51.831 477.98 54.7471C478.386 58.262 479.495 61.6597 481.242 64.738C482.989 67.8164 485.337 70.5127 488.148 72.6667C490.793 74.694 493.797 76.2019 497 77.113C500.203 76.2019 503.207 74.694 505.852 72.6667C508.663 70.5127 511.011 67.8164 512.758 64.738C514.505 61.6597 515.614 58.262 516.02 54.7471C516.356 51.831 516.203 48.8836 515.571 46.0255C508.84 45.9102 502.324 43.6249 497 39.5134C491.676 43.6249 485.16 45.9102 478.429 46.0255Z" fill="white"/>
<path fill-rule="evenodd" clip-rule="evenodd" d="M493.489 52.0061C494.42 51.0749 495.683 50.5517 497 50.5517C498.317 50.5517 499.58 51.0749 500.511 52.0061C501.442 52.9373 501.966 54.2003 501.966 55.5172C501.966 56.8342 501.442 58.0972 500.511 59.0284C499.58 59.9596 498.317 60.4828 497 60.4828C495.683 60.4828 494.42 59.9596 493.489 59.0284C492.558 58.0972 492.034 56.8342 492.034 55.5172C492.034 54.2003 492.558 52.9373 493.489 52.0061Z" fill="white"/>
<path fill-rule="evenodd" clip-rule="evenodd" d="M497 55.5172C498.371 55.5172 499.483 56.5876 499.483 57.908V63.8851C499.483 65.2055 498.371 66.2759 497 66.2759C495.629 66.2759 494.517 65.2055 494.517 63.8851V57.908C494.517 56.5876 495.629 55.5172 497 55.5172Z" fill="white"/>
<path fill-rule="evenodd" clip-rule="evenodd" d="M35 217.5C35 216.119 36.0745 215 37.4 215H80.6C81.9255 215 83 216.119 83 217.5C83 218.881 81.9255 220 80.6 220H37.4C36.0745 220 35 218.881 35 217.5Z" fill="white"/>
<path fill-rule="evenodd" clip-rule="evenodd" d="M35 191.5C35 190.119 36.0745 189 37.4 189H80.6C81.9255 189 83 190.119 83 191.5C83 192.881 81.9255 194 80.6 194H37.4C36.0745 194 35 192.881 35 191.5Z" fill="white"/>
<path fill-rule="evenodd" clip-rule="evenodd" d="M58.0645 172.194C58.6619 171.935 59.3381 171.935 59.9355 172.194L76.56 179.394C77.7656 179.916 78.324 181.327 77.8074 182.545C77.2907 183.763 75.8945 184.327 74.6889 183.805L59 177.011L43.3111 183.805C42.1055 184.327 40.7093 183.763 40.1926 182.545C39.676 181.327 40.2344 179.916 41.44 179.394L58.0645 172.194Z" fill="white"/>
<path fill-rule="evenodd" clip-rule="evenodd" d="M39.5 189C40.8807 189 42 190.068 42 191.385V217.615C42 218.932 40.8807 220 39.5 220C38.1193 220 37 218.932 37 217.615V191.385C37 190.068 38.1193 189 39.5 189Z" fill="white"/>
<path fill-rule="evenodd" clip-rule="evenodd" d="M78.5 189C79.8807 189 81 190.068 81 191.385V217.615C81 218.932 79.8807 220 78.5 220C77.1193 220 76 218.932 76 217.615V191.385C76 190.068 77.1193 189 78.5 189Z" fill="white"/>
<path fill-rule="evenodd" clip-rule="evenodd" d="M49.5 198C50.8807 198 52 199.075 52 200.4V207.6C52 208.925 50.8807 210 49.5 210C48.1193 210 47 208.925 47 207.6V200.4C47 199.075 48.1193 198 49.5 198Z" fill="white"/>
<path fill-rule="evenodd" clip-rule="evenodd" d="M59 198C60.1046 198 61 199.075 61 200.4V207.6C61 208.925 60.1046 210 59 210C57.8954 210 57 208.925 57 207.6V200.4C57 199.075 57.8954 198 59 198Z" fill="white"/>
<path fill-rule="evenodd" clip-rule="evenodd" d="M68.5 198C69.8807 198 71 199.075 71 200.4V207.6C71 208.925 69.8807 210 68.5 210C67.1193 210 66 208.925 66 207.6V200.4C66 199.075 67.1193 198 68.5 198Z" fill="white"/>
<path fill-rule="evenodd" clip-rule="evenodd" d="M191.734 181.845C193.484 180.023 195.858 179 198.333 179H207.667C207.7 179 207.734 179.001 207.767 179.002C209.629 179.086 211.423 179.747 212.92 180.902C214.417 182.056 215.548 183.65 216.167 185.478C216.596 186.743 215.958 188.13 214.742 188.576C213.527 189.022 212.194 188.358 211.766 187.093C211.456 186.179 210.891 185.382 210.142 184.805C209.406 184.237 208.526 183.907 207.611 183.857H198.333C197.096 183.857 195.909 184.369 195.034 185.28C194.158 186.191 193.667 187.426 193.667 188.714C193.667 190.002 194.158 191.238 195.034 192.149C195.909 193.06 197.096 193.571 198.333 193.571H207.667C210.142 193.571 212.516 194.595 214.266 196.417C216.017 198.238 217 200.709 217 203.286C217 205.862 216.017 208.333 214.266 210.155C212.516 211.977 210.142 213 207.667 213H198.333C198.3 213 198.266 212.999 198.233 212.998C196.371 212.914 194.577 212.253 193.08 211.098C191.583 209.944 190.452 208.35 189.833 206.522C189.404 205.257 190.042 203.87 191.258 203.424C192.473 202.978 193.806 203.642 194.234 204.907C194.544 205.821 195.109 206.618 195.858 207.195C196.594 207.763 197.474 208.093 198.389 208.143H207.667C208.904 208.143 210.091 207.631 210.966 206.72C211.842 205.809 212.333 204.574 212.333 203.286C212.333 201.998 211.842 200.762 210.966 199.851C210.091 198.94 208.904 198.429 207.667 198.429H198.333C195.858 198.429 193.484 197.405 191.734 195.583C189.983 193.762 189 191.291 189 188.714C189 186.138 189.983 183.667 191.734 181.845Z" fill="white"/>
<path fill-rule="evenodd" clip-rule="evenodd" d="M203 172C204.105 172 205 173.075 205 174.4V181.6C205 182.925 204.105 184 203 184C201.895 184 201 182.925 201 181.6V174.4C201 173.075 201.895 172 203 172ZM203 208C204.105 208 205 209.075 205 210.4V217.6C205 218.925 204.105 220 203 220C201.895 220 201 218.925 201 217.6V210.4C201 209.075 201.895 208 203 208Z" fill="white"/>
</g>
<defs>
<linearGradient id="paint0_linear_6_2" x1="504" y1="400.5" x2="422.888" y2="182.056" gradientUnits="userSpaceOnUse">
<stop stop-color="white" stop-opacity="0.5"/>
<stop offset="1" stop-color="white" stop-opacity="0"/>
</linearGradient>
<linearGradient id="paint1_linear_6_2" x1="602" y1="35" x2="476.736" y2="320.286" gradientUnits="userSpaceOnUse">
<stop stop-color="white"/>
<stop offset="1" stop-color="white" stop-opacity="0"/>
</linearGradient>
<linearGradient id="paint2_linear_6_2" x1="-36.5" y1="50" x2="97.0049" y2="402.345" gradientUnits="userSpaceOnUse">
<stop stop-color="white" stop-opacity="0.5"/>
<stop offset="1" stop-color="white" stop-opacity="0"/>
</linearGradient>
<linearGradient id="paint3_linear_6_2" x1="140.5" y1="455" x2="316.721" y2="199.65" gradientUnits="userSpaceOnUse">
<stop stop-color="white"/>
<stop offset="1" stop-color="white" stop-opacity="0"/>
</linearGradient>
<linearGradient id="paint4_linear_6_2" x1="620" y1="339" x2="440.689" y2="-41.5752" gradientUnits="userSpaceOnUse">
<stop stop-color="white" stop-opacity="0.5"/>
<stop offset="1" stop-color="white" stop-opacity="0"/>
</linearGradient>
<linearGradient id="paint5_linear_6_2" x1="483" y1="172.5" x2="128.941" y2="-147.976" gradientUnits="userSpaceOnUse">
<stop stop-color="white"/>
<stop offset="1" stop-color="white" stop-opacity="0"/>
</linearGradient>
<linearGradient id="paint6_linear_6_2" x1="687" y1="-98" x2="509" y2="71" gradientUnits="userSpaceOnUse">
<stop stop-color="white" stop-opacity="0.5"/>
<stop offset="1" stop-color="white" stop-opacity="0"/>
</linearGradient>
<linearGradient id="paint7_linear_6_2" x1="516.5" y1="-48.5" x2="382.5" y2="161" gradientUnits="userSpaceOnUse">
<stop stop-color="white"/>
<stop offset="1" stop-color="white" stop-opacity="0"/>
</linearGradient>
<linearGradient id="paint8_linear_6_2" x1="275.5" y1="506.5" x2="364.273" y2="266.458" gradientUnits="userSpaceOnUse">
<stop stop-color="white" stop-opacity="0.5"/>
<stop offset="1" stop-color="white" stop-opacity="0"/>
</linearGradient>
<linearGradient id="paint9_linear_6_2" x1="674.5" y1="251" x2="620.215" y2="453.78" gradientUnits="userSpaceOnUse">
<stop stop-color="white"/>
<stop offset="1" stop-color="white" stop-opacity="0"/>
</linearGradient>
<linearGradient id="paint10_linear_6_2" x1="139.837" y1="-39.5" x2="316.196" y2="114.791" gradientUnits="userSpaceOnUse">
<stop stop-color="white" stop-opacity="0.5"/>
<stop offset="1" stop-color="white" stop-opacity="0"/>
</linearGradient>
<linearGradient id="paint11_linear_6_2" x1="128.006" y1="30.5" x2="329.912" y2="141.57" gradientUnits="userSpaceOnUse">
<stop stop-color="white"/>
<stop offset="1" stop-color="white" stop-opacity="0"/>
</linearGradient>
<linearGradient id="paint12_linear_6_2" x1="135.5" y1="480.5" x2="-65.8705" y2="320.175" gradientUnits="userSpaceOnUse">
<stop stop-color="white" stop-opacity="0.5"/>
<stop offset="1" stop-color="white" stop-opacity="0"/>
</linearGradient>
<linearGradient id="paint13_linear_6_2" x1="197" y1="397.5" x2="-38.2384" y2="349.382" gradientUnits="userSpaceOnUse">
<stop stop-color="white"/>
<stop offset="1" stop-color="white" stop-opacity="0"/>
</linearGradient>
<clipPath id="clip0_6_2">
<rect width="555" height="405" fill="white"/>
</clipPath>
</defs>
</svg>
