<svg width="555" height="405" viewBox="0 0 555 405" fill="none" xmlns="http://www.w3.org/2000/svg">
<g clip-path="url(#clip0_1_209)">
<path d="M25 0.5H242C255.531 0.5 266.5 11.469 266.5 25V92C266.5 105.531 255.531 116.5 242 116.5H25C11.469 116.5 0.5 105.531 0.5 92V25C0.5 11.469 11.469 0.5 25 0.5Z" fill="url(#paint0_linear_1_209)" stroke="url(#paint1_linear_1_209)"/>
<path d="M43.12 69.79V64.97L57.32 42.54H61.34V49.4H58.89L49.33 64.54V64.8H69.14V69.78H43.12V69.79ZM59.08 76V68.32L59.15 66.16V42.54H64.87V75.99H59.08V76Z" fill="white"/>
<path d="M97.09 53.23C96.82 52.35 96.44 51.56 95.97 50.85C95.5 50.15 94.93 49.55 94.27 49.05C93.61 48.55 92.86 48.17 92.01 47.91C91.16 47.66 90.24 47.53 89.23 47.53C87.43 47.53 85.83 47.98 84.43 48.89C83.03 49.79 81.92 51.12 81.12 52.87C80.32 54.62 79.92 56.74 79.92 59.25C79.92 61.76 80.32 63.92 81.11 65.67C81.9 67.42 83.01 68.75 84.43 69.66C85.85 70.57 87.49 71.02 89.36 71.02C91.06 71.02 92.53 70.69 93.78 70.04C95.03 69.39 95.99 68.46 96.66 67.25C97.33 66.05 97.67 64.63 97.67 63.01L99.04 63.22H89.96V58.48H103.53V62.5C103.53 65.36 102.92 67.84 101.7 69.93C100.48 72.02 98.8 73.63 96.67 74.76C94.54 75.89 92.09 76.45 89.32 76.45C86.24 76.45 83.53 75.76 81.21 74.37C78.88 72.98 77.07 71 75.77 68.44C74.47 65.87 73.82 62.83 73.82 59.3C73.82 56.6 74.2 54.19 74.97 52.06C75.74 49.94 76.81 48.13 78.2 46.64C79.58 45.15 81.21 44.02 83.07 43.24C84.93 42.46 86.96 42.07 89.15 42.07C91 42.07 92.73 42.34 94.33 42.88C95.93 43.42 97.35 44.18 98.6 45.17C99.85 46.16 100.87 47.34 101.68 48.7C102.49 50.06 103.01 51.56 103.26 53.21H97.09V53.23Z" fill="white"/>
<path d="M130.56 76.49C128.27 76.49 126.31 76.08 124.66 75.25C123.02 74.42 121.75 73.3 120.86 71.89C119.97 70.48 119.53 68.89 119.53 67.11C119.53 65.77 119.8 64.58 120.35 63.55C120.9 62.52 121.66 61.56 122.64 60.67C123.62 59.78 124.74 58.91 126.03 58.04L131.96 54C132.83 53.43 133.49 52.83 133.94 52.2C134.39 51.57 134.62 50.83 134.62 49.98C134.62 49.26 134.32 48.58 133.71 47.94C133.1 47.3 132.27 46.98 131.22 46.98C130.51 46.98 129.89 47.15 129.35 47.48C128.81 47.81 128.39 48.24 128.09 48.78C127.79 49.31 127.64 49.88 127.64 50.48C127.64 51.21 127.84 51.95 128.25 52.7C128.66 53.45 129.19 54.23 129.85 55.04C130.51 55.85 131.21 56.7 131.97 57.6L147.67 75.99H141.27L128.23 61.06C127.26 59.93 126.33 58.81 125.43 57.71C124.53 56.61 123.8 55.46 123.22 54.27C122.64 53.08 122.36 51.78 122.36 50.39C122.36 48.81 122.72 47.4 123.45 46.15C124.18 44.9 125.2 43.92 126.51 43.2C127.82 42.48 129.36 42.12 131.12 42.12C132.88 42.12 134.4 42.47 135.66 43.17C136.92 43.87 137.9 44.79 138.58 45.95C139.26 47.11 139.61 48.36 139.61 49.72C139.61 51.3 139.22 52.71 138.43 53.96C137.65 55.21 136.56 56.34 135.16 57.35L128.4 62.3C127.29 63.11 126.49 63.92 126.01 64.74C125.53 65.56 125.29 66.26 125.29 66.84C125.29 67.72 125.51 68.52 125.96 69.24C126.41 69.96 127.04 70.53 127.85 70.96C128.66 71.39 129.61 71.61 130.7 71.61C131.9 71.61 133.08 71.34 134.24 70.8C135.41 70.26 136.47 69.49 137.43 68.49C138.39 67.49 139.15 66.29 139.72 64.89C140.29 63.49 140.57 61.94 140.57 60.23H145.65C145.65 62.34 145.42 64.18 144.95 65.74C144.48 67.3 143.88 68.62 143.14 69.69C142.4 70.76 141.62 71.62 140.79 72.26C140.53 72.45 140.28 72.63 140.04 72.82C139.8 73.01 139.55 73.19 139.29 73.38C138.11 74.45 136.74 75.23 135.17 75.73C133.6 76.23 132.05 76.48 130.54 76.48H130.56V76.49Z" fill="white"/>
<path d="M174.03 76.46C171.85 76.46 169.9 76.05 168.18 75.23C166.46 74.41 165.1 73.28 164.09 71.84C163.08 70.4 162.55 68.76 162.48 66.91H168.36C168.47 68.28 169.06 69.4 170.14 70.27C171.22 71.14 172.51 71.57 174.03 71.57C175.22 71.57 176.27 71.3 177.2 70.75C178.13 70.21 178.85 69.45 179.39 68.48C179.92 67.51 180.18 66.4 180.17 65.16C180.17 63.9 179.91 62.78 179.37 61.79C178.83 60.81 178.08 60.04 177.13 59.48C176.18 58.92 175.09 58.64 173.86 58.64C172.86 58.64 171.87 58.81 170.9 59.2C169.93 59.58 169.16 60.08 168.6 60.7L163.13 59.8L164.88 42.55H184.29V47.61H169.9L168.94 56.48H169.14C169.76 55.75 170.64 55.14 171.77 54.66C172.9 54.18 174.14 53.93 175.49 53.93C177.52 53.93 179.32 54.41 180.91 55.36C182.5 56.31 183.75 57.62 184.67 59.29C185.59 60.96 186.04 62.86 186.04 65.01C186.04 67.16 185.53 69.19 184.51 70.91C183.49 72.64 182.08 73.99 180.28 74.98C178.48 75.97 176.39 76.46 174.03 76.46Z" fill="white"/>
<path d="M214.23 53.23C213.96 52.35 213.58 51.56 213.11 50.85C212.64 50.15 212.07 49.55 211.41 49.05C210.75 48.55 210 48.17 209.15 47.91C208.3 47.66 207.38 47.53 206.37 47.53C204.57 47.53 202.97 47.98 201.57 48.89C200.17 49.79 199.06 51.12 198.26 52.87C197.46 54.62 197.06 56.74 197.06 59.25C197.06 61.76 197.46 63.92 198.25 65.67C199.04 67.42 200.15 68.75 201.57 69.66C202.99 70.57 204.63 71.02 206.5 71.02C208.2 71.02 209.67 70.69 210.92 70.04C212.17 69.39 213.13 68.46 213.8 67.25C214.47 66.05 214.81 64.63 214.81 63.01L216.18 63.22H207.1V58.48H220.67V62.5C220.67 65.36 220.06 67.84 218.84 69.93C217.62 72.02 215.94 73.63 213.81 74.76C211.68 75.89 209.23 76.45 206.46 76.45C203.38 76.45 200.67 75.76 198.35 74.37C196.02 72.98 194.21 71 192.91 68.44C191.61 65.87 190.96 62.83 190.96 59.3C190.96 56.6 191.34 54.19 192.11 52.06C192.88 49.94 193.95 48.13 195.34 46.64C196.72 45.15 198.35 44.02 200.21 43.24C202.07 42.46 204.1 42.07 206.29 42.07C208.14 42.07 209.87 42.34 211.47 42.88C213.07 43.42 214.49 44.18 215.74 45.17C216.99 46.16 218.01 47.34 218.82 48.7C219.63 50.06 220.15 51.56 220.4 53.21H214.23V53.23Z" fill="white"/>
<path d="M313 0.5H380C393.531 0.5 404.5 11.469 404.5 25V92C404.5 105.531 393.531 116.5 380 116.5H313C299.469 116.5 288.5 105.531 288.5 92V25C288.5 11.469 299.469 0.5 313 0.5Z" fill="url(#paint2_linear_1_209)" stroke="url(#paint3_linear_1_209)"/>
<path d="M346.5 82.16C333.43 82.16 322.84 71.57 322.84 58.5C322.84 45.43 333.43 34.84 346.5 34.84C359.57 34.84 370.16 45.43 370.16 58.5C370.25 71.48 359.8 82.07 346.82 82.16H346.5ZM327.57 58.5C327.57 68.95 336.04 77.43 346.5 77.43C356.96 77.43 365.43 68.96 365.43 58.5C365.43 48.04 356.96 39.57 346.5 39.57C336.12 39.5 327.64 47.86 327.57 58.24V58.49V58.5Z" fill="white"/>
<path d="M366.37 53.77H326.62C325.31 53.77 324.25 52.71 324.25 51.4C324.25 50.09 325.31 49.03 326.62 49.03H366.37C367.68 49.03 368.74 50.09 368.74 51.4C368.74 52.71 367.68 53.77 366.37 53.77Z" fill="white"/>
<path d="M366.37 67.96H326.62C325.31 67.96 324.25 66.9 324.25 65.59C324.25 64.28 325.31 63.22 326.62 63.22H366.37C367.68 63.22 368.74 64.28 368.74 65.59C368.74 66.9 367.68 67.96 366.37 67.96Z" fill="white"/>
<path d="M345.32 82.16C344.5 82.16 343.74 81.74 343.31 81.05C334.7 67.25 334.7 49.76 343.31 35.96C344.02 34.86 345.48 34.54 346.58 35.25C347.66 35.94 347.99 37.37 347.32 38.46C339.72 50.74 339.72 66.26 347.32 78.54C348.01 79.65 347.67 81.11 346.57 81.8C346.2 82.03 345.76 82.16 345.32 82.16Z" fill="white"/>
<path d="M347.68 82.16C346.37 82.16 345.32 81.09 345.32 79.79C345.32 79.35 345.45 78.92 345.68 78.54C353.28 66.26 353.28 50.74 345.68 38.46C345 37.34 345.36 35.89 346.48 35.21C347.58 34.55 349 34.88 349.69 35.95C353.91 42.71 356.15 50.53 356.14 58.5C356.14 66.47 353.9 74.28 349.68 81.05C349.25 81.74 348.49 82.16 347.67 82.16H347.68Z" fill="white"/>
<path d="M463 0.5H530C543.531 0.5 554.5 11.469 554.5 25V92C554.5 105.531 543.531 116.5 530 116.5H463C449.469 116.5 438.5 105.531 438.5 92V25C438.5 11.469 449.469 0.5 463 0.5Z" fill="url(#paint4_linear_1_209)" stroke="url(#paint5_linear_1_209)"/>
<path d="M459 75.45V42H465.06V70.37H479.79V75.45H459Z" fill="white"/>
<path d="M479.31 47.08V42H506V47.08H495.66V75.45H489.65V47.08H479.31Z" fill="white"/>
<path d="M511.13 75.45V42H532.89V47.08H517.19V56.16H531.76V61.24H517.19V70.37H533.02V75.45H511.13Z" fill="white"/>
<path d="M25 138.5H242C255.531 138.5 266.5 149.469 266.5 163V380C266.5 393.531 255.531 404.5 242 404.5H25C11.469 404.5 0.5 393.531 0.5 380V163C0.5 149.469 11.469 138.5 25 138.5Z" fill="url(#paint6_linear_1_209)" stroke="url(#paint7_linear_1_209)"/>
<mask id="mask0_1_209" style="mask-type:luminance" maskUnits="userSpaceOnUse" x="63" y="189" width="141" height="165">
<path d="M203.1 189.42H63.89V353.58H203.1V189.42Z" fill="white"/>
</mask>
<g mask="url(#mask0_1_209)">
<path d="M162.02 244.27C163.44 245.61 165.69 245.55 167.03 244.12C176.54 234.02 176.07 218.13 165.97 208.61C164.56 207.25 162.32 207.28 160.95 208.69C159.59 210.1 159.62 212.34 161.03 213.71L161.1 213.78C168.34 220.61 168.68 232.01 161.86 239.26C160.52 240.69 160.58 242.93 162.01 244.27" fill="white"/>
<path d="M175.92 199.34C174.51 197.98 172.27 198.01 170.9 199.42C169.54 200.83 169.57 203.07 170.98 204.44L171.05 204.51C183.46 216.23 184.05 235.79 172.35 248.23C170.99 249.64 171.02 251.88 172.43 253.25C173.84 254.61 176.08 254.58 177.45 253.17L177.52 253.1C191.9 237.81 191.18 213.76 175.92 199.35" fill="white"/>
<path d="M187.18 190.39C185.79 189.01 183.54 189.03 182.16 190.42C180.78 191.81 180.8 194.06 182.19 195.44L182.31 195.56C199.81 212.09 200.63 239.66 184.14 257.19C182.78 258.6 182.81 260.84 184.22 262.21C185.63 263.57 187.87 263.54 189.24 262.13C189.26 262.11 189.29 262.08 189.31 262.06C208.51 241.68 207.55 209.6 187.17 190.4" fill="white"/>
<path d="M108.19 309.3L124.26 317.08L101.37 328.07L108.18 309.3H108.19ZM133.15 288.42L152.53 303.51L132.44 313.16L113.2 303.85L133.15 288.42ZM113.51 294.64L119.6 277.87L127.38 283.92L113.52 294.63L113.51 294.64ZM132.89 241.23L143.78 271.24L133.17 279.44L122.14 270.86L132.89 241.23ZM126.01 226.31C126.01 222.51 129.09 219.44 132.88 219.44C136.67 219.44 139.75 222.52 139.75 226.31C139.75 230.1 136.67 233.18 132.88 233.18C131.39 233.18 129.95 232.7 128.76 231.81C127.03 230.51 126.01 228.47 126.01 226.31ZM152.09 294.2L138.93 283.96L146.3 278.26L152.08 294.2H152.09ZM164.63 328.77L140.59 317.12L157.47 309.01L164.63 328.76V328.77ZM88.42 353.39C90.26 354.06 92.29 353.11 92.96 351.27L97.91 337.63L132.41 321.06L168.09 338.34L172.78 351.27C173.45 353.11 175.48 354.06 177.32 353.39C179.16 352.72 180.11 350.69 179.44 348.85L139.64 239.12C146.7 235.38 149.4 226.62 145.66 219.56C141.92 212.5 133.16 209.8 126.1 213.54C119.04 217.28 116.34 226.04 120.08 233.1C121.44 235.66 123.53 237.76 126.1 239.12L92.06 332.95C91.57 333.57 91.3 334.32 91.28 335.1L86.29 348.85C85.62 350.69 86.57 352.73 88.42 353.39Z" fill="white"/>
<path d="M105.89 213.77C107.33 212.45 107.43 210.2 106.11 208.76C104.79 207.32 102.54 207.22 101.1 208.54C101.08 208.56 101.05 208.58 101.03 208.61C90.93 218.12 90.46 234.02 99.97 244.12C101.33 245.53 103.58 245.56 104.99 244.2C106.37 242.86 106.43 240.67 105.14 239.26C98.31 232.02 98.65 220.61 105.9 213.78" fill="white"/>
<path d="M91.08 199.33C75.79 213.73 75.08 237.8 89.48 253.08C90.8 254.52 93.05 254.62 94.49 253.3C95.93 251.98 96.03 249.73 94.71 248.29C94.69 248.27 94.67 248.24 94.64 248.22C82.92 235.79 83.51 216.21 95.94 204.5C97.35 203.14 97.38 200.89 96.02 199.48C94.68 198.1 92.49 198.04 91.08 199.33Z" fill="white"/>
<path d="M80.27 263.16C82.23 263.16 83.82 261.57 83.82 259.61C83.82 258.71 83.47 257.84 82.85 257.18C66.36 239.64 67.18 212.07 84.68 195.55C86.08 194.18 86.1 191.93 84.73 190.53C83.4 189.17 81.23 189.11 79.82 190.38C59.44 209.58 58.49 241.66 77.69 262.04C78.36 262.75 79.29 263.16 80.27 263.15" fill="white"/>
</g>
<path d="M313 138.5H530C543.531 138.5 554.5 149.469 554.5 163V230C554.5 243.531 543.531 254.5 530 254.5H313C299.469 254.5 288.5 243.531 288.5 230V163C288.5 149.469 299.469 138.5 313 138.5Z" fill="url(#paint8_linear_1_209)" stroke="url(#paint9_linear_1_209)"/>
<path d="M364.97 214V180.55H377.52C380.09 180.55 382.25 181.03 384 181.99C385.75 182.95 387.07 184.26 387.97 185.93C388.87 187.6 389.32 189.5 389.32 191.62C389.32 193.74 388.87 195.67 387.96 197.34C387.05 199.01 385.72 200.32 383.96 201.27C382.2 202.22 380.02 202.7 377.44 202.7H369.13V197.72H376.63C378.13 197.72 379.36 197.46 380.32 196.94C381.28 196.42 381.99 195.7 382.45 194.78C382.91 193.86 383.14 192.81 383.14 191.63C383.14 190.45 382.91 189.4 382.45 188.49C381.99 187.59 381.27 186.88 380.31 186.37C379.35 185.86 378.11 185.61 376.59 185.61H371.04V214H364.97Z" fill="white"/>
<path d="M423.2 191.83H417.09C416.92 190.83 416.59 189.94 416.13 189.16C415.66 188.38 415.08 187.72 414.38 187.18C413.68 186.64 412.89 186.22 412 185.95C411.11 185.67 410.16 185.53 409.13 185.53C407.31 185.53 405.7 185.99 404.3 186.89C402.9 187.79 401.8 189.13 401 190.88C400.21 192.63 399.81 194.76 399.81 197.27C399.81 199.78 400.21 201.98 401.01 203.73C401.81 205.48 402.91 206.8 404.31 207.68C405.71 208.56 407.31 209.01 409.12 209.01C410.12 209.01 411.06 208.88 411.94 208.61C412.82 208.34 413.61 207.95 414.31 207.43C415.01 206.91 415.61 206.26 416.09 205.5C416.57 204.74 416.91 203.87 417.09 202.89L423.2 202.92C422.97 204.51 422.48 206 421.72 207.4C420.96 208.79 419.97 210.02 418.76 211.08C417.55 212.14 416.11 212.97 414.48 213.56C412.85 214.15 411.03 214.45 409.04 214.45C406.1 214.45 403.48 213.77 401.17 212.41C398.86 211.05 397.04 209.08 395.71 206.51C394.38 203.94 393.72 200.86 393.72 197.26C393.72 193.66 394.39 190.57 395.73 188.01C397.07 185.45 398.89 183.48 401.2 182.12C403.51 180.76 406.12 180.08 409.04 180.08C410.9 180.08 412.63 180.34 414.23 180.86C415.83 181.38 417.26 182.15 418.51 183.15C419.76 184.16 420.79 185.39 421.61 186.84C422.42 188.29 422.95 189.95 423.2 191.81V191.83Z" fill="white"/>
<path d="M428.77 214V180.55H441.32C443.89 180.55 446.05 181 447.8 181.89C449.55 182.78 450.87 184.03 451.77 185.64C452.67 187.25 453.12 189.12 453.12 191.25C453.12 193.38 452.67 195.25 451.76 196.83C450.85 198.4 449.51 199.62 447.75 200.47C445.99 201.33 443.82 201.75 441.25 201.75H432.31V196.72H440.43C441.93 196.72 443.16 196.51 444.12 196.09C445.08 195.67 445.79 195.05 446.25 194.24C446.71 193.43 446.94 192.43 446.94 191.24C446.94 190.05 446.71 189.04 446.24 188.19C445.77 187.35 445.06 186.7 444.1 186.26C443.14 185.82 441.91 185.6 440.39 185.6H434.84V213.99H428.77V214ZM446.05 198.84L454.33 214H447.57L439.44 198.84H446.06H446.05Z" fill="white"/>
<path d="M458.7 214V180.55H480.13V185.63H464.76V194.71H478.66V199.79H464.76V214H458.7Z" fill="white"/>
<path d="M313 288.5H380C393.531 288.5 404.5 299.469 404.5 313V380C404.5 393.531 393.531 404.5 380 404.5H313C299.469 404.5 288.5 393.531 288.5 380V313C288.5 299.469 299.469 288.5 313 288.5Z" fill="url(#paint10_linear_1_209)" stroke="url(#paint11_linear_1_209)"/>
<path d="M303.33 364V330.55H309.39V344.71H324.89V330.55H330.97V364H324.89V349.79H309.39V364H303.33Z" fill="white"/>
<path d="M355.73 339.74C355.58 338.31 354.94 337.2 353.81 336.41C352.68 335.62 351.22 335.22 349.42 335.22C348.16 335.22 347.07 335.41 346.17 335.79C345.27 336.17 344.57 336.69 344.1 337.34C343.62 337.99 343.38 338.74 343.37 339.58C343.37 340.28 343.53 340.88 343.85 341.39C344.17 341.9 344.61 342.34 345.16 342.69C345.72 343.04 346.33 343.34 347.01 343.58C347.69 343.82 348.37 344.02 349.05 344.18L352.19 344.96C353.45 345.25 354.67 345.65 355.84 346.15C357.01 346.65 358.06 347.28 358.99 348.04C359.92 348.8 360.66 349.72 361.2 350.8C361.74 351.88 362.02 353.14 362.02 354.59C362.02 356.55 361.52 358.27 360.52 359.76C359.52 361.25 358.07 362.41 356.18 363.24C354.29 364.07 352.01 364.49 349.33 364.49C346.65 364.49 344.47 364.09 342.56 363.28C340.65 362.47 339.16 361.3 338.08 359.75C337.01 358.2 336.43 356.32 336.34 354.1H342.3C342.39 355.27 342.75 356.23 343.38 357.01C344.01 357.78 344.84 358.36 345.85 358.74C346.87 359.12 348.01 359.31 349.27 359.31C350.53 359.31 351.75 359.11 352.74 358.71C353.74 358.31 354.52 357.76 355.08 357.04C355.65 356.33 355.93 355.49 355.95 354.53C355.94 353.66 355.68 352.94 355.18 352.36C354.68 351.79 353.98 351.31 353.08 350.92C352.18 350.53 351.13 350.19 349.94 349.88L346.13 348.9C343.37 348.19 341.2 347.12 339.6 345.67C338 344.23 337.21 342.31 337.21 339.91C337.21 337.94 337.75 336.21 338.82 334.73C339.89 333.25 341.35 332.1 343.21 331.27C345.06 330.45 347.16 330.04 349.5 330.04C351.84 330.04 353.96 330.45 355.75 331.27C357.54 332.09 358.95 333.23 359.97 334.68C360.99 336.13 361.52 337.8 361.55 339.69H355.72V339.74H355.73Z" fill="white"/>
<path d="M385.59 339.74C385.44 338.31 384.8 337.2 383.67 336.41C382.54 335.62 381.08 335.22 379.28 335.22C378.02 335.22 376.93 335.41 376.03 335.79C375.13 336.17 374.43 336.69 373.96 337.34C373.48 337.99 373.24 338.74 373.23 339.58C373.23 340.28 373.39 340.88 373.71 341.39C374.03 341.9 374.47 342.34 375.02 342.69C375.58 343.04 376.19 343.34 376.87 343.58C377.55 343.82 378.23 344.02 378.91 344.18L382.05 344.96C383.31 345.25 384.53 345.65 385.7 346.15C386.87 346.65 387.92 347.28 388.85 348.04C389.78 348.8 390.52 349.72 391.06 350.8C391.6 351.88 391.88 353.14 391.88 354.59C391.88 356.55 391.38 358.27 390.38 359.76C389.38 361.25 387.93 362.41 386.04 363.24C384.15 364.07 381.87 364.49 379.19 364.49C376.51 364.49 374.33 364.09 372.42 363.28C370.51 362.47 369.02 361.3 367.94 359.75C366.87 358.2 366.29 356.32 366.2 354.1H372.16C372.25 355.27 372.61 356.23 373.24 357.01C373.87 357.78 374.7 358.36 375.71 358.74C376.73 359.12 377.87 359.31 379.13 359.31C380.39 359.31 381.61 359.11 382.6 358.71C383.6 358.31 384.38 357.76 384.94 357.04C385.51 356.33 385.79 355.49 385.81 354.53C385.8 353.66 385.54 352.94 385.04 352.36C384.54 351.79 383.84 351.31 382.94 350.92C382.04 350.53 380.99 350.19 379.8 349.88L375.99 348.9C373.23 348.19 371.06 347.12 369.46 345.67C367.86 344.23 367.07 342.31 367.07 339.91C367.07 337.94 367.61 336.21 368.68 334.73C369.75 333.25 371.21 332.1 373.07 331.27C374.92 330.45 377.02 330.04 379.36 330.04C381.7 330.04 383.82 330.45 385.61 331.27C387.4 332.09 388.81 333.23 389.83 334.68C390.85 336.13 391.38 337.8 391.41 339.69H385.58V339.74H385.59Z" fill="white"/>
<path d="M463 288.5H530C543.531 288.5 554.5 299.469 554.5 313V380C554.5 393.531 543.531 404.5 530 404.5H463C449.469 404.5 438.5 393.531 438.5 380V313C438.5 299.469 449.469 288.5 463 288.5Z" fill="url(#paint12_linear_1_209)" stroke="url(#paint13_linear_1_209)"/>
<path d="M515.67 368H480.04C477.81 368 476 366.19 476 363.96C476 362.89 476.43 361.86 477.19 361.1L511.1 327.18C512.68 325.6 515.23 325.6 516.81 327.18C517.57 327.94 517.99 328.97 517.99 330.04V365.66C517.99 366.95 516.95 367.99 515.66 367.99H515.67V368ZM481.55 363.33H513.33V331.55L481.55 363.33Z" fill="white"/>
<path d="M506.33 368C505.04 368 504 366.96 504 365.67V335.34C504 334.05 505.04 333.01 506.33 333.01C507.62 333.01 508.66 334.05 508.66 335.34V365.67C508.66 366.96 507.62 368 506.33 368Z" fill="white"/>
<path d="M497 368C495.71 368 494.67 366.96 494.67 365.67V344.67C494.67 343.38 495.71 342.34 497 342.34C498.29 342.34 499.33 343.38 499.33 344.67V365.67C499.33 366.96 498.29 368 497 368Z" fill="white"/>
<path d="M487.67 368C486.38 368 485.34 366.96 485.34 365.67V354C485.34 352.71 486.38 351.67 487.67 351.67C488.96 351.67 490 352.71 490 354V365.67C490 366.96 488.96 368 487.67 368Z" fill="white"/>
</g>
<defs>
<linearGradient id="paint0_linear_1_209" x1="-9.50002" y1="-177.5" x2="133" y2="107" gradientUnits="userSpaceOnUse">
<stop stop-color="white" stop-opacity="0.5"/>
<stop offset="1" stop-color="white" stop-opacity="0"/>
</linearGradient>
<linearGradient id="paint1_linear_1_209" x1="-36.5" y1="-107.5" x2="196.5" y2="185" gradientUnits="userSpaceOnUse">
<stop stop-color="white"/>
<stop offset="1" stop-color="white" stop-opacity="0"/>
</linearGradient>
<linearGradient id="paint2_linear_1_209" x1="497" y1="-218.5" x2="342.45" y2="103.28" gradientUnits="userSpaceOnUse">
<stop stop-color="white" stop-opacity="0.5"/>
<stop offset="1" stop-color="white" stop-opacity="0"/>
</linearGradient>
<linearGradient id="paint3_linear_1_209" x1="241" y1="-60.5" x2="400.5" y2="131" gradientUnits="userSpaceOnUse">
<stop stop-color="white"/>
<stop offset="1" stop-color="white" stop-opacity="0"/>
</linearGradient>
<linearGradient id="paint4_linear_1_209" x1="687" y1="-98" x2="509" y2="71" gradientUnits="userSpaceOnUse">
<stop stop-color="white" stop-opacity="0.5"/>
<stop offset="1" stop-color="white" stop-opacity="0"/>
</linearGradient>
<linearGradient id="paint5_linear_1_209" x1="516.5" y1="-48.5" x2="382.5" y2="161" gradientUnits="userSpaceOnUse">
<stop stop-color="white"/>
<stop offset="1" stop-color="white" stop-opacity="0"/>
</linearGradient>
<linearGradient id="paint6_linear_1_209" x1="472.5" y1="-283" x2="133" y2="356" gradientUnits="userSpaceOnUse">
<stop stop-color="#D9D9D9" stop-opacity="0.22"/>
<stop offset="1" stop-color="#D9D9D9" stop-opacity="0"/>
</linearGradient>
<linearGradient id="paint7_linear_1_209" x1="-187.5" y1="-148.5" x2="197.5" y2="434" gradientUnits="userSpaceOnUse">
<stop stop-color="white"/>
<stop offset="1" stop-color="white" stop-opacity="0"/>
</linearGradient>
<linearGradient id="paint8_linear_1_209" x1="275.35" y1="135.98" x2="363.417" y2="324.65" gradientUnits="userSpaceOnUse">
<stop stop-color="white" stop-opacity="0.13"/>
<stop offset="1" stop-color="white" stop-opacity="0"/>
</linearGradient>
<linearGradient id="paint9_linear_1_209" x1="442.5" y1="-19" x2="408.5" y2="293.5" gradientUnits="userSpaceOnUse">
<stop stop-color="white"/>
<stop offset="1" stop-color="white" stop-opacity="0"/>
</linearGradient>
<linearGradient id="paint10_linear_1_209" x1="178.5" y1="512" x2="340" y2="313" gradientUnits="userSpaceOnUse">
<stop stop-color="white" stop-opacity="0.5"/>
<stop offset="1" stop-color="white" stop-opacity="0"/>
</linearGradient>
<linearGradient id="paint11_linear_1_209" x1="427" y1="497" x2="300" y2="288" gradientUnits="userSpaceOnUse">
<stop stop-color="white"/>
<stop offset="1" stop-color="white" stop-opacity="0"/>
</linearGradient>
<linearGradient id="paint12_linear_1_209" x1="688" y1="188.5" x2="481.5" y2="366" gradientUnits="userSpaceOnUse">
<stop stop-color="white" stop-opacity="0.5"/>
<stop offset="1" stop-color="white" stop-opacity="0"/>
</linearGradient>
<linearGradient id="paint13_linear_1_209" x1="577" y1="497" x2="450" y2="288" gradientUnits="userSpaceOnUse">
<stop stop-color="white"/>
<stop offset="1" stop-color="white" stop-opacity="0"/>
</linearGradient>
<clipPath id="clip0_1_209">
<rect width="555" height="405" fill="white"/>
</clipPath>
</defs>
</svg>
